<svg width="206" height="194" viewBox="0 0 206 194" fill="none" xmlns="http://www.w3.org/2000/svg">
<g clip-path="url(#clip0_1369_6294)">
<path d="M159.675 41.5418L162.895 43.0671C161.574 41.224 160.436 38.3455 159.827 36.0549C158.795 38.1886 157.132 40.7992 155.486 42.3587L158.889 41.4832C156.792 51.7605 148.905 59.1386 139.873 59.1386L139.745 59.5098C149.179 59.5098 157.534 52.234 159.675 41.5418V41.5418Z" fill="#3F3D56"/>
<path d="M149.941 25.8826H170.286C171.149 25.8826 171.851 26.5846 171.851 27.4476C171.851 28.3105 171.149 29.0126 170.286 29.0126H149.941C149.078 29.0126 148.376 28.3105 148.376 27.4476C148.376 26.5846 149.078 25.8826 149.941 25.8826Z" fill="#3F3D56"/>
<path d="M103.963 61.0345C106.388 59.0301 109.389 58.657 110.664 60.201C111.939 61.7449 111.007 64.6209 108.58 66.6257C107.621 67.4398 106.482 68.0125 105.257 68.296L94.8714 76.6589L91.0508 71.7017L101.694 63.9837C102.204 62.8336 102.982 61.8223 103.963 61.0345V61.0345Z" fill="#FFB6B6"/>
<path d="M43.936 79.9034C43.9307 79.5336 43.9342 76.3075 46.3225 74.2684C49.0661 71.9261 52.9374 72.8742 54.2952 73.2067C57.4319 73.9748 57.6891 75.3204 60.6347 76.7029C66.1456 79.2894 59.2406 77.9655 62.5198 77.1361C63.6549 76.849 79.9844 75.7166 84.0491 73.2148C91.9545 68.3492 97.3409 65.3987 97.3409 65.3987L100.862 72.4411C100.862 72.4411 95.7704 79.5211 88.6043 84.766C81.2535 90.146 77.578 92.8361 71.9924 93.8755C71.5114 93.965 59.6814 95.9848 50.1534 88.8663C47.9801 87.2426 43.998 84.2677 43.936 79.9034H43.936Z" fill="#E6E6E6"/>
<path opacity="0.2" d="M111.504 72.2809C116.935 72.2809 121.337 67.8784 121.337 62.4477C121.337 57.017 116.935 52.6145 111.504 52.6145C106.073 52.6145 101.671 57.017 101.671 62.4477C101.671 67.8784 106.073 72.2809 111.504 72.2809Z" fill="#4C63B6"/>
<path d="M120.951 76.6576C126.382 76.6576 130.785 72.2551 130.785 66.8244C130.785 61.3937 126.382 56.9912 120.951 56.9912C115.521 56.9912 111.118 61.3937 111.118 66.8244C111.118 72.2551 115.521 76.6576 120.951 76.6576Z" fill="white"/>
<path opacity="0.5" d="M120.951 76.6576C126.382 76.6576 130.785 72.2551 130.785 66.8244C130.785 61.3937 126.382 56.9912 120.951 56.9912C115.521 56.9912 111.118 61.3937 111.118 66.8244C111.118 72.2551 115.521 76.6576 120.951 76.6576Z" fill="#4C63B6"/>
<path d="M130.923 81.2775C136.354 81.2775 140.756 76.875 140.756 71.4443C140.756 66.0136 136.354 61.6111 130.923 61.6111C125.492 61.6111 121.09 66.0136 121.09 71.4443C121.09 76.875 125.492 81.2775 130.923 81.2775Z" fill="white"/>
<path opacity="0.8" d="M130.923 81.2775C136.354 81.2775 140.756 76.875 140.756 71.4443C140.756 66.0136 136.354 61.6111 130.923 61.6111C125.492 61.6111 121.09 66.0136 121.09 71.4443C121.09 76.875 125.492 81.2775 130.923 81.2775Z" fill="#4C63B6"/>
<path d="M139.845 85.4108C145.276 85.4108 149.678 81.0083 149.678 75.5776C149.678 70.1469 145.276 65.7444 139.845 65.7444C134.414 65.7444 130.012 70.1469 130.012 75.5776C130.012 81.0083 134.414 85.4108 139.845 85.4108Z" fill="#4C63B6"/>
<path d="M65.3395 83.2479C64.8173 82.3673 62.5581 83.3102 62.1427 82.511C61.7289 81.7147 63.8279 80.5015 65.0272 77.7299C65.2435 77.23 66.6063 74.0803 65.5974 73.1084C63.685 71.2661 54.934 78.8686 51.8716 76.3807C51.1995 75.8347 50.7299 74.7448 48.6958 72.9751C47.8866 72.2711 47.3973 71.9533 46.9237 72.0715C46.2518 72.2393 46.1985 73.1387 45.478 74.9069C44.3974 77.5588 43.7583 77.3986 43.1287 79.5144C42.6613 81.085 42.7681 81.9981 42.2181 82.176C41.4398 82.4278 40.7235 80.7619 39.7372 80.911C38.7307 81.0633 38.1222 83.0029 37.93 84.4552C37.5693 87.1805 38.5702 88.9789 39.1249 90.8699C39.7277 92.9249 40.0855 96.0501 38.6933 100.474L24.9141 139.297C27.9561 131.331 36.7643 109.493 40.4655 101.378C41.5339 99.0352 42.7137 96.659 45.136 95.7212C47.4682 94.8182 50.6711 95.3573 54.7545 94.3736C55.2313 94.2587 56.5547 93.922 56.7213 93.1436C56.859 92.5001 56.0806 92.1409 56.2002 91.5382C56.3606 90.7298 57.8913 90.7199 59.7724 89.7872C61.0989 89.1295 61.9252 88.3473 62.6359 87.6747C62.8501 87.4719 66.0348 84.4201 65.3396 83.2479H65.3396H65.3395Z" fill="#F2F2F2"/>
<path d="M11.1282 103.686C10.5453 103.688 10.3563 105.069 9.84417 105.043C9.33393 105.016 9.3441 103.636 8.3298 102.247C8.14689 101.997 6.9942 100.419 6.22606 100.634C4.77012 101.041 5.97648 107.53 3.8718 108.315C3.40991 108.487 2.73946 108.403 1.28403 108.891C0.705017 109.085 0.407829 109.233 0.329231 109.5C0.217709 109.878 0.643728 110.164 1.3037 111.028C2.29346 112.323 2.03046 112.591 2.88721 113.51C3.52323 114.193 4.00221 114.404 3.93082 114.725C3.82983 115.18 2.8055 115.051 2.59412 115.578C2.37844 116.116 3.15488 116.974 3.81221 117.487C5.04575 118.451 6.21716 118.478 7.30532 118.752C8.48786 119.049 10.125 119.775 11.8947 121.735L26.9736 139.699C23.9414 135.908 15.7646 125.284 12.8495 121.126C12.008 119.925 11.1821 118.661 11.4208 117.201C11.6505 115.796 12.8393 114.379 13.5346 112.092C13.6158 111.824 13.8324 111.078 13.4985 110.771C13.2223 110.518 12.8215 110.796 12.5601 110.564C12.2097 110.252 12.6465 109.498 12.7314 108.305C12.7913 107.465 12.6459 106.833 12.5208 106.29C12.4831 106.127 11.9041 103.683 11.1282 103.686V103.686V103.686Z" fill="#F2F2F2"/>
<path d="M22.7564 106.297L22.4053 103.162L22.5657 102.924C23.3082 101.825 23.6866 100.752 23.6911 99.7332C23.6919 99.5712 23.6843 99.4092 23.6768 99.2443C23.6465 98.5904 23.6087 97.7775 24.0325 96.8299C24.2701 96.3017 24.9377 95.0786 25.9412 95.23C26.2114 95.2678 26.4158 95.3919 26.5709 95.5372C26.5937 95.5009 26.6171 95.4646 26.6421 95.4252C26.9547 94.9484 27.2022 94.7441 27.4406 94.5473C27.6237 94.3959 27.8129 94.24 28.1096 93.8707C28.2398 93.7087 28.3412 93.5664 28.4267 93.4468C28.6863 93.0851 29.0254 92.6537 29.6233 92.6612C30.2621 92.6915 30.5966 93.2198 30.8184 93.5694C31.2142 94.1931 31.3935 94.6427 31.5124 94.9408C31.5555 95.0498 31.6047 95.1724 31.6297 95.2103C31.8356 95.513 33.509 95.23 34.1394 95.127C35.5554 94.8909 36.7808 94.6865 37.2856 95.5796C37.6474 96.2184 37.3787 97.063 36.4629 98.1574C36.1776 98.498 35.8741 98.7569 35.6046 98.9597C35.8279 99.0929 36.0277 99.2973 36.1087 99.6182C36.2994 100.378 35.6463 101.139 34.1682 101.884C33.8011 102.07 33.3069 102.319 32.6144 102.438C32.2882 102.494 31.9945 102.508 31.7432 102.515C31.7379 102.661 31.7039 102.818 31.6153 102.98C31.3557 103.457 30.8153 103.684 30.001 103.629C29.1049 103.583 28.3669 103.411 27.7161 103.262C27.1477 103.131 26.658 103.021 26.2735 103.047C25.5606 103.104 25.0111 103.675 24.3663 104.415L22.7565 106.297H22.7564L22.7564 106.297Z" fill="#F2F2F2"/>
<path d="M24.3858 87.6316L21.4426 88.7664L21.172 88.6715C19.9207 88.232 18.7866 88.1382 17.8 88.3922C17.6432 88.4326 17.4884 88.481 17.3307 88.5301C16.7059 88.7253 15.9292 88.9681 14.9051 88.7985C14.3338 88.7026 12.9815 88.3671 12.8733 87.3579C12.8414 87.087 12.9096 86.8578 13.0108 86.6709C12.9699 86.6582 12.9288 86.6447 12.8844 86.6305C12.3439 86.4491 12.0835 86.2615 11.8327 86.0808C11.6398 85.9421 11.441 85.7986 11.0085 85.6053C10.8188 85.5205 10.6554 85.4584 10.5181 85.406C10.1023 85.2467 9.59899 85.0281 9.45467 84.4479C9.32193 83.8223 9.74808 83.3647 10.0301 83.0615C10.5329 82.5204 10.9223 82.2329 11.1806 82.0423C11.275 81.973 11.3812 81.8943 11.4114 81.8605C11.6521 81.5846 10.9538 80.0377 10.6943 79.454C10.1067 78.1442 9.59825 77.0107 10.3341 76.2959C10.8602 75.7839 11.7454 75.8296 13.0363 76.4378C13.4381 76.6274 13.7655 76.8554 14.03 77.0645C14.1022 76.8148 14.2492 76.5697 14.5391 76.41C15.2257 76.0327 16.1279 76.4714 17.2232 77.7123C17.4964 78.0201 17.8619 78.4352 18.1532 79.0747C18.2901 79.376 18.3778 79.6566 18.4488 79.8978C18.5908 79.866 18.7517 79.8591 18.9308 79.9036C19.4579 80.0338 19.8146 80.4989 19.9684 81.3005C20.1503 82.1792 20.172 82.9364 20.1922 83.604C20.2104 84.1868 20.2277 84.6885 20.3502 85.0539C20.5867 85.7289 21.278 86.1156 22.1576 86.5516L24.3859 87.6315L24.3858 87.6316H24.3858Z" fill="#F2F2F2"/>
<path d="M22.7564 78.3962L22.4053 75.2613L22.5657 75.0237C23.3082 73.9247 23.6866 72.8515 23.6911 71.8328C23.6919 71.6708 23.6843 71.5089 23.6768 71.3439C23.6465 70.69 23.6087 69.8771 24.0325 68.9295C24.2701 68.4013 24.9377 67.1782 25.9412 67.3296C26.2114 67.3674 26.4158 67.4915 26.5709 67.6368C26.5937 67.6005 26.6171 67.5642 26.6421 67.5248C26.9547 67.048 27.2022 66.8437 27.4406 66.6469C27.6237 66.4955 27.8129 66.3396 28.1096 65.9703C28.2398 65.8083 28.3412 65.666 28.4267 65.5465C28.6863 65.1847 29.0254 64.7533 29.6233 64.7608C30.2621 64.7911 30.5966 65.3194 30.8184 65.6691C31.2142 66.2927 31.3935 66.7423 31.5124 67.0405C31.5555 67.1494 31.6047 67.272 31.6297 67.3099C31.8356 67.6126 33.509 67.3296 34.1394 67.2266C35.5554 66.9905 36.7808 66.7862 37.2856 67.6792C37.6474 68.318 37.3787 69.1626 36.4629 70.257C36.1776 70.5976 35.8741 70.8565 35.6046 71.0593C35.8279 71.1925 36.0277 71.3969 36.1087 71.7178C36.2994 72.4776 35.6463 73.239 34.1682 73.9838C33.8011 74.17 33.3069 74.4182 32.6144 74.5378C32.2882 74.5938 31.9945 74.6074 31.7432 74.615C31.7379 74.7603 31.7039 74.9177 31.6153 75.0797C31.3557 75.5565 30.8153 75.7836 30.001 75.7291C29.1049 75.6821 28.3669 75.5111 27.7161 75.3612C27.1477 75.2311 26.658 75.1206 26.2735 75.1463C25.5606 75.2038 25.0111 75.7745 24.3663 76.5147L22.7565 78.3962H22.7564L22.7564 78.3962Z" fill="#F2F2F2"/>
<path d="M25.9643 139.246L25.3073 138.835L25.1484 138.076L25.3073 138.835L24.5414 138.922C24.5293 138.851 24.4877 138.688 24.4249 138.432C24.082 137.03 23.0368 132.765 22.1649 126.047C21.5564 121.358 21.212 116.536 21.1409 111.715C21.0698 106.887 21.2983 103.231 21.4815 100.293C21.62 98.077 21.788 95.9669 21.953 93.9113C22.392 88.4196 22.806 83.2322 22.4979 77.4893C22.4298 76.2072 22.2867 73.5386 20.7277 70.6989C19.8232 69.052 18.5775 67.5898 17.0244 66.3546L17.9901 65.1406C19.7044 66.506 21.0826 68.1256 22.087 69.9542C23.8156 73.1026 23.9715 76.0105 24.0464 77.4076C24.3598 83.2519 23.9412 88.4893 23.4977 94.034C23.3342 96.082 23.1662 98.183 23.0285 100.39C22.8468 103.301 22.6205 106.925 22.6909 111.691C22.7606 116.455 23.1011 121.217 23.7013 125.847C24.5626 132.48 25.5927 136.682 25.931 138.063C26.1111 138.8 26.1489 138.954 25.9643 139.246V139.246V139.246Z" fill="#F2F2F2"/>
<path d="M14.1814 68.8175C14.1179 68.8175 14.0535 68.816 13.9884 68.8114C12.6685 68.7403 11.4462 67.9501 10.3548 66.4637C9.84321 65.7644 9.58134 64.9667 9.05911 63.3758C8.97813 63.1305 8.58456 61.8863 8.3454 60.1743C8.18873 59.0557 8.20842 58.588 8.43017 58.1747C8.67615 57.7146 9.07425 57.3937 9.5223 57.1772C9.50263 57.0289 9.5185 56.876 9.58285 56.7201C9.84699 56.0737 10.5493 56.1585 10.9293 56.1994C11.1215 56.2236 11.3614 56.2554 11.6203 56.2417C12.0275 56.2221 12.2462 56.101 12.5777 55.9193C12.8948 55.7452 13.2891 55.5288 13.8742 55.4092C15.0276 55.1685 15.9941 55.4955 16.3127 55.6029C17.9891 56.1615 18.8156 57.4648 19.7722 58.9739C19.963 59.2767 20.6176 60.3786 21.0498 61.8893C21.3616 62.9792 21.3177 63.4635 21.2239 63.8238C21.0331 64.564 20.5828 64.9878 19.4392 65.9233C18.2449 66.9026 17.6455 67.3931 17.1308 67.6913C15.9328 68.383 15.1805 68.8175 14.1814 68.8175V68.8175H14.1814Z" fill="#F2F2F2"/>
<path d="M0.411133 138.566C0.411133 138.824 0.618506 139.032 0.876742 139.032H205.222C205.48 139.032 205.687 138.824 205.687 138.566C205.687 138.308 205.48 138.1 205.222 138.1H0.876742C0.618506 138.1 0.411133 138.308 0.411133 138.566Z" fill="#CCCCCC"/>
<path d="M54.8593 61.9928C61.6339 61.9928 67.1258 56.5009 67.1258 49.7263C67.1258 42.9516 61.6339 37.4597 54.8593 37.4597C48.0847 37.4597 42.5928 42.9516 42.5928 49.7263C42.5928 56.5009 48.0847 61.9928 54.8593 61.9928Z" fill="#FFB6B6"/>
<path d="M150.926 132.138L138.293 119.206L131.771 126.009L141.183 138.407L150.519 139.475L150.926 132.138Z" fill="#FFB6B6"/>
<path d="M78.7916 107.889C79.5305 107.95 81.8786 108.42 84.1229 107.186C85.6546 106.343 86.4402 105.09 86.7055 104.691C89.997 99.7479 102.631 92.039 113.969 91.5646C116.537 91.4572 118.227 91.7547 119.763 92.5554C121.941 93.6909 122.811 95.3174 125.575 99.1274C127.087 101.212 128.76 103.175 130.29 105.246C139.249 117.369 142.645 118.321 142.298 122.208C141.913 126.52 137.262 130.611 134.171 130.139C132.905 129.946 132.415 129.066 130.723 127.284C125.764 122.059 123.713 123.024 120.182 119.022C116.06 114.35 116.599 110.475 114.449 110.326C112.454 110.187 111.607 113.492 107.349 117.882C105.401 119.891 104.013 120.813 99.7867 123.745C83.327 135.164 83.0643 135.967 79.7425 136.877C78.2892 137.276 67.9741 140.104 64.2996 135.603C58.5494 128.561 72.1338 107.335 78.7916 107.889V107.889Z" fill="#2F2E41"/>
<path d="M147.063 135.06C147.992 134.642 149.079 134.155 149.428 133.033C149.665 132.274 149.528 131.338 149.04 130.691C148.476 129.945 147.641 129.847 147.674 129.715C147.726 129.514 149.7 129.592 151.867 130.358C152.276 130.503 154.129 131.18 156.485 133.02C158.374 134.494 158.12 134.789 159.304 135.639C162.938 138.248 166.347 136.192 168.314 138.639C169.073 139.583 169.396 140.924 169.077 142.008C168.436 144.185 165.316 144.934 163.611 145.321C159.505 146.252 156.398 145.492 153.152 144.945C142.116 143.086 135.916 144.779 135.086 142.222C134.929 141.739 135.184 141.78 136.035 138.229C136.875 134.724 136.847 133.761 137.562 133.481C138.639 133.058 139.362 134.98 142.074 135.638C144.478 136.221 146.461 135.33 147.063 135.06Z" fill="#2F2E41"/>
<path d="M128.467 174.44L125.275 156.647L116.06 158.613L116.885 174.158L124.01 180.284L128.467 174.44Z" fill="#FFB6B6"/>
<path d="M82.396 113.87C82.973 114.335 84.6517 116.043 87.2022 116.282C88.9428 116.444 90.2964 115.849 90.7397 115.668C96.2393 113.426 111.022 114.141 120.67 120.116C122.855 121.469 124.087 122.664 124.908 124.189C126.073 126.352 125.879 128.186 126.027 132.891C126.107 135.464 126.389 138.028 126.493 140.601C127.098 155.663 129.373 158.358 126.904 161.379C124.163 164.731 118.018 165.505 115.725 163.378C114.786 162.507 114.875 161.504 114.476 159.08C113.307 151.972 111.067 151.618 110.393 146.324C109.606 140.143 112.227 137.241 110.532 135.909C108.96 134.674 106.403 136.933 100.414 138.175C97.6738 138.743 96.0083 138.727 90.8643 138.78C70.8326 138.986 70.1646 139.502 66.9046 138.39C65.4783 137.904 55.355 134.452 54.8417 128.664C54.0384 119.608 77.1976 109.673 82.396 113.87V113.87Z" fill="#2F2E41"/>
<path d="M123.63 174.69C124.633 174.866 125.806 175.073 126.725 174.341C127.347 173.845 127.76 172.994 127.719 172.185C127.671 171.251 127.035 170.7 127.137 170.61C127.293 170.473 128.882 171.646 130.245 173.497C130.503 173.846 131.655 175.447 132.572 178.293C133.307 180.573 132.931 180.675 133.433 182.043C134.975 186.243 138.951 186.455 139.204 189.584C139.302 190.792 138.817 192.083 137.944 192.801C136.191 194.242 133.189 193.11 131.561 192.473C127.64 190.938 125.496 188.564 123.118 186.289C115.03 178.553 108.948 176.472 109.697 173.891C109.839 173.402 110.027 173.58 112.725 171.119C115.388 168.691 115.906 167.879 116.655 168.048C117.783 168.303 117.303 170.299 119.177 172.367C120.839 174.198 122.98 174.575 123.63 174.69Z" fill="#2F2E41"/>
<path d="M56.5317 52.0712C57.0092 50.363 56.4094 49.7405 57.0208 48.9737C57.0208 48.9737 57.2668 48.6651 59.4662 47.8325C58.8173 44.0674 59.3031 43.4307 59.3032 43.4307C59.8631 42.697 60.9849 42.5196 61.7486 42.6156C63.3637 42.8186 63.6496 44.2786 64.6831 44.2459C66.1107 44.2006 67.823 41.3428 67.2915 38.8659C66.858 36.8455 64.9887 35.345 64.5201 35.6054C64.0554 35.8635 62.3829 34.7252 61.7486 34.9533C61.3154 35.109 59.2764 34.9018 58.8141 35.1163C58.3092 35.3505 56.8633 36.809 56.725 36.6252C55.7643 35.3483 55.7848 34.9024 55.2275 34.6272C54.2399 34.1395 53.1662 35.0409 51.3148 35.9314C47.5055 37.7637 46.3901 36.6707 44.6306 38.2138C43.7418 38.9933 43.2652 40.4831 42.3482 43.4307C41.0659 47.553 40.4247 49.6141 41.044 51.5821C41.6756 53.5891 42.6057 53.1523 43.9785 55.9839C45.5067 59.1359 44.98 60.968 46.4239 61.6899C47.5399 62.2478 49.3334 61.8927 50.0106 60.8747C51.1699 59.1319 48.1733 56.7742 49.1954 54.0275C49.8228 52.3415 51.7582 51.0631 52.9451 51.4191C54.2871 51.8216 54.3859 54.2278 55.2274 54.1906C55.9481 54.1587 56.4485 52.3689 56.5317 52.0712Z" fill="#2F2E41"/>
<path d="M47.2386 63.8091C49.7488 60.9946 59.9733 63.9077 60.9329 68.3739C61.3277 70.2109 59.8705 70.9866 60.2808 73.1017C60.881 76.1954 64.2794 75.9845 66.802 79.1338C70.3832 83.6047 66.6938 87.9752 70.7146 95.4366C71.5738 97.0309 72.298 98.3747 73.8122 99.6753C77.2868 102.66 80.5204 101.636 82.2896 104.403C83.6127 106.472 83.0691 109.023 82.9417 109.62C82.4196 112.07 81.0044 112.667 80.0072 114.674C78.3481 118.013 80.2266 120.465 80.3333 124.456C80.4667 129.448 77.8137 136.368 72.5079 138.639C66.5471 141.19 59.3579 136.965 55.8791 132.77C53.8032 130.267 53.2006 127.958 52.2925 125.108C48.2337 112.37 45.9407 113.522 42.8368 103.425C39.2885 91.8821 38.591 78.3591 42.8368 74.0799C43.3996 73.5127 44.9483 72.2017 45.9344 69.8412C47.2612 66.6647 46.1149 65.069 47.2386 63.8091H47.2386Z" fill="#E6E6E6"/>
<path d="M126.962 74.6946C127.579 78.7468 124.784 82.5457 120.732 83.1627C116.68 83.7798 112.881 80.9851 112.264 76.9329C111.647 72.8807 114.442 69.0819 118.494 68.4648C122.546 67.8477 126.345 70.6424 126.962 74.6946ZM113.038 76.8151C113.59 80.4409 116.989 82.9413 120.614 82.3892C124.24 81.837 126.741 78.4382 126.188 74.8124C125.636 71.1866 122.237 68.6862 118.612 69.2383C114.986 69.7905 112.486 73.1893 113.038 76.8151Z" fill="#3F3D56"/>
<path d="M115.806 76.3934C116.126 78.4926 118.093 79.9402 120.192 79.6205C122.292 79.3008 123.739 77.3331 123.42 75.234C123.1 73.1348 121.132 71.6872 119.033 72.0069C116.934 72.3265 115.486 74.2943 115.806 76.3934Z" fill="#3F3D56"/>
<path d="M149.282 13.3274C150.208 19.4046 155.905 23.5955 161.982 22.6701C168.059 21.7446 172.25 16.0478 171.324 9.97071C170.399 3.89358 164.702 -0.297419 158.625 0.628047C152.548 1.55351 148.357 7.25029 149.282 13.3274Z" fill="#4C63B6"/>
<path d="M107.699 73.9433C110.765 73.2347 113.615 74.2422 114.066 76.1935C114.517 78.1447 112.397 80.3003 109.33 81.0088C108.108 81.3086 106.833 81.3116 105.61 81.0175L92.582 83.8559L91.4727 78.701L104.351 75.5676C105.321 74.7667 106.469 74.2097 107.699 73.9433Z" fill="#FFB6B6"/>
<path d="M45.4701 77.5118C45.5508 77.1508 46.3027 74.0136 49.099 72.5843C52.3111 70.9425 55.8568 72.763 57.1004 73.4015C59.9732 74.8765 59.9112 76.2449 62.4557 78.2732C67.216 82.0679 73.3377 81.9848 76.7199 81.9389C77.8906 81.923 81.5061 81.8035 86.0404 80.3131C94.859 77.4146 100.493 73.7773 100.493 73.7773L102.807 81.6203C102.807 81.6203 95.9786 89.167 87.791 92.606C79.3925 96.1337 55.4384 96.3665 49.764 96.0814C49.2754 96.0569 57.0544 96.8077 49.4381 87.6727C47.7008 85.5891 44.5178 81.7713 45.4701 77.5118L45.4701 77.5118Z" fill="#E6E6E6"/>
</g>
<defs>
<clipPath id="clip0_1369_6294">
<rect width="205.376" height="193" fill="white" transform="translate(0.311523 0.5)"/>
</clipPath>
</defs>
</svg>
