<svg width="158" height="153" viewBox="0 0 158 153" fill="none" xmlns="http://www.w3.org/2000/svg">
<path d="M2.08952 4.19109C3.2438 4.19109 4.17953 3.25305 4.17953 2.09591C4.17953 0.938777 3.2438 0.000732422 2.08952 0.000732422C0.93524 0.000732422 -0.000488281 0.938777 -0.000488281 2.09591C-0.000488281 3.25305 0.93524 4.19109 2.08952 4.19109Z" fill="#E6E6E6"/>
<path d="M12.6696 4.19061C13.8239 4.19061 14.7596 3.25256 14.7596 2.09542C14.7596 0.938289 13.8239 0.000244141 12.6696 0.000244141C11.5153 0.000244141 10.5796 0.938289 10.5796 2.09542C10.5796 3.25256 11.5153 4.19061 12.6696 4.19061Z" fill="#E6E6E6"/>
<path d="M23.2492 4.19061C24.4035 4.19061 25.3392 3.25256 25.3392 2.09542C25.3392 0.938289 24.4035 0.000244141 23.2492 0.000244141C22.0949 0.000244141 21.1592 0.938289 21.1592 2.09542C21.1592 3.25256 22.0949 4.19061 23.2492 4.19061Z" fill="#E6E6E6"/>
<path d="M33.8288 4.19061C34.9831 4.19061 35.9188 3.25256 35.9188 2.09542C35.9188 0.938289 34.9831 0.000244141 33.8288 0.000244141C32.6745 0.000244141 31.7388 0.938289 31.7388 2.09542C31.7388 3.25256 32.6745 4.19061 33.8288 4.19061Z" fill="#E6E6E6"/>
<path d="M44.4084 4.19061C45.5626 4.19061 46.4984 3.25256 46.4984 2.09542C46.4984 0.938289 45.5626 0.000244141 44.4084 0.000244141C43.2541 0.000244141 42.3184 0.938289 42.3184 2.09542C42.3184 3.25256 43.2541 4.19061 44.4084 4.19061Z" fill="#E6E6E6"/>
<path d="M54.9882 4.19061C56.1425 4.19061 57.0782 3.25256 57.0782 2.09542C57.0782 0.938289 56.1425 0.000244141 54.9882 0.000244141C53.8339 0.000244141 52.8982 0.938289 52.8982 2.09542C52.8982 3.25256 53.8339 4.19061 54.9882 4.19061Z" fill="#E6E6E6"/>
<path d="M65.5675 4.19061C66.7218 4.19061 67.6576 3.25256 67.6576 2.09542C67.6576 0.938289 66.7218 0.000244141 65.5675 0.000244141C64.4133 0.000244141 63.4775 0.938289 63.4775 2.09542C63.4775 3.25256 64.4133 4.19061 65.5675 4.19061Z" fill="#E6E6E6"/>
<path d="M76.1474 4.19061C77.3017 4.19061 78.2374 3.25256 78.2374 2.09542C78.2374 0.938289 77.3017 0.000244141 76.1474 0.000244141C74.9931 0.000244141 74.0574 0.938289 74.0574 2.09542C74.0574 3.25256 74.9931 4.19061 76.1474 4.19061Z" fill="#E6E6E6"/>
<path d="M86.7267 4.19061C87.881 4.19061 88.8167 3.25256 88.8167 2.09542C88.8167 0.938289 87.881 0.000244141 86.7267 0.000244141C85.5725 0.000244141 84.6367 0.938289 84.6367 2.09542C84.6367 3.25256 85.5725 4.19061 86.7267 4.19061Z" fill="#E6E6E6"/>
<path d="M97.3063 4.19061C98.4606 4.19061 99.3963 3.25256 99.3963 2.09542C99.3963 0.938289 98.4606 0.000244141 97.3063 0.000244141C96.152 0.000244141 95.2163 0.938289 95.2163 2.09542C95.2163 3.25256 96.152 4.19061 97.3063 4.19061Z" fill="#E6E6E6"/>
<path d="M2.08976 14.9295C3.24404 14.9295 4.17977 13.9915 4.17977 12.8343C4.17977 11.6772 3.24404 10.7391 2.08976 10.7391C0.935484 10.7391 -0.000244141 11.6772 -0.000244141 12.8343C-0.000244141 13.9915 0.935484 14.9295 2.08976 14.9295Z" fill="#E6E6E6"/>
<path d="M12.6696 14.9295C13.8239 14.9295 14.7596 13.9915 14.7596 12.8343C14.7596 11.6772 13.8239 10.7391 12.6696 10.7391C11.5153 10.7391 10.5796 11.6772 10.5796 12.8343C10.5796 13.9915 11.5153 14.9295 12.6696 14.9295Z" fill="#E6E6E6"/>
<path d="M23.2492 14.9295C24.4035 14.9295 25.3392 13.9915 25.3392 12.8343C25.3392 11.6772 24.4035 10.7391 23.2492 10.7391C22.0949 10.7391 21.1592 11.6772 21.1592 12.8343C21.1592 13.9915 22.0949 14.9295 23.2492 14.9295Z" fill="#E6E6E6"/>
<path d="M33.8288 14.9295C34.9831 14.9295 35.9188 13.9915 35.9188 12.8343C35.9188 11.6772 34.9831 10.7391 33.8288 10.7391C32.6745 10.7391 31.7388 11.6772 31.7388 12.8343C31.7388 13.9915 32.6745 14.9295 33.8288 14.9295Z" fill="#4C63B6"/>
<path d="M44.4084 14.9295C45.5626 14.9295 46.4984 13.9915 46.4984 12.8343C46.4984 11.6772 45.5626 10.7391 44.4084 10.7391C43.2541 10.7391 42.3184 11.6772 42.3184 12.8343C42.3184 13.9915 43.2541 14.9295 44.4084 14.9295Z" fill="#E6E6E6"/>
<path d="M54.9882 14.9295C56.1425 14.9295 57.0782 13.9915 57.0782 12.8343C57.0782 11.6772 56.1425 10.7391 54.9882 10.7391C53.8339 10.7391 52.8982 11.6772 52.8982 12.8343C52.8982 13.9915 53.8339 14.9295 54.9882 14.9295Z" fill="#E6E6E6"/>
<path d="M65.5675 14.9295C66.7218 14.9295 67.6576 13.9915 67.6576 12.8343C67.6576 11.6772 66.7218 10.7391 65.5675 10.7391C64.4133 10.7391 63.4775 11.6772 63.4775 12.8343C63.4775 13.9915 64.4133 14.9295 65.5675 14.9295Z" fill="#E6E6E6"/>
<path d="M76.1474 14.9295C77.3017 14.9295 78.2374 13.9915 78.2374 12.8343C78.2374 11.6772 77.3017 10.7391 76.1474 10.7391C74.9931 10.7391 74.0574 11.6772 74.0574 12.8343C74.0574 13.9915 74.9931 14.9295 76.1474 14.9295Z" fill="#E6E6E6"/>
<path d="M86.7267 14.9295C87.881 14.9295 88.8167 13.9915 88.8167 12.8343C88.8167 11.6772 87.881 10.7391 86.7267 10.7391C85.5725 10.7391 84.6367 11.6772 84.6367 12.8343C84.6367 13.9915 85.5725 14.9295 86.7267 14.9295Z" fill="#E6E6E6"/>
<path d="M97.3063 14.9295C98.4606 14.9295 99.3963 13.9915 99.3963 12.8343C99.3963 11.6772 98.4606 10.7391 97.3063 10.7391C96.152 10.7391 95.2163 11.6772 95.2163 12.8343C95.2163 13.9915 96.152 14.9295 97.3063 14.9295Z" fill="#E6E6E6"/>
<path d="M2.08976 25.6684C3.24404 25.6684 4.17977 24.7303 4.17977 23.5732C4.17977 22.4161 3.24404 21.478 2.08976 21.478C0.935484 21.478 -0.000244141 22.4161 -0.000244141 23.5732C-0.000244141 24.7303 0.935484 25.6684 2.08976 25.6684Z" fill="#E6E6E6"/>
<path d="M12.6696 25.6684C13.8239 25.6684 14.7596 24.7303 14.7596 23.5732C14.7596 22.4161 13.8239 21.478 12.6696 21.478C11.5153 21.478 10.5796 22.4161 10.5796 23.5732C10.5796 24.7303 11.5153 25.6684 12.6696 25.6684Z" fill="#E6E6E6"/>
<path d="M23.2492 25.6684C24.4035 25.6684 25.3392 24.7303 25.3392 23.5732C25.3392 22.4161 24.4035 21.478 23.2492 21.478C22.0949 21.478 21.1592 22.4161 21.1592 23.5732C21.1592 24.7303 22.0949 25.6684 23.2492 25.6684Z" fill="#E6E6E6"/>
<path d="M33.8288 25.6684C34.9831 25.6684 35.9188 24.7303 35.9188 23.5732C35.9188 22.4161 34.9831 21.478 33.8288 21.478C32.6745 21.478 31.7388 22.4161 31.7388 23.5732C31.7388 24.7303 32.6745 25.6684 33.8288 25.6684Z" fill="#E6E6E6"/>
<path d="M44.4084 25.6684C45.5626 25.6684 46.4984 24.7303 46.4984 23.5732C46.4984 22.4161 45.5626 21.478 44.4084 21.478C43.2541 21.478 42.3184 22.4161 42.3184 23.5732C42.3184 24.7303 43.2541 25.6684 44.4084 25.6684Z" fill="#E6E6E6"/>
<path d="M54.9882 25.6684C56.1425 25.6684 57.0782 24.7303 57.0782 23.5732C57.0782 22.4161 56.1425 21.478 54.9882 21.478C53.8339 21.478 52.8982 22.4161 52.8982 23.5732C52.8982 24.7303 53.8339 25.6684 54.9882 25.6684Z" fill="#E6E6E6"/>
<path d="M65.5675 25.6684C66.7218 25.6684 67.6576 24.7303 67.6576 23.5732C67.6576 22.4161 66.7218 21.478 65.5675 21.478C64.4133 21.478 63.4775 22.4161 63.4775 23.5732C63.4775 24.7303 64.4133 25.6684 65.5675 25.6684Z" fill="#E6E6E6"/>
<path d="M76.1474 25.6684C77.3017 25.6684 78.2374 24.7303 78.2374 23.5732C78.2374 22.4161 77.3017 21.478 76.1474 21.478C74.9931 21.478 74.0574 22.4161 74.0574 23.5732C74.0574 24.7303 74.9931 25.6684 76.1474 25.6684Z" fill="#E6E6E6"/>
<path d="M86.7267 25.6684C87.881 25.6684 88.8167 24.7303 88.8167 23.5732C88.8167 22.4161 87.881 21.478 86.7267 21.478C85.5725 21.478 84.6367 22.4161 84.6367 23.5732C84.6367 24.7303 85.5725 25.6684 86.7267 25.6684Z" fill="#E6E6E6"/>
<path d="M97.3063 25.6684C98.4606 25.6684 99.3963 24.7303 99.3963 23.5732C99.3963 22.4161 98.4606 21.478 97.3063 21.478C96.152 21.478 95.2163 22.4161 95.2163 23.5732C95.2163 24.7303 96.152 25.6684 97.3063 25.6684Z" fill="#E6E6E6"/>
<path d="M2.08976 36.4073C3.24404 36.4073 4.17977 35.4692 4.17977 34.3121C4.17977 33.155 3.24404 32.2169 2.08976 32.2169C0.935484 32.2169 -0.000244141 33.155 -0.000244141 34.3121C-0.000244141 35.4692 0.935484 36.4073 2.08976 36.4073Z" fill="#E6E6E6"/>
<path d="M12.6696 36.4073C13.8239 36.4073 14.7596 35.4692 14.7596 34.3121C14.7596 33.155 13.8239 32.2169 12.6696 32.2169C11.5153 32.2169 10.5796 33.155 10.5796 34.3121C10.5796 35.4692 11.5153 36.4073 12.6696 36.4073Z" fill="#E6E6E6"/>
<path d="M23.2492 36.4073C24.4035 36.4073 25.3392 35.4692 25.3392 34.3121C25.3392 33.155 24.4035 32.2169 23.2492 32.2169C22.0949 32.2169 21.1592 33.155 21.1592 34.3121C21.1592 35.4692 22.0949 36.4073 23.2492 36.4073Z" fill="#E6E6E6"/>
<path d="M33.8288 36.4073C34.9831 36.4073 35.9188 35.4692 35.9188 34.3121C35.9188 33.155 34.9831 32.2169 33.8288 32.2169C32.6745 32.2169 31.7388 33.155 31.7388 34.3121C31.7388 35.4692 32.6745 36.4073 33.8288 36.4073Z" fill="#E6E6E6"/>
<path d="M44.4084 36.4073C45.5626 36.4073 46.4984 35.4692 46.4984 34.3121C46.4984 33.155 45.5626 32.2169 44.4084 32.2169C43.2541 32.2169 42.3184 33.155 42.3184 34.3121C42.3184 35.4692 43.2541 36.4073 44.4084 36.4073Z" fill="#E6E6E6"/>
<path d="M54.9882 36.4073C56.1425 36.4073 57.0782 35.4692 57.0782 34.3121C57.0782 33.155 56.1425 32.2169 54.9882 32.2169C53.8339 32.2169 52.8982 33.155 52.8982 34.3121C52.8982 35.4692 53.8339 36.4073 54.9882 36.4073Z" fill="#E6E6E6"/>
<path d="M65.5675 36.4073C66.7218 36.4073 67.6576 35.4692 67.6576 34.3121C67.6576 33.155 66.7218 32.2169 65.5675 32.2169C64.4133 32.2169 63.4775 33.155 63.4775 34.3121C63.4775 35.4692 64.4133 36.4073 65.5675 36.4073Z" fill="#E6E6E6"/>
<path d="M76.1474 36.4073C77.3017 36.4073 78.2374 35.4692 78.2374 34.3121C78.2374 33.155 77.3017 32.2169 76.1474 32.2169C74.9931 32.2169 74.0574 33.155 74.0574 34.3121C74.0574 35.4692 74.9931 36.4073 76.1474 36.4073Z" fill="#E6E6E6"/>
<path d="M86.7267 36.4073C87.881 36.4073 88.8167 35.4692 88.8167 34.3121C88.8167 33.155 87.881 32.2169 86.7267 32.2169C85.5725 32.2169 84.6367 33.155 84.6367 34.3121C84.6367 35.4692 85.5725 36.4073 86.7267 36.4073Z" fill="#E6E6E6"/>
<path d="M97.3063 36.4073C98.4606 36.4073 99.3963 35.4692 99.3963 34.3121C99.3963 33.155 98.4606 32.2169 97.3063 32.2169C96.152 32.2169 95.2163 33.155 95.2163 34.3121C95.2163 35.4692 96.152 36.4073 97.3063 36.4073Z" fill="#E6E6E6"/>
<path d="M2.08976 47.1462C3.24404 47.1462 4.17977 46.2081 4.17977 45.051C4.17977 43.8939 3.24404 42.9558 2.08976 42.9558C0.935484 42.9558 -0.000244141 43.8939 -0.000244141 45.051C-0.000244141 46.2081 0.935484 47.1462 2.08976 47.1462Z" fill="#E6E6E6"/>
<path d="M12.6696 47.1462C13.8239 47.1462 14.7596 46.2081 14.7596 45.051C14.7596 43.8939 13.8239 42.9558 12.6696 42.9558C11.5153 42.9558 10.5796 43.8939 10.5796 45.051C10.5796 46.2081 11.5153 47.1462 12.6696 47.1462Z" fill="#4C63B6"/>
<path d="M23.2492 47.1462C24.4035 47.1462 25.3392 46.2081 25.3392 45.051C25.3392 43.8939 24.4035 42.9558 23.2492 42.9558C22.0949 42.9558 21.1592 43.8939 21.1592 45.051C21.1592 46.2081 22.0949 47.1462 23.2492 47.1462Z" fill="#E6E6E6"/>
<path d="M33.8288 47.1462C34.9831 47.1462 35.9188 46.2081 35.9188 45.051C35.9188 43.8939 34.9831 42.9558 33.8288 42.9558C32.6745 42.9558 31.7388 43.8939 31.7388 45.051C31.7388 46.2081 32.6745 47.1462 33.8288 47.1462Z" fill="#E6E6E6"/>
<path d="M44.4084 47.1462C45.5626 47.1462 46.4984 46.2081 46.4984 45.051C46.4984 43.8939 45.5626 42.9558 44.4084 42.9558C43.2541 42.9558 42.3184 43.8939 42.3184 45.051C42.3184 46.2081 43.2541 47.1462 44.4084 47.1462Z" fill="#E6E6E6"/>
<path d="M54.9882 47.1462C56.1425 47.1462 57.0782 46.2081 57.0782 45.051C57.0782 43.8939 56.1425 42.9558 54.9882 42.9558C53.8339 42.9558 52.8982 43.8939 52.8982 45.051C52.8982 46.2081 53.8339 47.1462 54.9882 47.1462Z" fill="#E6E6E6"/>
<path d="M65.5675 47.1462C66.7218 47.1462 67.6576 46.2081 67.6576 45.051C67.6576 43.8939 66.7218 42.9558 65.5675 42.9558C64.4133 42.9558 63.4775 43.8939 63.4775 45.051C63.4775 46.2081 64.4133 47.1462 65.5675 47.1462Z" fill="#E6E6E6"/>
<path d="M76.1474 47.1462C77.3017 47.1462 78.2374 46.2081 78.2374 45.051C78.2374 43.8939 77.3017 42.9558 76.1474 42.9558C74.9931 42.9558 74.0574 43.8939 74.0574 45.051C74.0574 46.2081 74.9931 47.1462 76.1474 47.1462Z" fill="#E6E6E6"/>
<path d="M86.7267 47.1462C87.881 47.1462 88.8167 46.2081 88.8167 45.051C88.8167 43.8939 87.881 42.9558 86.7267 42.9558C85.5725 42.9558 84.6367 43.8939 84.6367 45.051C84.6367 46.2081 85.5725 47.1462 86.7267 47.1462Z" fill="#E6E6E6"/>
<path d="M97.3063 47.1462C98.4606 47.1462 99.3963 46.2081 99.3963 45.051C99.3963 43.8939 98.4606 42.9558 97.3063 42.9558C96.152 42.9558 95.2163 43.8939 95.2163 45.051C95.2163 46.2081 96.152 47.1462 97.3063 47.1462Z" fill="#E6E6E6"/>
<path d="M2.08976 57.8851C3.24404 57.8851 4.17977 56.947 4.17977 55.7899C4.17977 54.6327 3.24404 53.6947 2.08976 53.6947C0.935484 53.6947 -0.000244141 54.6327 -0.000244141 55.7899C-0.000244141 56.947 0.935484 57.8851 2.08976 57.8851Z" fill="#E6E6E6"/>
<path d="M12.6696 57.8851C13.8239 57.8851 14.7596 56.947 14.7596 55.7899C14.7596 54.6327 13.8239 53.6947 12.6696 53.6947C11.5153 53.6947 10.5796 54.6327 10.5796 55.7899C10.5796 56.947 11.5153 57.8851 12.6696 57.8851Z" fill="#E6E6E6"/>
<path d="M23.2492 57.8851C24.4035 57.8851 25.3392 56.947 25.3392 55.7899C25.3392 54.6327 24.4035 53.6947 23.2492 53.6947C22.0949 53.6947 21.1592 54.6327 21.1592 55.7899C21.1592 56.947 22.0949 57.8851 23.2492 57.8851Z" fill="#E6E6E6"/>
<path d="M33.8288 57.8851C34.9831 57.8851 35.9188 56.947 35.9188 55.7899C35.9188 54.6327 34.9831 53.6947 33.8288 53.6947C32.6745 53.6947 31.7388 54.6327 31.7388 55.7899C31.7388 56.947 32.6745 57.8851 33.8288 57.8851Z" fill="#E6E6E6"/>
<path d="M44.4084 57.8851C45.5626 57.8851 46.4984 56.947 46.4984 55.7899C46.4984 54.6327 45.5626 53.6947 44.4084 53.6947C43.2541 53.6947 42.3184 54.6327 42.3184 55.7899C42.3184 56.947 43.2541 57.8851 44.4084 57.8851Z" fill="#E6E6E6"/>
<path d="M54.9882 57.8851C56.1425 57.8851 57.0782 56.947 57.0782 55.7899C57.0782 54.6327 56.1425 53.6947 54.9882 53.6947C53.8339 53.6947 52.8982 54.6327 52.8982 55.7899C52.8982 56.947 53.8339 57.8851 54.9882 57.8851Z" fill="#E6E6E6"/>
<path d="M65.5675 57.8851C66.7218 57.8851 67.6576 56.947 67.6576 55.7899C67.6576 54.6327 66.7218 53.6947 65.5675 53.6947C64.4133 53.6947 63.4775 54.6327 63.4775 55.7899C63.4775 56.947 64.4133 57.8851 65.5675 57.8851Z" fill="#E6E6E6"/>
<path d="M76.1474 57.8851C77.3017 57.8851 78.2374 56.947 78.2374 55.7899C78.2374 54.6327 77.3017 53.6947 76.1474 53.6947C74.9931 53.6947 74.0574 54.6327 74.0574 55.7899C74.0574 56.947 74.9931 57.8851 76.1474 57.8851Z" fill="#E6E6E6"/>
<path d="M86.7267 57.8851C87.881 57.8851 88.8167 56.947 88.8167 55.7899C88.8167 54.6327 87.881 53.6947 86.7267 53.6947C85.5725 53.6947 84.6367 54.6327 84.6367 55.7899C84.6367 56.947 85.5725 57.8851 86.7267 57.8851Z" fill="#E6E6E6"/>
<path d="M97.3063 57.8851C98.4606 57.8851 99.3963 56.947 99.3963 55.7899C99.3963 54.6327 98.4606 53.6947 97.3063 53.6947C96.152 53.6947 95.2163 54.6327 95.2163 55.7899C95.2163 56.947 96.152 57.8851 97.3063 57.8851Z" fill="#E6E6E6"/>
<path d="M2.08976 68.624C3.24404 68.624 4.17977 67.6859 4.17977 66.5288C4.17977 65.3716 3.24404 64.4336 2.08976 64.4336C0.935484 64.4336 -0.000244141 65.3716 -0.000244141 66.5288C-0.000244141 67.6859 0.935484 68.624 2.08976 68.624Z" fill="#E6E6E6"/>
<path d="M12.6696 68.624C13.8239 68.624 14.7596 67.6859 14.7596 66.5288C14.7596 65.3716 13.8239 64.4336 12.6696 64.4336C11.5153 64.4336 10.5796 65.3716 10.5796 66.5288C10.5796 67.6859 11.5153 68.624 12.6696 68.624Z" fill="#E6E6E6"/>
<path d="M23.2492 68.624C24.4035 68.624 25.3392 67.6859 25.3392 66.5288C25.3392 65.3716 24.4035 64.4336 23.2492 64.4336C22.0949 64.4336 21.1592 65.3716 21.1592 66.5288C21.1592 67.6859 22.0949 68.624 23.2492 68.624Z" fill="#4C63B6"/>
<path d="M33.8288 68.624C34.9831 68.624 35.9188 67.6859 35.9188 66.5288C35.9188 65.3716 34.9831 64.4336 33.8288 64.4336C32.6745 64.4336 31.7388 65.3716 31.7388 66.5288C31.7388 67.6859 32.6745 68.624 33.8288 68.624Z" fill="#E6E6E6"/>
<path d="M44.4084 68.624C45.5626 68.624 46.4984 67.6859 46.4984 66.5288C46.4984 65.3716 45.5626 64.4336 44.4084 64.4336C43.2541 64.4336 42.3184 65.3716 42.3184 66.5288C42.3184 67.6859 43.2541 68.624 44.4084 68.624Z" fill="#E6E6E6"/>
<path d="M54.9882 68.624C56.1425 68.624 57.0782 67.6859 57.0782 66.5288C57.0782 65.3716 56.1425 64.4336 54.9882 64.4336C53.8339 64.4336 52.8982 65.3716 52.8982 66.5288C52.8982 67.6859 53.8339 68.624 54.9882 68.624Z" fill="#E6E6E6"/>
<path d="M65.5675 68.624C66.7218 68.624 67.6576 67.6859 67.6576 66.5288C67.6576 65.3716 66.7218 64.4336 65.5675 64.4336C64.4133 64.4336 63.4775 65.3716 63.4775 66.5288C63.4775 67.6859 64.4133 68.624 65.5675 68.624Z" fill="#E6E6E6"/>
<path d="M76.1474 68.624C77.3017 68.624 78.2374 67.6859 78.2374 66.5288C78.2374 65.3716 77.3017 64.4336 76.1474 64.4336C74.9931 64.4336 74.0574 65.3716 74.0574 66.5288C74.0574 67.6859 74.9931 68.624 76.1474 68.624Z" fill="#E6E6E6"/>
<path d="M86.7267 68.624C87.881 68.624 88.8167 67.6859 88.8167 66.5288C88.8167 65.3716 87.881 64.4336 86.7267 64.4336C85.5725 64.4336 84.6367 65.3716 84.6367 66.5288C84.6367 67.6859 85.5725 68.624 86.7267 68.624Z" fill="#E6E6E6"/>
<path d="M97.3063 68.624C98.4606 68.624 99.3963 67.6859 99.3963 66.5288C99.3963 65.3716 98.4606 64.4336 97.3063 64.4336C96.152 64.4336 95.2163 65.3716 95.2163 66.5288C95.2163 67.6859 96.152 68.624 97.3063 68.624Z" fill="#E6E6E6"/>
<path d="M2.08976 79.363C3.24404 79.363 4.17977 78.4249 4.17977 77.2678C4.17977 76.1107 3.24404 75.1726 2.08976 75.1726C0.935484 75.1726 -0.000244141 76.1107 -0.000244141 77.2678C-0.000244141 78.4249 0.935484 79.363 2.08976 79.363Z" fill="#E6E6E6"/>
<path d="M12.6696 79.363C13.8239 79.363 14.7596 78.4249 14.7596 77.2678C14.7596 76.1107 13.8239 75.1726 12.6696 75.1726C11.5153 75.1726 10.5796 76.1107 10.5796 77.2678C10.5796 78.4249 11.5153 79.363 12.6696 79.363Z" fill="#E6E6E6"/>
<path d="M23.2492 79.363C24.4035 79.363 25.3392 78.4249 25.3392 77.2678C25.3392 76.1107 24.4035 75.1726 23.2492 75.1726C22.0949 75.1726 21.1592 76.1107 21.1592 77.2678C21.1592 78.4249 22.0949 79.363 23.2492 79.363Z" fill="#E6E6E6"/>
<path d="M33.8288 79.363C34.9831 79.363 35.9188 78.4249 35.9188 77.2678C35.9188 76.1107 34.9831 75.1726 33.8288 75.1726C32.6745 75.1726 31.7388 76.1107 31.7388 77.2678C31.7388 78.4249 32.6745 79.363 33.8288 79.363Z" fill="#E6E6E6"/>
<path d="M44.4084 79.363C45.5626 79.363 46.4984 78.4249 46.4984 77.2678C46.4984 76.1107 45.5626 75.1726 44.4084 75.1726C43.2541 75.1726 42.3184 76.1107 42.3184 77.2678C42.3184 78.4249 43.2541 79.363 44.4084 79.363Z" fill="#E6E6E6"/>
<path d="M54.9882 79.363C56.1425 79.363 57.0782 78.4249 57.0782 77.2678C57.0782 76.1107 56.1425 75.1726 54.9882 75.1726C53.8339 75.1726 52.8982 76.1107 52.8982 77.2678C52.8982 78.4249 53.8339 79.363 54.9882 79.363Z" fill="#E6E6E6"/>
<path d="M65.5675 79.363C66.7218 79.363 67.6576 78.4249 67.6576 77.2678C67.6576 76.1107 66.7218 75.1726 65.5675 75.1726C64.4133 75.1726 63.4775 76.1107 63.4775 77.2678C63.4775 78.4249 64.4133 79.363 65.5675 79.363Z" fill="#E6E6E6"/>
<path d="M76.1474 79.363C77.3017 79.363 78.2374 78.4249 78.2374 77.2678C78.2374 76.1107 77.3017 75.1726 76.1474 75.1726C74.9931 75.1726 74.0574 76.1107 74.0574 77.2678C74.0574 78.4249 74.9931 79.363 76.1474 79.363Z" fill="#E6E6E6"/>
<path d="M86.7267 79.363C87.881 79.363 88.8167 78.4249 88.8167 77.2678C88.8167 76.1107 87.881 75.1726 86.7267 75.1726C85.5725 75.1726 84.6367 76.1107 84.6367 77.2678C84.6367 78.4249 85.5725 79.363 86.7267 79.363Z" fill="#E6E6E6"/>
<path d="M97.3063 79.363C98.4606 79.363 99.3963 78.4249 99.3963 77.2678C99.3963 76.1107 98.4606 75.1726 97.3063 75.1726C96.152 75.1726 95.2163 76.1107 95.2163 77.2678C95.2163 78.4249 96.152 79.363 97.3063 79.363Z" fill="#E6E6E6"/>
<path d="M2.08976 90.1019C3.24404 90.1019 4.17977 89.1638 4.17977 88.0067C4.17977 86.8495 3.24404 85.9115 2.08976 85.9115C0.935484 85.9115 -0.000244141 86.8495 -0.000244141 88.0067C-0.000244141 89.1638 0.935484 90.1019 2.08976 90.1019Z" fill="#E6E6E6"/>
<path d="M12.6696 90.1019C13.8239 90.1019 14.7596 89.1638 14.7596 88.0067C14.7596 86.8495 13.8239 85.9115 12.6696 85.9115C11.5153 85.9115 10.5796 86.8495 10.5796 88.0067C10.5796 89.1638 11.5153 90.1019 12.6696 90.1019Z" fill="#E6E6E6"/>
<path d="M23.2492 90.1019C24.4035 90.1019 25.3392 89.1638 25.3392 88.0067C25.3392 86.8495 24.4035 85.9115 23.2492 85.9115C22.0949 85.9115 21.1592 86.8495 21.1592 88.0067C21.1592 89.1638 22.0949 90.1019 23.2492 90.1019Z" fill="#E6E6E6"/>
<path d="M33.8288 90.1019C34.9831 90.1019 35.9188 89.1638 35.9188 88.0067C35.9188 86.8495 34.9831 85.9115 33.8288 85.9115C32.6745 85.9115 31.7388 86.8495 31.7388 88.0067C31.7388 89.1638 32.6745 90.1019 33.8288 90.1019Z" fill="#E6E6E6"/>
<path d="M44.4084 90.1019C45.5626 90.1019 46.4984 89.1638 46.4984 88.0067C46.4984 86.8495 45.5626 85.9115 44.4084 85.9115C43.2541 85.9115 42.3184 86.8495 42.3184 88.0067C42.3184 89.1638 43.2541 90.1019 44.4084 90.1019Z" fill="#E6E6E6"/>
<path d="M54.9882 90.1019C56.1425 90.1019 57.0782 89.1638 57.0782 88.0067C57.0782 86.8495 56.1425 85.9115 54.9882 85.9115C53.8339 85.9115 52.8982 86.8495 52.8982 88.0067C52.8982 89.1638 53.8339 90.1019 54.9882 90.1019Z" fill="#E6E6E6"/>
<path d="M65.5675 90.1019C66.7218 90.1019 67.6576 89.1638 67.6576 88.0067C67.6576 86.8495 66.7218 85.9115 65.5675 85.9115C64.4133 85.9115 63.4775 86.8495 63.4775 88.0067C63.4775 89.1638 64.4133 90.1019 65.5675 90.1019Z" fill="#E6E6E6"/>
<path d="M76.1474 90.1019C77.3017 90.1019 78.2374 89.1638 78.2374 88.0067C78.2374 86.8495 77.3017 85.9115 76.1474 85.9115C74.9931 85.9115 74.0574 86.8495 74.0574 88.0067C74.0574 89.1638 74.9931 90.1019 76.1474 90.1019Z" fill="#E6E6E6"/>
<path d="M86.7267 90.1019C87.881 90.1019 88.8167 89.1638 88.8167 88.0067C88.8167 86.8495 87.881 85.9115 86.7267 85.9115C85.5725 85.9115 84.6367 86.8495 84.6367 88.0067C84.6367 89.1638 85.5725 90.1019 86.7267 90.1019Z" fill="#E6E6E6"/>
<path d="M97.3063 90.1019C98.4606 90.1019 99.3963 89.1638 99.3963 88.0067C99.3963 86.8495 98.4606 85.9115 97.3063 85.9115C96.152 85.9115 95.2163 86.8495 95.2163 88.0067C95.2163 89.1638 96.152 90.1019 97.3063 90.1019Z" fill="#E6E6E6"/>
<path d="M2.08976 100.841C3.24404 100.841 4.17977 99.9027 4.17977 98.7456C4.17977 97.5884 3.24404 96.6504 2.08976 96.6504C0.935484 96.6504 -0.000244141 97.5884 -0.000244141 98.7456C-0.000244141 99.9027 0.935484 100.841 2.08976 100.841Z" fill="#E6E6E6"/>
<path d="M12.6696 100.841C13.8239 100.841 14.7596 99.9027 14.7596 98.7456C14.7596 97.5884 13.8239 96.6504 12.6696 96.6504C11.5153 96.6504 10.5796 97.5884 10.5796 98.7456C10.5796 99.9027 11.5153 100.841 12.6696 100.841Z" fill="#E6E6E6"/>
<path d="M23.2492 100.841C24.4035 100.841 25.3392 99.9027 25.3392 98.7456C25.3392 97.5884 24.4035 96.6504 23.2492 96.6504C22.0949 96.6504 21.1592 97.5884 21.1592 98.7456C21.1592 99.9027 22.0949 100.841 23.2492 100.841Z" fill="#E6E6E6"/>
<path d="M33.8288 100.841C34.9831 100.841 35.9188 99.9027 35.9188 98.7456C35.9188 97.5884 34.9831 96.6504 33.8288 96.6504C32.6745 96.6504 31.7388 97.5884 31.7388 98.7456C31.7388 99.9027 32.6745 100.841 33.8288 100.841Z" fill="#E6E6E6"/>
<path d="M44.4084 100.841C45.5626 100.841 46.4984 99.9027 46.4984 98.7456C46.4984 97.5884 45.5626 96.6504 44.4084 96.6504C43.2541 96.6504 42.3184 97.5884 42.3184 98.7456C42.3184 99.9027 43.2541 100.841 44.4084 100.841Z" fill="#E6E6E6"/>
<path d="M54.9882 100.841C56.1425 100.841 57.0782 99.9027 57.0782 98.7456C57.0782 97.5884 56.1425 96.6504 54.9882 96.6504C53.8339 96.6504 52.8982 97.5884 52.8982 98.7456C52.8982 99.9027 53.8339 100.841 54.9882 100.841Z" fill="#E6E6E6"/>
<path d="M65.5675 100.841C66.7218 100.841 67.6576 99.9027 67.6576 98.7456C67.6576 97.5884 66.7218 96.6504 65.5675 96.6504C64.4133 96.6504 63.4775 97.5884 63.4775 98.7456C63.4775 99.9027 64.4133 100.841 65.5675 100.841Z" fill="#E6E6E6"/>
<path d="M76.1474 100.841C77.3017 100.841 78.2374 99.9027 78.2374 98.7456C78.2374 97.5884 77.3017 96.6504 76.1474 96.6504C74.9931 96.6504 74.0574 97.5884 74.0574 98.7456C74.0574 99.9027 74.9931 100.841 76.1474 100.841Z" fill="#E6E6E6"/>
<path d="M86.7267 100.841C87.881 100.841 88.8167 99.9027 88.8167 98.7456C88.8167 97.5884 87.881 96.6504 86.7267 96.6504C85.5725 96.6504 84.6367 97.5884 84.6367 98.7456C84.6367 99.9027 85.5725 100.841 86.7267 100.841Z" fill="#E6E6E6"/>
<path d="M97.3063 100.841C98.4606 100.841 99.3963 99.9027 99.3963 98.7456C99.3963 97.5884 98.4606 96.6504 97.3063 96.6504C96.152 96.6504 95.2163 97.5884 95.2163 98.7456C95.2163 99.9027 96.152 100.841 97.3063 100.841Z" fill="#E6E6E6"/>
<path d="M122.825 18.725C123.526 18.725 124.198 19.0041 124.694 19.5008C125.189 19.9976 125.468 20.6714 125.468 21.3739V127.33C125.468 127.678 125.399 128.022 125.267 128.344C125.134 128.665 124.939 128.957 124.694 129.203C124.448 129.449 124.157 129.644 123.836 129.777C123.516 129.91 123.172 129.979 122.825 129.979H46.9895C46.6425 129.979 46.2989 129.91 45.9783 129.777C45.6578 129.644 45.3665 129.449 45.1211 129.203C44.8757 128.957 44.6811 128.665 44.5483 128.344C44.4155 128.022 44.3472 127.678 44.3472 127.33V21.3739C44.3472 20.6713 44.6256 19.9976 45.1211 19.5008C45.6166 19.0041 46.2887 18.725 46.9895 18.725H122.825" fill="#E6E6E6"/>
<path d="M47.2971 127.021H122.518V21.6823H47.2971V127.021Z" fill="white"/>
<path d="M105.782 38.348C105.852 38.348 105.92 38.3617 105.984 38.3883C106.049 38.415 106.107 38.454 106.156 38.5032C106.205 38.5524 106.244 38.6108 106.27 38.6751C106.297 38.7393 106.311 38.8082 106.311 38.8778V39.9374C106.311 40.0779 106.255 40.2126 106.156 40.312C106.057 40.4113 105.922 40.4671 105.782 40.4671H64.0329C63.9635 40.4671 63.8947 40.4534 63.8306 40.4268C63.7665 40.4002 63.7083 40.3612 63.6592 40.312C63.6101 40.2628 63.5712 40.2044 63.5446 40.1401C63.5181 40.0758 63.5044 40.0069 63.5044 39.9374V38.8778C63.5044 38.8082 63.5181 38.7393 63.5446 38.6751C63.5712 38.6108 63.6101 38.5524 63.6592 38.5032C63.7083 38.454 63.7665 38.415 63.8306 38.3883C63.8947 38.3617 63.9635 38.348 64.0329 38.348H105.782" fill="#E6E6E6"/>
<path d="M105.782 43.3809C105.922 43.3809 106.057 43.4367 106.156 43.536C106.255 43.6354 106.311 43.7701 106.311 43.9106V44.9702C106.311 45.1107 106.255 45.2455 106.156 45.3448C106.057 45.4442 105.922 45.5 105.782 45.5H64.0329C63.9635 45.5 63.8947 45.4863 63.8306 45.4597C63.7665 45.433 63.7083 45.394 63.6592 45.3448C63.6101 45.2956 63.5712 45.2372 63.5446 45.1729C63.5181 45.1087 63.5044 45.0398 63.5044 44.9702V43.9106C63.5044 43.8411 63.5181 43.7722 63.5446 43.7079C63.5712 43.6436 63.6101 43.5852 63.6592 43.536C63.7083 43.4868 63.7665 43.4478 63.8306 43.4212C63.8947 43.3946 63.9635 43.3809 64.0329 43.3809H105.782" fill="#E6E6E6"/>
<path d="M105.782 48.4138C105.922 48.4138 106.057 48.4696 106.156 48.569C106.255 48.6683 106.311 48.8031 106.311 48.9436V50.0032C106.311 50.1437 106.255 50.2784 106.156 50.3778C106.057 50.4771 105.922 50.5329 105.782 50.5329H64.0329C63.8927 50.5329 63.7583 50.4771 63.6592 50.3778C63.5601 50.2784 63.5044 50.1437 63.5044 50.0032V48.9436C63.5044 48.8031 63.5601 48.6683 63.6592 48.569C63.7583 48.4696 63.8927 48.4138 64.0329 48.4138H105.782" fill="#4C63B6"/>
<path d="M105.782 53.5569C105.922 53.5569 106.057 53.6127 106.156 53.712C106.255 53.8114 106.311 53.9462 106.311 54.0867V55.1462C106.311 55.2867 106.255 55.4215 106.156 55.5208C106.057 55.6202 105.922 55.676 105.782 55.676H64.0329C63.9635 55.676 63.8947 55.6623 63.8306 55.6357C63.7665 55.6091 63.7083 55.57 63.6592 55.5208C63.6101 55.4716 63.5712 55.4132 63.5446 55.349C63.5181 55.2847 63.5044 55.2158 63.5044 55.1462V54.0867C63.5044 54.0171 63.5181 53.9482 63.5446 53.8839C63.5712 53.8197 63.6101 53.7612 63.6592 53.712C63.7083 53.6629 63.7665 53.6238 63.8306 53.5972C63.8947 53.5706 63.9635 53.5569 64.0329 53.5569H105.782" fill="#E6E6E6"/>
<path d="M105.782 58.5897C105.922 58.5897 106.057 58.6455 106.156 58.7449C106.255 58.8442 106.311 58.979 106.311 59.1195V60.1791C106.311 60.2486 106.297 60.3175 106.27 60.3818C106.244 60.4461 106.205 60.5045 106.156 60.5537C106.107 60.6029 106.049 60.6419 105.984 60.6685C105.92 60.6951 105.852 60.7088 105.782 60.7088H64.0329C63.9635 60.7088 63.8947 60.6951 63.8306 60.6685C63.7665 60.6419 63.7083 60.6029 63.6592 60.5537C63.6101 60.5045 63.5712 60.4461 63.5446 60.3818C63.5181 60.3175 63.5044 60.2486 63.5044 60.1791V59.1195C63.5044 59.0499 63.5181 58.981 63.5446 58.9168C63.5712 58.8525 63.6101 58.7941 63.6592 58.7449C63.7083 58.6957 63.7665 58.6567 63.8306 58.6301C63.8947 58.6034 63.9635 58.5897 64.0329 58.5897H105.782" fill="#E6E6E6"/>
<path d="M105.782 63.6227C105.922 63.6227 106.057 63.6785 106.156 63.7779C106.255 63.8772 106.311 64.012 106.311 64.1525V65.212C106.311 65.3525 106.255 65.4873 106.156 65.5866C106.057 65.686 105.922 65.7418 105.782 65.7418H64.0329C63.8927 65.7418 63.7583 65.686 63.6592 65.5866C63.5601 65.4873 63.5044 65.3525 63.5044 65.212V64.1525C63.5044 64.012 63.5601 63.8772 63.6592 63.7779C63.7583 63.6785 63.8927 63.6227 64.0329 63.6227H105.782" fill="#E6E6E6"/>
<path d="M64.2993 80.5531C64.1366 80.5533 63.9807 80.6181 63.8657 80.7334C63.7506 80.8487 63.686 81.0051 63.6858 81.1681V109.741C63.686 109.904 63.7507 110.06 63.8657 110.175C63.9807 110.291 64.1366 110.356 64.2993 110.356H105.444C105.607 110.356 105.763 110.291 105.878 110.175C105.993 110.06 106.058 109.904 106.058 109.741V81.1681C106.058 81.0051 105.993 80.8487 105.878 80.7334C105.763 80.6181 105.607 80.5533 105.444 80.5531H64.2993Z" fill="#4C63B6"/>
<path d="M85.0445 49.5654L84.6125 49.4503L94.0381 13.906H148.709V14.3541H94.3814L85.0445 49.5654Z" fill="#3F3D56"/>
<path d="M153.176 18.8321C152.249 18.8321 151.342 18.5563 150.57 18.0397C149.799 17.523 149.198 16.7886 148.843 15.9294C148.488 15.0702 148.395 14.1248 148.576 13.2127C148.757 12.3005 149.204 11.4627 149.86 10.8051C150.516 10.1475 151.351 9.69964 152.261 9.51821C153.171 9.33678 154.114 9.4299 154.971 9.78579C155.828 10.1417 156.561 10.7444 157.076 11.5176C157.592 12.2909 157.867 13.2 157.867 14.13C157.865 15.3766 157.371 16.5718 156.491 17.4533C155.612 18.3348 154.42 18.8307 153.176 18.8321ZM153.176 9.87568C152.337 9.87568 151.517 10.1252 150.819 10.5927C150.121 11.0601 149.577 11.7246 149.256 12.5019C148.934 13.2793 148.85 14.1347 149.014 14.96C149.178 15.7852 149.582 16.5433 150.176 17.1382C150.769 17.7332 151.525 18.1384 152.348 18.3026C153.172 18.4667 154.025 18.3825 154.8 18.0605C155.576 17.7385 156.239 17.1932 156.705 16.4936C157.171 15.7939 157.42 14.9714 157.42 14.13C157.419 13.0021 156.971 11.9207 156.176 11.1232C155.38 10.3256 154.301 9.87696 153.176 9.87568Z" fill="#3F3D56"/>
<path d="M153.176 15.9213C154.163 15.9213 154.963 15.1193 154.963 14.13C154.963 13.1407 154.163 12.3387 153.176 12.3387C152.189 12.3387 151.389 13.1407 151.389 14.13C151.389 15.1193 152.189 15.9213 153.176 15.9213Z" fill="#CF1124"/>
<path d="M83.5832 109.764L84.0148 109.879L74.5218 145.405L19.8508 145.3L19.8517 144.852L74.1791 144.957L83.5832 109.764Z" fill="#3F3D56"/>
<path d="M16 153C20.4183 153 24 149.418 24 145C24 140.582 20.4183 137 16 137C11.5817 137 8 140.582 8 145C8 149.418 11.5817 153 16 153Z" fill="#CF1124"/>
<path d="M16.0096 140C16.9985 140.002 17.9646 140.297 18.7858 140.848C19.607 141.399 20.2464 142.181 20.6231 143.095C20.9997 144.01 21.0968 145.015 20.902 145.985C20.7073 146.954 20.2294 147.844 19.5288 148.542C18.8282 149.24 17.9363 149.715 16.9661 149.906C15.9958 150.097 14.9906 149.996 14.0777 149.616C13.1648 149.236 12.3852 148.593 11.8373 147.77C11.2895 146.947 10.9981 145.979 11 144.99C11.0041 143.665 11.5338 142.395 12.4729 141.459C13.4121 140.524 14.684 139.999 16.0096 140ZM15.9913 149.524C16.8861 149.526 17.7612 149.262 18.5061 148.766C19.251 148.271 19.8321 147.565 20.1761 146.739C20.5201 145.913 20.6114 145.004 20.4386 144.126C20.2657 143.248 19.8364 142.441 19.2049 141.807C18.5735 141.173 17.7682 140.741 16.891 140.565C16.0139 140.389 15.1041 140.476 14.2768 140.817C13.4495 141.158 12.7419 141.737 12.2434 142.479C11.7449 143.222 11.4779 144.097 11.4762 144.991C11.4753 146.191 11.9501 147.341 12.7966 148.191C13.643 149.041 14.792 149.52 15.9913 149.524Z" fill="white"/>
</svg>
