<svg width="259" height="138" viewBox="0 0 259 138" fill="none" xmlns="http://www.w3.org/2000/svg">
<mask id="mask0" style="mask-type:alpha" maskUnits="userSpaceOnUse" x="7" y="15" width="244" height="120">
<path d="M7 35C7 23.9543 15.9543 15 27 15H231C242.046 15 251 23.9543 251 35V115C251 126.046 242.046 135 231 135H27C15.9543 135 7 126.046 7 115V35Z" fill="#E4E7EB"/>
</mask>
<g mask="url(#mask0)">
</g>
<path d="M239.142 109.125C238.854 109.748 238.566 110.362 238.279 110.968C237.831 111.909 237.39 112.832 236.953 113.737C236.759 114.138 236.565 114.531 236.376 114.925C234.237 119.3 232.24 123.17 230.544 126.352C229.005 129.236 226.719 131.652 223.927 133.348C221.135 135.043 217.938 135.956 214.673 135.989L176.954 136.4H176.556L173.323 136.435L170.557 136.465L162.075 136.557H161.732L157.414 136.604H157.283L130.669 136.893L106.914 137.142L104.15 137.172L86.9885 137.359H86.9687L75.8383 137.479H75.7189L40.5247 137.86L29.9962 137.974C27.7494 137.999 25.5121 137.679 23.3628 137.023C19.6225 135.892 16.2611 133.761 13.6402 130.86C9.11843 125.872 5.82285 120.052 3.60922 113.737C3.2892 112.825 2.99073 111.902 2.71382 110.968C-4.94933 85.0322 4.3927 51.5712 21.2064 29.1792C21.9111 28.2429 22.6274 27.3298 23.3553 26.44L23.3727 26.4201C28.5437 20.0651 34.3414 14.7559 40.5172 10.9808C51.461 4.27962 63.5862 2.39204 75.5125 8.01743C85.6032 12.7787 95.0248 15.0174 104.158 15.625C105.081 15.6848 106.003 15.7296 106.921 15.757C127.871 16.4169 147.505 8.85912 170.562 3.98079C171.48 3.78656 172.4 3.59481 173.328 3.41303C189.776 0.13591 208.022 -1.5923 229.721 2.04092C231.975 2.40964 234.199 2.94229 236.376 3.63466C237.333 3.94344 238.255 4.27547 239.142 4.63074C249.499 8.84916 255.148 16.6435 257.548 26.4101C257.775 27.3166 257.971 28.2388 258.137 29.1767C262.393 52.6694 249.929 85.9934 239.142 109.125Z" fill="#E9EEF2"/>
<path d="M214.673 132.89V136.127L176.887 136.476L176.484 136.483L162.123 136.615L161.779 136.62L157.414 136.658H157.285L130.677 136.904L86.9984 137.31H86.9611L75.8556 137.415L75.7362 137.417L26.3896 137.871V134.135L37.9926 127.163L61.273 126.968L61.7705 126.966L61.9346 126.963L62.4321 126.956L73.6097 126.864L74.1096 126.861L74.2688 126.859L74.7662 126.856L78.3503 126.826L78.4448 126.824L87.2869 126.749H87.3591L156.355 126.167L158.044 126.154H158.213L159.501 126.142L168.866 126.064L169.363 126.057L169.823 126.052H170.062L172.974 126.03L173.551 126.022L174.325 126.017L176.75 125.995L180.598 125.962L181.095 125.957L181.961 125.952H182.122L200.705 125.793L214.673 132.89Z" fill="#61767D"/>
<path opacity="0.2" d="M214.673 132.89V136.127L176.887 136.476L176.484 136.483L162.123 136.615L161.779 136.62L157.414 136.658H157.285L130.677 136.904L86.9984 137.31H86.9611L75.8556 137.415L75.7362 137.417L26.3896 137.871V134.135L37.9926 127.163L61.273 126.968L61.7705 126.966L61.9346 126.963L62.4321 126.956L73.6097 126.864L74.1096 126.861L74.2688 126.859L74.7662 126.856L78.3503 126.826L78.4448 126.824L87.2869 126.749H87.3591L156.355 126.167L158.044 126.154H158.213L159.501 126.142L168.866 126.064L169.363 126.057L169.823 126.052H170.062L172.974 126.03L173.551 126.022L174.325 126.017L176.75 125.995L180.598 125.962L181.095 125.957L181.961 125.952H182.122L200.705 125.793L214.673 132.89Z" fill="black"/>
<path d="M145.217 77.7842V119.67C145.214 119.925 145.113 120.17 144.935 120.353C144.756 120.536 144.515 120.644 144.259 120.653L96.5916 121.923C96.3298 121.923 96.0787 121.82 95.8924 121.636C95.7062 121.452 95.6 121.202 95.5967 120.94V77.7842C95.5999 77.5243 95.7044 77.276 95.888 77.0922C96.0716 76.9084 96.3196 76.8038 96.5791 76.8005H144.234C144.494 76.8038 144.742 76.9084 144.926 77.0922C145.109 77.276 145.214 77.5243 145.217 77.7842Z" fill="#697DC6"/>
<path d="M98.7676 79.4751H142.916V116.392L98.7676 117.389V79.4751Z" fill="#D4DFEC"/>
<path opacity="0.1" d="M214.673 132.89V136.127L176.887 136.476L176.484 136.483L162.123 136.615L161.779 136.62L157.414 136.658H157.285L130.677 136.904L86.9984 137.31H86.9611L75.8556 137.415L75.7362 137.417L26.3896 137.871V134.135L76.7585 133.804H76.8779L87.073 133.734H87.1203L157.529 133.269H157.601L157.643 133.266H157.76L158.951 133.259H159.315L177.842 133.134L178.936 133.129L179.18 133.127L214.673 132.89Z" fill="black"/>
<path d="M121.193 80.5559C128.244 80.5559 133.96 74.833 133.96 67.7736C133.96 60.7141 128.244 54.9913 121.193 54.9913C114.142 54.9913 108.426 60.7141 108.426 67.7736C108.426 74.833 114.142 80.5559 121.193 80.5559Z" fill="#FBBEBE"/>
<path d="M100.008 84.108H100.442C100.489 84.108 100.527 84.1193 100.556 84.142C100.585 84.1647 100.607 84.194 100.622 84.23L101.302 85.994C101.325 86.0513 101.346 86.1147 101.366 86.184C101.387 86.252 101.407 86.324 101.426 86.4C101.457 86.2467 101.495 86.1113 101.54 85.994L102.218 84.23C102.23 84.1993 102.251 84.1713 102.282 84.146C102.313 84.1207 102.351 84.108 102.396 84.108H102.83L101.662 87H101.176L100.008 84.108ZM105.836 84.108V84.536H104.554V85.338H105.564V85.752H104.554V86.57H105.836V87H104.012V84.108H105.836ZM107.737 85.87V87H107.199V84.108H108.081C108.278 84.108 108.447 84.1287 108.587 84.17C108.728 84.21 108.844 84.2667 108.933 84.34C109.024 84.4133 109.09 84.5013 109.131 84.604C109.174 84.7053 109.195 84.8173 109.195 84.94C109.195 85.0373 109.18 85.1293 109.151 85.216C109.123 85.3027 109.082 85.3813 109.027 85.452C108.974 85.5227 108.907 85.5847 108.827 85.638C108.748 85.6913 108.658 85.734 108.557 85.766C108.625 85.8047 108.684 85.86 108.733 85.932L109.457 87H108.973C108.926 87 108.886 86.9907 108.853 86.972C108.821 86.9533 108.794 86.9267 108.771 86.892L108.163 85.966C108.14 85.9313 108.115 85.9067 108.087 85.892C108.06 85.8773 108.02 85.87 107.967 85.87H107.737ZM107.737 85.484H108.073C108.174 85.484 108.262 85.4713 108.337 85.446C108.413 85.4207 108.475 85.386 108.523 85.342C108.572 85.2967 108.609 85.2433 108.633 85.182C108.657 85.1207 108.669 85.0533 108.669 84.98C108.669 84.8333 108.62 84.7207 108.523 84.642C108.427 84.5633 108.28 84.524 108.081 84.524H107.737V85.484ZM113.358 85.554C113.358 85.766 113.323 85.9627 113.252 86.144C113.182 86.324 113.082 86.48 112.954 86.612C112.826 86.744 112.672 86.8473 112.492 86.922C112.312 86.9953 112.113 87.032 111.894 87.032C111.676 87.032 111.476 86.9953 111.294 86.922C111.114 86.8473 110.96 86.744 110.83 86.612C110.702 86.48 110.603 86.324 110.532 86.144C110.462 85.9627 110.426 85.766 110.426 85.554C110.426 85.342 110.462 85.146 110.532 84.966C110.603 84.7847 110.702 84.628 110.83 84.496C110.96 84.364 111.114 84.2613 111.294 84.188C111.476 84.1133 111.676 84.076 111.894 84.076C112.113 84.076 112.312 84.1133 112.492 84.188C112.672 84.2627 112.826 84.366 112.954 84.498C113.082 84.6287 113.182 84.7847 113.252 84.966C113.323 85.146 113.358 85.342 113.358 85.554ZM112.806 85.554C112.806 85.3953 112.785 85.2533 112.742 85.128C112.701 85.0013 112.641 84.894 112.562 84.806C112.484 84.718 112.388 84.6507 112.274 84.604C112.162 84.5573 112.036 84.534 111.894 84.534C111.753 84.534 111.626 84.5573 111.512 84.604C111.399 84.6507 111.302 84.718 111.222 84.806C111.144 84.894 111.083 85.0013 111.04 85.128C110.998 85.2533 110.976 85.3953 110.976 85.554C110.976 85.7127 110.998 85.8553 111.04 85.982C111.083 86.1073 111.144 86.214 111.222 86.302C111.302 86.3887 111.399 86.4553 111.512 86.502C111.626 86.5487 111.753 86.572 111.894 86.572C112.036 86.572 112.162 86.5487 112.274 86.502C112.388 86.4553 112.484 86.3887 112.562 86.302C112.641 86.214 112.701 86.1073 112.742 85.982C112.785 85.8553 112.806 85.7127 112.806 85.554ZM114.946 84.108C114.97 84.108 114.99 84.1093 115.006 84.112C115.022 84.1133 115.036 84.1173 115.048 84.124C115.061 84.1293 115.074 84.138 115.086 84.15C115.098 84.1607 115.111 84.1753 115.126 84.194L116.644 86.128C116.638 86.0813 116.634 86.036 116.632 85.992C116.63 85.9467 116.63 85.9047 116.63 85.866V84.108H117.104V87H116.826C116.783 87 116.748 86.9933 116.72 86.98C116.692 86.9667 116.664 86.9427 116.638 86.908L115.126 84.982C115.13 85.0247 115.132 85.0673 115.134 85.11C115.136 85.1513 115.138 85.1893 115.138 85.224V87H114.664V84.108H114.946ZM121.109 87H120.693C120.646 87 120.608 86.9887 120.577 86.966C120.548 86.942 120.526 86.9127 120.513 86.878L120.297 86.288H119.099L118.883 86.878C118.872 86.9087 118.851 86.9367 118.819 86.962C118.788 86.9873 118.75 87 118.705 87H118.287L119.423 84.108H119.973L121.109 87ZM119.237 85.908H120.159L119.807 84.946C119.791 84.9033 119.773 84.8533 119.753 84.796C119.734 84.7373 119.716 84.674 119.697 84.606C119.678 84.674 119.66 84.7373 119.641 84.796C119.624 84.8547 119.606 84.906 119.589 84.95L119.237 85.908Z" fill="#3E4C59"/>
<path d="M133.962 93.9208C133.962 93.9208 109.214 96.9091 111.577 93.9208C112.433 92.8401 112.669 89.6376 112.622 85.9895C112.607 84.8813 112.567 83.7334 112.51 82.5904C112.236 77.1119 111.577 71.7579 111.577 71.7579C111.577 71.7579 133.216 61.5481 130.729 69.6413C129.734 72.9109 130.06 77.5029 130.816 81.8134C131.037 83.071 131.293 84.3036 131.562 85.474C132.217 88.3288 133.019 91.1481 133.962 93.9208Z" fill="#FBBEBE"/>
<path opacity="0.1" d="M133.962 93.9208C133.962 93.9208 109.214 96.9091 111.577 93.9208C112.433 92.8401 112.669 89.6376 112.622 85.9895C116.395 84.3758 121.195 85.5786 121.195 85.5786C126.249 84.5701 129.49 84.7668 131.562 85.474C132.217 88.3288 133.019 91.1481 133.962 93.9208Z" fill="black"/>
<path d="M86.9885 137.592V137.382L130.669 136.907L157.283 136.658H157.357L157.33 137.026L157.367 136.658H157.414V136.616L157.755 133.266L157.884 131.999L157.924 131.603L157.959 131.272L159.496 126.139L161.033 121.014L162.327 116.699L164.301 110.105C164.301 110.105 163.182 107.49 162.56 106.743C161.939 105.996 161.317 100.891 161.317 100.891C161.317 100.891 156.009 95.8283 153.688 95.2456C152.716 94.9966 150.796 94.6654 148.756 94.2496C147.993 94.0952 147.209 93.9308 146.456 93.7515C146.03 93.6544 145.612 93.5523 145.212 93.4502C144.433 93.2553 143.665 93.0175 142.911 92.738C142.516 92.5943 142.141 92.4028 141.792 92.1677C139.964 90.8255 135.382 90.6736 135.206 90.6736C135.205 90.6678 135.205 90.662 135.206 90.6562V90.6338C135.212 90.5293 135.212 90.4245 135.206 90.32C135.206 90.2204 135.206 90.1034 135.183 89.9714C135.183 89.9315 135.184 89.8892 135.166 89.8469C135.154 89.7572 135.139 89.6626 135.116 89.563C135.109 89.5185 135.099 89.4744 135.087 89.431C135.014 89.1309 134.91 88.8395 134.776 88.5619C134.758 88.5221 134.736 88.4797 134.716 88.4399C134.594 88.2099 134.453 87.9907 134.293 87.785C134.261 87.7426 134.226 87.6978 134.189 87.6555C133.985 87.4149 133.758 87.1948 133.512 86.9981C133.445 86.9458 133.375 86.891 133.303 86.8412C133.263 86.8085 133.221 86.7786 133.176 86.7515L132.955 86.6071L132.749 86.4876C132.567 86.3879 132.375 86.2908 132.166 86.1987C132.102 86.1688 132.032 86.1414 131.963 86.114C131.893 86.0866 131.783 86.0443 131.691 86.0094H131.677L131.49 85.9347C131.348 85.8874 131.204 85.8451 131.052 85.8027L130.821 85.743L130.572 85.6857L130.323 85.6334C130.075 85.5836 129.809 85.5388 129.53 85.5039L129.246 85.4691L128.955 85.4392L128.655 85.4143L128.227 85.3894L127.729 85.3719C125.535 85.3717 123.348 85.6046 121.203 86.0667C119.713 85.7348 118.187 85.5942 116.661 85.6484H116.445L116.196 85.6633H116.037L115.716 85.6932C115.609 85.6932 115.5 85.7156 115.393 85.7305C115.286 85.7455 115.174 85.7579 115.067 85.7754L114.903 85.8027C114.741 85.8301 114.577 85.86 114.405 85.8949C114.35 85.9049 114.296 85.9173 114.241 85.9322C114.025 85.9796 113.808 86.0368 113.594 86.1016C113.487 86.1315 113.38 86.1663 113.274 86.2037C113.219 86.2186 113.167 86.2385 113.114 86.2585L112.955 86.3157L112.798 86.378L112.612 86.4527C112.517 86.4925 112.425 86.5349 112.333 86.5797C112.281 86.6021 112.229 86.627 112.179 86.6544C112.129 86.6818 112.077 86.7042 112.03 86.7316C111.468 87.0225 110.948 87.3896 110.485 87.8223L110.358 87.9443L110.234 88.0713C110.192 88.1137 110.152 88.1585 110.112 88.2033C109.95 88.3807 109.799 88.5678 109.66 88.7636C109.62 88.8159 109.582 88.8682 109.545 88.923C109.387 89.1561 109.244 89.3989 109.117 89.6501C109.085 89.7099 109.055 89.7722 109.025 89.8319C108.822 90.2526 108.656 90.69 108.528 91.1393C108.481 91.3053 108.439 91.4713 108.401 91.6373C108.401 91.6373 103.136 93.9632 98.768 95.6466C97.6065 96.0948 96.5121 96.5007 95.5968 96.807C95.3307 96.8966 95.0819 96.9788 94.8506 97.056C94.3487 97.2376 93.8268 97.358 93.2961 97.4146C93.046 97.4187 92.7965 97.442 92.5499 97.4843C90.5427 97.8106 87.1029 99.2275 86.7273 100.649C86.6968 100.763 86.6884 100.881 86.7025 100.998C86.7025 100.998 86.7025 101.015 86.7025 101.025C86.9512 102.769 85.2101 102.52 85.2101 102.52C85.2101 102.52 84.5883 107.126 83.7178 108.372C83.0885 109.268 82.6582 111.268 82.6035 112.777C82.5722 113.247 82.6091 113.719 82.713 114.179C82.713 114.191 82.713 114.204 82.713 114.214C82.8124 114.547 82.5737 115.459 82.1683 116.627C81.728 117.909 81.0863 119.503 80.4695 121.007C79.5392 123.278 78.6637 125.34 78.609 125.793C78.5866 125.995 78.522 126.356 78.4324 126.821C78.0693 128.719 77.2634 132.332 76.8655 133.794C76.5695 134.885 76.1392 136.379 75.8432 137.405C75.8432 137.435 75.8258 137.465 75.8184 137.492L86.9686 137.382V137.592H87.0034H86.9885Z" fill="#3E4C59"/>
<path opacity="0.1" d="M91.0576 108.24C91.0576 108.24 105.235 115.586 110.334 114.714L91.0576 108.24Z" fill="black"/>
<path opacity="0.1" d="M119.909 105.251C119.909 105.251 133.713 109.734 138.315 110.356C142.916 110.979 119.909 105.251 119.909 105.251Z" fill="black"/>
<path opacity="0.1" d="M135.221 90.8279C128.008 92.1577 114.427 91.8713 108.558 91.6696C110.709 83.9499 121.2 86.5746 121.2 86.5746C134.186 83.9798 135.181 89.3637 135.221 90.8279Z" fill="black"/>
<path d="M135.221 90.3299C128.008 91.6596 114.427 91.3733 108.558 91.1715C110.709 83.4519 121.2 86.0766 121.2 86.0766C134.186 83.4818 135.181 88.8656 135.221 90.3299Z" fill="#3E4C59"/>
<path d="M173.509 124.364C173.509 124.364 182.005 123.056 182.172 126.792C182.338 130.527 177.839 133.137 177.839 133.137L173.509 124.364Z" fill="#FBBEBE"/>
<path opacity="0.1" d="M130.816 81.8134C130.45 81.9769 130.077 82.1216 129.696 82.2467C127.015 83.1731 124.312 84.1069 121.489 84.4456C118.666 84.7842 115.703 84.4854 113.241 83.0759C112.982 82.9297 112.733 82.7676 112.495 82.5904C112.221 77.1119 111.562 71.7579 111.562 71.7579C111.562 71.7579 133.201 61.5481 130.714 69.6413C129.724 72.9109 130.06 77.5029 130.816 81.8134Z" fill="black"/>
<path d="M117.691 47.7946C117.336 47.8885 116.964 47.898 116.604 47.8223C116.245 47.7466 115.908 47.5879 115.621 47.3588L116.139 48.0785C115.834 48.1137 115.525 48.0818 115.234 47.985C114.942 47.8883 114.676 47.7289 114.452 47.5182C114.405 48.1624 114.432 48.8099 114.532 49.4481C113.676 49.4894 112.833 49.2246 112.154 48.701C112.141 48.9257 112.197 49.149 112.314 49.3409C112.431 49.5328 112.605 49.6841 112.811 49.7743C111.951 49.6715 111.083 49.8854 110.369 50.3761C109.655 50.8669 109.144 51.6009 108.931 52.4413L110.229 52.5609C109.209 52.7791 108.293 53.3385 107.632 54.1471C107.234 54.6452 106.931 55.2827 107.105 55.8903C107.279 56.4979 108.12 56.8864 108.577 56.4531C107.926 57.231 107.453 58.1421 107.191 59.1225C106.929 60.1028 106.884 61.1288 107.06 62.1283C107.178 62.5542 107.217 62.9982 107.175 63.4381C107.093 63.849 106.834 64.2051 106.705 64.606C106.456 65.3332 106.692 66.1226 106.913 66.8472L108.08 70.6871C108.503 72.0742 108.923 73.4637 109.475 74.8059C109.866 75.6545 110.199 76.529 110.47 77.4231C110.784 78.6284 110.796 79.9482 111.465 81.0016C111.924 81.6644 112.537 82.2055 113.251 82.5779C115.711 83.9873 118.683 84.2861 121.499 83.9475C124.314 83.6088 127.015 82.675 129.694 81.7486C130.289 81.5692 130.86 81.3183 131.395 81.0016C133.248 79.7863 133.661 77.3011 134.007 75.1122C134.392 72.6718 134.907 70.2364 135.82 67.9404C136.362 66.5733 137.064 65.1862 136.944 63.722C136.793 61.7771 135.255 60.2008 134.875 58.2884C134.748 57.6491 134.753 56.9903 134.892 56.3535C135.01 55.974 135.076 55.5803 135.089 55.1831C135.047 54.3812 134.39 53.7636 133.773 53.2482C132.435 52.1292 131.054 51.0717 129.629 50.0756C129.557 49.5776 130.234 49.3634 130.54 48.97C130.972 48.4147 130.525 47.5331 129.868 47.2742C129.211 47.0152 128.475 47.1845 127.791 47.3563C127.836 47.0058 127.766 46.6502 127.593 46.3425C127.419 46.0348 127.151 45.7914 126.828 45.6484C126.506 45.5054 126.146 45.4706 125.801 45.549C125.457 45.6275 125.148 45.8151 124.919 46.0838C124.737 45.6668 124.447 45.3063 124.078 45.04C123.71 44.7736 123.277 44.6112 122.824 44.5698C121.175 44.4403 121.143 45.7028 120.088 46.3976C119.034 47.0924 118.163 46.176 117.352 45.5086C117.203 45.8858 117.156 46.2957 117.216 46.697C117.275 47.0983 117.439 47.4768 117.691 47.7946Z" fill="#535C74"/>
<path d="M179.809 131.834C179.809 131.834 179.588 132.362 179.18 133.127C178.563 134.303 177.812 135.403 176.941 136.406L176.874 136.478H176.471L162.11 136.61H161.767L161.725 136.561L158.939 133.251L157.889 132.004L157.847 131.951L157.757 131.847L157.708 131.787L157.643 131.71L155.601 129.284L156.347 126.171L157.618 120.927L157.651 120.8L157.899 119.804L158.076 119.057L158.668 116.621L160.697 108.242L164.304 110.11L168.107 116.833L170.149 120.444H171.268C171.48 120.444 171.965 120.852 172.452 121.323C172.626 121.49 172.8 121.667 172.949 121.821C173.392 122.279 173.743 122.673 173.743 122.673C173.743 122.673 175.556 122.713 176.044 124.142C176.069 124.211 176.09 124.282 176.106 124.354C176.268 124.915 176.478 125.462 176.735 125.987C177.056 126.687 177.459 127.481 177.867 128.276C178.625 129.732 179.396 131.119 179.68 131.623L179.715 131.685L179.809 131.834Z" fill="#3E4C59"/>
<path opacity="0.1" d="M158.444 120.591L158.419 120.947V120.972L158.377 121.545L158.046 126.154L157.645 131.707L157.531 133.271L157.282 136.618V136.66L130.669 136.909L86.9958 137.382V137.592H86.9609V137.382V137.313L87.0729 133.737L87.2868 126.749L87.4708 120.825L87.4882 120.235C87.4991 119.879 87.5824 119.528 87.733 119.206C87.8836 118.883 88.0984 118.594 88.3642 118.357C88.6301 118.12 88.9414 117.94 89.2791 117.827C89.6169 117.714 89.974 117.672 90.3286 117.702C91.5026 117.802 93.0273 117.924 94.8504 118.053L95.5966 118.108C106.125 118.84 125.583 119.787 145.217 118.606C145.63 118.584 146.045 118.559 146.46 118.529C149.505 118.337 152.547 118.091 155.559 117.782C155.939 117.742 156.324 117.786 156.686 117.911C157.048 118.036 157.378 118.239 157.653 118.506C157.928 118.773 158.142 119.096 158.278 119.454C158.415 119.813 158.471 120.196 158.444 120.579V120.591Z" fill="black"/>
<path d="M86.9883 137.592V137.382L130.669 136.907L157.282 136.658H157.357V136.615L157.606 133.269L157.713 131.774L158.121 126.144L158.441 121.687V121.577C158.456 121.372 158.447 121.165 158.414 120.962C158.415 120.954 158.415 120.945 158.414 120.937C158.346 120.517 158.175 120.12 157.917 119.782C157.643 119.43 157.284 119.154 156.874 118.98C156.464 118.805 156.016 118.739 155.574 118.786C152.562 119.094 149.52 119.341 146.475 119.533C146.06 119.562 145.645 119.587 145.232 119.61C125.598 120.778 106.14 119.831 95.6115 119.112L94.8653 119.057C93.0422 118.927 91.5175 118.808 90.3436 118.706C89.6977 118.651 89.0546 118.838 88.5383 119.23C88.0221 119.623 87.6692 120.193 87.5479 120.83C87.5228 120.965 87.5078 121.101 87.5031 121.238L87.334 126.757L87.1027 133.747L86.9933 137.323V137.392V137.602L86.9883 137.592Z" fill="#303E48"/>
<path opacity="0.1" d="M158.518 122.337L158.212 126.154L157.757 131.844L157.643 133.269L157.394 136.459L157.379 136.618V136.66L157.342 137.029L157.369 136.66H157.297L130.684 136.909L86.9956 137.382V137.313L87.1175 133.737L87.3662 126.749L87.5254 122.105C87.5332 121.841 87.607 121.583 87.7399 121.354C87.8728 121.126 88.0607 120.935 88.2865 120.798C88.5681 120.625 88.8974 120.546 89.2266 120.574C89.749 120.616 90.3907 120.666 91.1393 120.72C92.3556 120.81 93.8554 120.915 95.6014 121.024C98.8348 121.228 102.891 121.448 107.54 121.627C120.474 122.125 137.934 122.292 154.519 120.837C155.265 120.773 156.036 120.701 156.79 120.628C157.088 120.599 157.389 120.656 157.655 120.793C157.731 120.83 157.802 120.875 157.869 120.927C158.086 121.084 158.257 121.295 158.367 121.54C158.392 121.588 158.413 121.639 158.429 121.692C158.504 121.898 158.534 122.118 158.518 122.337Z" fill="black"/>
<g opacity="0.1">
<path opacity="0.1" d="M117.793 46.9778C117.55 46.6617 117.388 46.2905 117.323 45.8971C117.263 46.2817 117.299 46.6752 117.427 47.0426C117.551 47.0312 117.673 47.0095 117.793 46.9778Z" fill="black"/>
<path opacity="0.1" d="M114.634 48.6313C114.587 48.3261 114.556 48.0185 114.542 47.71C114.542 48.0163 114.542 48.325 114.542 48.6338L114.634 48.6313Z" fill="black"/>
<path opacity="0.1" d="M134.905 56.9413C134.919 56.7194 134.949 56.4988 134.994 56.2814C135.112 55.9026 135.179 55.5099 135.193 55.1134C135.188 55.0245 135.174 54.9361 135.154 54.8495C135.111 55.0786 135.044 55.3077 134.994 55.5343C134.895 55.9962 134.865 56.4704 134.905 56.9413Z" fill="black"/>
<path opacity="0.1" d="M129.731 49.2464L130.003 49.4431C130.231 49.2776 130.445 49.0927 130.642 48.8903C130.735 48.7607 130.793 48.6088 130.81 48.4497C130.827 48.2907 130.801 48.13 130.736 47.9839C130.711 48.0407 130.68 48.0943 130.642 48.1433C130.336 48.5367 129.659 48.7534 129.731 49.2464Z" fill="black"/>
<path opacity="0.1" d="M109.294 51.642C109.203 51.8236 109.131 52.0138 109.078 52.2097C109.467 51.9923 109.886 51.8337 110.321 51.7391L109.294 51.642Z" fill="black"/>
<path opacity="0.1" d="M112.724 48.9326C112.56 48.8425 112.404 48.7401 112.256 48.6263C112.25 48.7249 112.257 48.8238 112.278 48.9202C112.427 48.9131 112.576 48.9173 112.724 48.9326Z" fill="black"/>
<path opacity="0.1" d="M137.041 63.605C136.939 64.8127 136.377 65.9757 135.922 67.1212C135.009 69.4171 134.494 71.8526 134.109 74.2955C133.763 76.4844 133.363 78.9696 131.497 80.1823C130.964 80.5011 130.394 80.7521 129.799 80.9294C127.117 81.8582 124.414 82.7896 121.591 83.1282C118.768 83.4669 115.805 83.1706 113.343 81.7611C112.629 81.3881 112.016 80.8472 111.557 80.1848C110.893 79.1314 110.881 77.8116 110.562 76.6064C110.291 75.7114 109.958 74.8361 109.567 73.9867C109.018 72.6469 108.595 71.2474 108.175 69.8704C107.785 68.5904 107.396 67.3096 107.008 66.028C106.88 65.6424 106.785 65.2467 106.725 64.8451C106.628 65.4826 106.817 66.15 107.008 66.775C107.396 68.0583 107.785 69.3391 108.175 70.6174C108.595 72.0045 109.018 73.394 109.567 74.7337C109.958 75.5832 110.291 76.4585 110.562 77.3534C110.876 78.5587 110.888 79.8785 111.557 80.9319C112.016 81.5943 112.629 82.1352 113.343 82.5082C115.805 83.9176 118.775 84.214 121.591 83.8753C124.406 83.5366 127.107 82.6053 129.799 81.6764C130.394 81.4992 130.964 81.2482 131.497 80.9294C133.35 79.7166 133.763 77.2314 134.109 75.0425C134.494 72.5996 135.009 70.1642 135.922 67.8682C136.464 66.5036 137.166 65.1165 137.046 63.6498C137.046 63.6349 137.041 63.6199 137.041 63.605Z" fill="black"/>
<path opacity="0.1" d="M107.272 62.6412C107.272 62.6412 107.272 62.6238 107.272 62.6138C107.317 62.1747 107.278 61.7311 107.157 61.3065C107.108 61.0332 107.075 60.7571 107.06 60.4797C107.032 61.0063 107.064 61.5345 107.157 62.0535C107.197 62.2478 107.242 62.4445 107.272 62.6412Z" fill="black"/>
<path opacity="0.1" d="M108.03 56.5502C108.222 56.2285 108.439 55.9228 108.679 55.6363C108.224 56.0721 107.384 55.6836 107.207 55.0785C107.142 55.3232 107.142 55.5808 107.207 55.8256C107.268 56.0083 107.377 56.1716 107.521 56.2988C107.666 56.4261 107.841 56.5128 108.03 56.5502Z" fill="black"/>
</g>
<path opacity="0.1" d="M170.151 120.442C170.151 120.442 170.94 123.305 170.151 125.795C169.363 128.286 170.151 120.442 170.151 120.442Z" fill="black"/>
<path opacity="0.1" d="M173.509 123.363C173.509 123.363 173.839 126.998 173.093 127.643C172.347 128.288 173.509 123.363 173.509 123.363Z" fill="black"/>
</svg>
