<svg width="259" height="138" viewBox="0 0 259 138" fill="none" xmlns="http://www.w3.org/2000/svg">
<path d="M239.142 109.125C238.854 109.748 238.566 110.362 238.279 110.968C237.831 111.909 237.39 112.832 236.953 113.737C236.759 114.138 236.565 114.531 236.376 114.925C234.237 119.3 232.24 123.17 230.544 126.352C229.005 129.236 226.719 131.652 223.927 133.348C221.135 135.043 217.938 135.956 214.673 135.989L176.954 136.4H176.556L173.323 136.435L170.557 136.465L162.075 136.557H161.732L157.414 136.604H157.283L130.669 136.893L106.914 137.142L104.15 137.172L86.9885 137.359H86.9687L75.8383 137.479H75.7189L40.5247 137.86L29.9962 137.974C27.7494 137.999 25.5121 137.679 23.3628 137.023C19.6225 135.892 16.2611 133.761 13.6402 130.86C9.11843 125.872 5.82285 120.052 3.60922 113.737C3.2892 112.825 2.99073 111.902 2.71382 110.968C-4.94933 85.0322 4.3927 51.5712 21.2064 29.1792C21.9111 28.2429 22.6274 27.3298 23.3553 26.44L23.3727 26.4201C28.5437 20.0651 34.3414 14.7559 40.5172 10.9808C51.461 4.27962 63.5862 2.39204 75.5125 8.01743C85.6032 12.7787 95.0248 15.0174 104.158 15.625C105.081 15.6848 106.003 15.7296 106.921 15.757C127.871 16.4169 147.505 8.85912 170.562 3.98079C171.48 3.78656 172.4 3.59481 173.328 3.41303C189.776 0.13591 208.022 -1.5923 229.721 2.04092C231.975 2.40964 234.199 2.94229 236.376 3.63466C237.333 3.94344 238.255 4.27547 239.142 4.63074C249.499 8.84916 255.148 16.6435 257.548 26.4101C257.775 27.3166 257.971 28.2388 258.137 29.1767C262.393 52.6694 249.929 85.9934 239.142 109.125Z" fill="#E9EEF2"/>
<g opacity="0.1">
<path opacity="0.1" d="M238.279 110.966C237.831 111.907 237.389 112.831 236.953 113.735H3.60878C3.28876 112.824 2.99029 111.901 2.71338 110.966H238.279Z" fill="#3E4C59"/>
</g>
<path d="M214.672 132.89V136.127L176.886 136.476L176.483 136.483L162.122 136.615L161.779 136.62L157.414 136.658H157.285L130.676 136.904L86.9979 137.31H86.9606L75.8551 137.415L75.7358 137.417L26.3892 137.871V134.135L37.9921 127.163L61.2725 126.968L61.77 126.966L61.9341 126.963L62.4316 126.956L73.6092 126.864L74.1091 126.861L74.2683 126.859L74.7657 126.856L78.3498 126.826L78.4444 126.824L87.2864 126.749H87.3586L156.354 126.167L158.043 126.154H158.212L159.501 126.142L168.865 126.064L169.362 126.057L169.823 126.052H170.061L172.974 126.03L173.551 126.022L174.325 126.017L176.75 125.995L180.597 125.962L181.095 125.957L181.96 125.952H182.122L200.704 125.793L214.672 132.89Z" fill="#61767D"/>
<path opacity="0.2" d="M214.673 132.89V136.127L176.887 136.476L176.484 136.483L162.123 136.615L161.779 136.62L157.414 136.658H157.285L130.677 136.904L86.9984 137.31H86.9611L75.8556 137.415L75.7362 137.417L26.3896 137.871V134.135L37.9926 127.163L61.273 126.968L61.7705 126.966L61.9346 126.963L62.4321 126.956L73.6097 126.864L74.1096 126.861L74.2688 126.859L74.7662 126.856L78.3503 126.826L78.4448 126.824L87.2869 126.749H87.3591L156.355 126.167L158.044 126.154H158.213L159.501 126.142L168.866 126.064L169.363 126.057L169.823 126.052H170.062L172.974 126.03L173.551 126.022L174.325 126.017L176.75 125.995L180.598 125.962L181.095 125.957L181.961 125.952H182.122L200.705 125.793L214.673 132.89Z" fill="black"/>
<path d="M73.6463 120.441V126.54C73.6465 126.829 73.5647 127.112 73.4106 127.356C73.2565 127.6 73.0364 127.796 72.7758 127.92C72.5817 128.014 72.3696 128.065 72.154 128.069L63.4736 128.253C63.2417 128.259 63.0118 128.21 62.802 128.111C62.5368 127.99 62.3121 127.794 62.1547 127.548C61.9973 127.302 61.9138 127.016 61.9141 126.724V120.441H73.6463Z" fill="#3D4D56"/>
<path opacity="0.1" d="M73.6468 120.442V126.54C73.6469 126.829 73.5652 127.112 73.4111 127.356C73.257 127.6 73.0369 127.796 72.7763 127.92C72.5822 128.014 72.3701 128.065 72.1545 128.069L63.474 128.253C63.2422 128.259 63.0123 128.21 62.8025 128.111C62.5373 127.99 62.3126 127.794 62.1552 127.548C61.9978 127.302 61.9142 127.016 61.9146 126.724V120.442H73.6468Z" fill="black"/>
<path d="M74.1443 120.442V126.54C74.1445 126.829 74.0627 127.112 73.9087 127.356C73.7546 127.6 73.5344 127.796 73.2738 127.92C73.0798 128.014 72.8676 128.065 72.652 128.069L63.9716 128.253C63.7398 128.259 63.5098 128.21 63.3001 128.111C63.0349 127.99 62.8102 127.794 62.6527 127.548C62.4953 127.302 62.4118 127.016 62.4121 126.724V120.442H74.1443Z" fill="#3D4D56"/>
<path d="M181.095 120.441H169.362V128.286H181.095V120.441Z" fill="#3D4D56"/>
<path opacity="0.1" d="M181.095 120.442H169.363V128.286H181.095V120.442Z" fill="black"/>
<path d="M180.597 120.441H168.865V128.286H180.597V120.441Z" fill="#3D4D56"/>
<path opacity="0.1" d="M74.1439 120.439V121.677L62.4116 121.99V120.439H74.1439Z" fill="black"/>
<path d="M94.8502 77.7842V119.67C94.8472 119.925 94.7461 120.17 94.5678 120.353C94.3896 120.536 94.1478 120.644 93.8926 120.653L46.2249 121.923H46.2124C45.9529 121.92 45.7049 121.815 45.5213 121.631C45.3377 121.448 45.2332 121.199 45.23 120.94V77.7842C45.2332 77.5243 45.3377 77.276 45.5213 77.0922C45.7049 76.9084 45.9529 76.8038 46.2124 76.8005H93.8677C94.1273 76.8038 94.3753 76.9084 94.5589 77.0922C94.7424 77.276 94.847 77.5243 94.8502 77.7842Z" fill="#697DC6"/>
<path opacity="0.1" d="M46.2249 76.8005V121.923H46.2124C45.9529 121.92 45.7049 121.815 45.5213 121.631C45.3377 121.448 45.2332 121.199 45.23 120.94V77.7842C45.2332 77.5243 45.3377 77.276 45.5213 77.0922C45.7049 76.9084 45.9529 76.8038 46.2124 76.8005H46.2249Z" fill="black"/>
<path d="M48.4014 79.475H92.5497V116.392L48.4014 117.388V79.475Z" fill="#D4DFEC"/>
<path opacity="0.1" d="M180.597 120.439V122.035L168.865 121.721V120.439H180.597Z" fill="black"/>
<path d="M196.08 77.7842V120.94C196.077 121.202 195.971 121.452 195.785 121.636C195.598 121.82 195.347 121.923 195.085 121.923L147.408 120.653C147.153 120.644 146.911 120.536 146.733 120.353C146.554 120.17 146.453 119.925 146.45 119.67V77.7842C146.453 77.5243 146.558 77.276 146.742 77.0922C146.925 76.9084 147.173 76.8038 147.433 76.8005H195.088C195.349 76.8012 195.6 76.9047 195.785 77.0887C195.971 77.2728 196.077 77.5226 196.08 77.7842Z" fill="#697DC6"/>
<path opacity="0.1" d="M196.08 77.7842V120.94C196.077 121.202 195.971 121.452 195.785 121.636C195.598 121.82 195.347 121.923 195.085 121.923V76.8005C195.347 76.8005 195.598 76.9037 195.785 77.0879C195.971 77.272 196.077 77.5222 196.08 77.7842Z" fill="black"/>
<path d="M192.909 79.475H148.761V116.392L192.909 117.388V79.475Z" fill="#D4DFEC"/>
<path d="M145.216 77.7842V119.67C145.213 119.925 145.112 120.17 144.934 120.353C144.756 120.536 144.514 120.644 144.259 120.653L96.5911 121.923C96.3294 121.923 96.0782 121.82 95.892 121.636C95.7057 121.452 95.5995 121.202 95.5962 120.94V77.7842C95.5994 77.5243 95.704 77.276 95.8875 77.0922C96.0711 76.9084 96.3191 76.8038 96.5786 76.8005H144.234C144.493 76.8038 144.742 76.9084 144.925 77.0922C145.109 77.276 145.213 77.5243 145.216 77.7842Z" fill="#697DC6"/>
<path d="M98.7676 79.475H142.916V116.392L98.7676 117.388V79.475Z" fill="#D4DFEC"/>
<path opacity="0.1" d="M214.672 132.89V136.127L176.886 136.476L176.483 136.483L162.122 136.615L161.779 136.62L157.414 136.658H157.285L130.676 136.904L86.9979 137.31H86.9606L75.8551 137.415L75.7358 137.417L26.3892 137.871V134.135L76.758 133.804H76.8774L87.0725 133.734H87.1198L157.528 133.269H157.6L157.643 133.266H157.76L158.951 133.259H159.314L177.841 133.134L178.936 133.129L179.18 133.127L214.672 132.89Z" fill="black"/>
<path d="M121.192 80.5559C128.243 80.5559 133.959 74.833 133.959 67.7736C133.959 60.7141 128.243 54.9913 121.192 54.9913C114.141 54.9913 108.425 60.7141 108.425 67.7736C108.425 74.833 114.141 80.5559 121.192 80.5559Z" fill="#FBBEBE"/>
<path d="M133.962 93.9207C133.962 93.9207 109.214 96.909 111.577 93.9207C112.433 92.8399 112.669 89.6375 112.622 85.9894C112.607 84.8812 112.567 83.7332 112.51 82.5902C112.236 77.1118 111.577 71.7578 111.577 71.7578C111.577 71.7578 133.216 61.5479 130.729 69.6411C129.734 72.9108 130.06 77.5027 130.816 81.8133C131.037 83.0708 131.293 84.3035 131.562 85.4739C132.217 88.3287 133.019 91.1479 133.962 93.9207Z" fill="#FBBEBE"/>
<path opacity="0.1" d="M133.962 93.9208C133.962 93.9208 109.214 96.9091 111.577 93.9208C112.433 92.8401 112.669 89.6376 112.622 85.9895C116.395 84.3758 121.195 85.5786 121.195 85.5786C126.249 84.5701 129.49 84.7668 131.562 85.474C132.217 88.3288 133.019 91.1481 133.962 93.9208Z" fill="black"/>
<path d="M86.988 137.592V137.382L130.669 136.907L157.282 136.658H157.357L157.329 137.026L157.367 136.658H157.414V136.615L157.755 133.266L157.884 131.999L157.924 131.603L157.959 131.271L159.496 126.139L161.033 121.014L162.326 116.699L164.301 110.105C164.301 110.105 163.182 107.49 162.56 106.743C161.938 105.996 161.316 100.891 161.316 100.891C161.316 100.891 156.009 95.8282 153.688 95.2455C152.715 94.9965 150.795 94.6653 148.756 94.2494C147.992 94.095 147.209 93.9307 146.455 93.7514C146.03 93.6543 145.612 93.5522 145.212 93.4501C144.432 93.2552 143.664 93.0174 142.911 92.7379C142.516 92.5942 142.14 92.4027 141.792 92.1676C139.963 90.8254 135.382 90.6735 135.205 90.6735C135.205 90.6677 135.205 90.6619 135.205 90.6561V90.6336C135.212 90.5292 135.212 90.4244 135.205 90.3199C135.205 90.2203 135.205 90.1032 135.183 89.9713C135.183 89.9314 135.183 89.8891 135.166 89.8467C135.153 89.7571 135.138 89.6625 135.116 89.5629C135.108 89.5184 135.098 89.4743 135.086 89.4309C135.014 89.1308 134.91 88.8394 134.775 88.5618C134.758 88.5219 134.735 88.4796 134.715 88.4398C134.593 88.2097 134.452 87.9906 134.293 87.7848C134.26 87.7425 134.225 87.6977 134.188 87.6553C133.984 87.4148 133.758 87.1947 133.512 86.9979C133.444 86.9456 133.375 86.8909 133.303 86.8411C133.262 86.8084 133.22 86.7784 133.176 86.7514L132.954 86.607L132.748 86.4874C132.566 86.3878 132.375 86.2907 132.166 86.1986C132.101 86.1687 132.032 86.1413 131.962 86.1139C131.892 86.0865 131.783 86.0442 131.691 86.0093H131.676L131.489 85.9346C131.348 85.8873 131.203 85.845 131.052 85.8026L130.82 85.7429L130.572 85.6856L130.323 85.6333C130.074 85.5835 129.808 85.5387 129.53 85.5038L129.246 85.4689L128.955 85.4391L128.654 85.4142L128.226 85.3893L127.729 85.3718C125.535 85.3716 123.347 85.6045 121.202 86.0666C119.712 85.7346 118.186 85.5941 116.661 85.6482H116.444L116.196 85.6632H116.036L115.715 85.6931C115.609 85.6931 115.499 85.7155 115.392 85.7304C115.285 85.7454 115.173 85.7578 115.066 85.7752L114.902 85.8026C114.74 85.83 114.576 85.8599 114.405 85.8948C114.35 85.9047 114.295 85.9172 114.241 85.9321C114.024 85.9794 113.808 86.0367 113.594 86.1015C113.487 86.1313 113.38 86.1662 113.273 86.2036C113.218 86.2185 113.166 86.2384 113.114 86.2583L112.955 86.3156L112.798 86.3779L112.611 86.4526C112.517 86.4924 112.425 86.5348 112.333 86.5796C112.281 86.602 112.228 86.6269 112.179 86.6543C112.129 86.6817 112.077 86.7041 112.029 86.7315C111.467 87.0224 110.947 87.3894 110.485 87.8222L110.358 87.9442L110.234 88.0712C110.191 88.1136 110.152 88.1584 110.112 88.2032C109.95 88.3806 109.798 88.5677 109.659 88.7635C109.619 88.8158 109.582 88.8681 109.545 88.9229C109.387 89.1559 109.244 89.3988 109.117 89.65C109.085 89.7098 109.055 89.772 109.025 89.8318C108.822 90.2525 108.655 90.6899 108.527 91.1392C108.481 91.3052 108.439 91.4712 108.401 91.6372C108.401 91.6372 103.135 93.9631 98.7675 95.6464C97.606 96.0947 96.5116 96.5006 95.5963 96.8069C95.3302 96.8965 95.0814 96.9787 94.8501 97.0559C94.3482 97.2375 93.8263 97.3579 93.2956 97.4145C93.0455 97.4186 92.796 97.4419 92.5494 97.4842C90.5423 97.8104 87.1024 99.2274 86.7268 100.649C86.6964 100.763 86.6879 100.881 86.702 100.998C86.702 100.998 86.702 101.015 86.702 101.025C86.9507 102.768 85.2096 102.519 85.2096 102.519C85.2096 102.519 84.5878 107.126 83.7173 108.371C83.088 109.268 82.6577 111.268 82.603 112.777C82.5718 113.247 82.6086 113.719 82.7125 114.179C82.7125 114.191 82.7125 114.203 82.7125 114.213C82.812 114.547 82.5732 115.459 82.1678 116.626C81.7275 117.909 81.0858 119.503 80.469 121.007C79.5388 123.278 78.6633 125.34 78.6085 125.793C78.5862 125.995 78.5215 126.356 78.4319 126.821C78.0688 128.719 77.2629 132.332 76.865 133.794C76.569 134.885 76.1387 136.379 75.8427 137.405C75.8427 137.435 75.8253 137.465 75.8179 137.492L86.9681 137.382V137.592H87.0029H86.988Z" fill="#3E4C59"/>
<path opacity="0.1" d="M91.0571 108.239C91.0571 108.239 105.234 115.585 110.333 114.714L91.0571 108.239Z" fill="black"/>
<path opacity="0.1" d="M119.909 105.251C119.909 105.251 133.713 109.734 138.315 110.356C142.916 110.979 119.909 105.251 119.909 105.251Z" fill="black"/>
<path opacity="0.1" d="M135.221 90.8279C128.008 92.1577 114.427 91.8713 108.558 91.6696C110.709 83.9499 121.2 86.5746 121.2 86.5746C134.186 83.9798 135.181 89.3637 135.221 90.8279Z" fill="black"/>
<path d="M135.221 90.3299C128.008 91.6596 114.427 91.3733 108.558 91.1715C110.709 83.4519 121.2 86.0766 121.2 86.0766C134.186 83.4818 135.181 88.8656 135.221 90.3299Z" fill="#3E4C59"/>
<path d="M173.509 124.364C173.509 124.364 182.005 123.056 182.172 126.791C182.338 130.527 177.839 133.137 177.839 133.137L173.509 124.364Z" fill="#FBBEBE"/>
<path opacity="0.1" d="M130.816 81.8133C130.45 81.9768 130.077 82.1214 129.696 82.2466C127.015 83.1729 124.312 84.1068 121.489 84.4454C118.666 84.7841 115.703 84.4853 113.241 83.0758C112.982 82.9296 112.733 82.7674 112.495 82.5902C112.221 77.1118 111.562 71.7578 111.562 71.7578C111.562 71.7578 133.201 61.5479 130.714 69.6411C129.724 72.9108 130.06 77.5027 130.816 81.8133Z" fill="black"/>
<path d="M117.691 47.7946C117.336 47.8885 116.964 47.898 116.604 47.8223C116.245 47.7466 115.908 47.5879 115.621 47.3588L116.139 48.0785C115.834 48.1137 115.525 48.0818 115.234 47.985C114.942 47.8883 114.676 47.7289 114.452 47.5182C114.405 48.1624 114.432 48.8099 114.532 49.4481C113.676 49.4894 112.833 49.2246 112.154 48.701C112.141 48.9257 112.197 49.149 112.314 49.3409C112.431 49.5328 112.605 49.6841 112.811 49.7743C111.951 49.6715 111.083 49.8854 110.369 50.3761C109.655 50.8669 109.144 51.6009 108.931 52.4413L110.229 52.5609C109.209 52.7791 108.293 53.3385 107.632 54.1471C107.234 54.6452 106.931 55.2827 107.105 55.8903C107.279 56.4979 108.12 56.8864 108.577 56.4531C107.926 57.231 107.453 58.1421 107.191 59.1225C106.929 60.1028 106.884 61.1288 107.06 62.1283C107.178 62.5542 107.217 62.9982 107.175 63.4381C107.093 63.849 106.834 64.2051 106.705 64.606C106.456 65.3332 106.692 66.1226 106.913 66.8472L108.08 70.6871C108.503 72.0742 108.923 73.4637 109.475 74.8059C109.866 75.6545 110.199 76.529 110.47 77.4231C110.784 78.6284 110.796 79.9482 111.465 81.0016C111.924 81.6644 112.537 82.2055 113.251 82.5779C115.711 83.9873 118.683 84.2861 121.499 83.9475C124.314 83.6088 127.015 82.675 129.694 81.7486C130.289 81.5692 130.86 81.3183 131.395 81.0016C133.248 79.7863 133.661 77.3011 134.007 75.1122C134.392 72.6718 134.907 70.2364 135.82 67.9404C136.362 66.5733 137.064 65.1862 136.944 63.722C136.793 61.7771 135.255 60.2008 134.875 58.2884C134.748 57.6491 134.753 56.9903 134.892 56.3535C135.01 55.974 135.076 55.5803 135.089 55.1831C135.047 54.3812 134.39 53.7636 133.773 53.2482C132.435 52.1292 131.054 51.0717 129.629 50.0756C129.557 49.5776 130.234 49.3634 130.54 48.97C130.972 48.4147 130.525 47.5331 129.868 47.2742C129.211 47.0152 128.475 47.1845 127.791 47.3563C127.836 47.0058 127.766 46.6502 127.593 46.3425C127.419 46.0348 127.151 45.7914 126.828 45.6484C126.506 45.5054 126.146 45.4706 125.801 45.549C125.457 45.6275 125.148 45.8151 124.919 46.0838C124.737 45.6668 124.447 45.3063 124.078 45.04C123.71 44.7736 123.277 44.6112 122.824 44.5698C121.175 44.4403 121.143 45.7028 120.088 46.3976C119.034 47.0924 118.163 46.176 117.352 45.5086C117.203 45.8858 117.156 46.2957 117.216 46.697C117.275 47.0983 117.439 47.4768 117.691 47.7946Z" fill="#535C74"/>
<path d="M179.809 131.834C179.809 131.834 179.587 132.362 179.18 133.127C178.562 134.303 177.811 135.403 176.941 136.406L176.874 136.478H176.471L162.11 136.61H161.766L161.724 136.561L158.938 133.251L157.889 132.004L157.847 131.951L157.757 131.847L157.707 131.787L157.643 131.71L155.601 129.284L156.347 126.171L157.618 120.927L157.65 120.8L157.899 119.804L158.075 119.057L158.667 116.621L160.697 108.242L164.303 110.11L168.106 116.833L170.148 120.444H171.268C171.479 120.444 171.964 120.852 172.452 121.323C172.626 121.49 172.8 121.667 172.949 121.821C173.392 122.279 173.742 122.673 173.742 122.673C173.742 122.673 175.556 122.713 176.043 124.142C176.068 124.211 176.089 124.282 176.105 124.354C176.267 124.915 176.478 125.462 176.735 125.987C177.055 126.687 177.458 127.481 177.866 128.276C178.625 129.732 179.396 131.119 179.679 131.623L179.714 131.685L179.809 131.834Z" fill="#3E4C59"/>
<path opacity="0.1" d="M158.444 120.591L158.419 120.947V120.972L158.377 121.545L158.046 126.154L157.645 131.707L157.531 133.271L157.282 136.618V136.66L130.669 136.909L86.9958 137.382V137.592H86.9609V137.382V137.313L87.0729 133.737L87.2868 126.749L87.4708 120.825L87.4882 120.235C87.4991 119.879 87.5824 119.528 87.733 119.205C87.8836 118.882 88.0984 118.594 88.3642 118.357C88.6301 118.12 88.9414 117.939 89.2791 117.827C89.6169 117.714 89.974 117.672 90.3286 117.702C91.5026 117.802 93.0273 117.924 94.8504 118.053L95.5966 118.108C106.125 118.84 125.583 119.787 145.217 118.606C145.63 118.584 146.045 118.559 146.46 118.529C149.505 118.337 152.547 118.091 155.559 117.782C155.939 117.742 156.324 117.786 156.686 117.911C157.048 118.036 157.378 118.239 157.653 118.506C157.928 118.772 158.142 119.096 158.278 119.454C158.415 119.812 158.471 120.196 158.444 120.578V120.591Z" fill="black"/>
<path d="M86.9878 137.592V137.382L130.668 136.907L157.282 136.658H157.356V136.615L157.605 133.269L157.712 131.774L158.12 126.144L158.441 121.687V121.577C158.456 121.372 158.447 121.165 158.414 120.962C158.415 120.954 158.415 120.945 158.414 120.937C158.345 120.517 158.174 120.12 157.916 119.782C157.642 119.43 157.283 119.154 156.873 118.98C156.464 118.805 156.016 118.739 155.573 118.786C152.561 119.094 149.519 119.341 146.475 119.533C146.059 119.562 145.644 119.587 145.231 119.61C125.597 120.778 106.139 119.831 95.611 119.112L94.8648 119.057C93.0417 118.927 91.517 118.808 90.3431 118.706C89.6972 118.651 89.0541 118.838 88.5378 119.23C88.0216 119.623 87.6687 120.193 87.5474 120.83C87.5223 120.965 87.5073 121.101 87.5027 121.238L87.3335 126.757L87.1022 133.747L86.9928 137.323V137.392V137.602L86.9878 137.592Z" fill="#303E48"/>
<path opacity="0.1" d="M158.518 122.337L158.212 126.154L157.757 131.844L157.643 133.269L157.394 136.459L157.379 136.618V136.66L157.342 137.029L157.369 136.66H157.297L130.684 136.909L86.9956 137.382V137.313L87.1175 133.737L87.3662 126.749L87.5254 122.105C87.5332 121.841 87.607 121.583 87.7399 121.354C87.8728 121.126 88.0607 120.935 88.2865 120.798C88.5681 120.625 88.8974 120.546 89.2266 120.574C89.749 120.616 90.3907 120.666 91.1393 120.72C92.3556 120.81 93.8554 120.915 95.6014 121.024C98.8348 121.228 102.891 121.448 107.54 121.627C120.474 122.125 137.934 122.292 154.519 120.837C155.265 120.773 156.036 120.701 156.79 120.628C157.088 120.599 157.389 120.656 157.655 120.793C157.731 120.83 157.802 120.875 157.869 120.927C158.086 121.084 158.257 121.295 158.367 121.54C158.392 121.588 158.413 121.639 158.429 121.692C158.504 121.898 158.534 122.118 158.518 122.337Z" fill="black"/>
<path opacity="0.1" d="M74.1439 125.746V126.54C74.144 126.829 74.0623 127.112 73.9082 127.356C73.7541 127.6 73.5339 127.796 73.2733 127.92L63.2996 128.111C63.0344 127.99 62.8097 127.794 62.6523 127.548C62.4948 127.302 62.4113 127.016 62.4116 126.724V125.977L74.1439 125.746Z" fill="black"/>
<path d="M74.2687 128.388L61.2729 128.637V126.478L74.2687 126.229V128.388Z" fill="#3D4D56"/>
<path opacity="0.1" d="M74.2687 128.388L61.2729 128.637V126.478L74.2687 126.229V128.388Z" fill="black"/>
<path d="M74.7658 128.388L61.77 128.637V126.478L74.7658 126.229V128.388Z" fill="#3D4D56"/>
<g opacity="0.1">
<path opacity="0.1" d="M117.793 46.9777C117.55 46.6616 117.388 46.2904 117.323 45.897C117.263 46.2816 117.299 46.6751 117.427 47.0425C117.551 47.0311 117.673 47.0094 117.793 46.9777Z" fill="black"/>
<path opacity="0.1" d="M114.634 48.6312C114.587 48.3259 114.556 48.0184 114.542 47.7098C114.542 48.0161 114.542 48.3249 114.542 48.6337L114.634 48.6312Z" fill="black"/>
<path opacity="0.1" d="M134.905 56.9411C134.919 56.7193 134.949 56.4987 134.994 56.2812C135.112 55.9025 135.179 55.5097 135.193 55.1133C135.188 55.0243 135.174 54.936 135.154 54.8494C135.111 55.0785 135.044 55.3076 134.994 55.5342C134.895 55.9961 134.865 56.4703 134.905 56.9411Z" fill="black"/>
<path opacity="0.1" d="M129.731 49.2463L130.003 49.443C130.231 49.2775 130.445 49.0925 130.642 48.8902C130.735 48.7606 130.793 48.6087 130.81 48.4496C130.827 48.2906 130.801 48.1299 130.736 47.9838C130.711 48.0406 130.68 48.0941 130.642 48.1431C130.336 48.5366 129.659 48.7532 129.731 49.2463Z" fill="black"/>
<path opacity="0.1" d="M109.294 51.6418C109.203 51.8235 109.131 52.0137 109.078 52.2096C109.467 51.9922 109.886 51.8336 110.321 51.739L109.294 51.6418Z" fill="black"/>
<path opacity="0.1" d="M112.724 48.9325C112.56 48.8424 112.404 48.74 112.256 48.6262C112.25 48.7247 112.257 48.8236 112.278 48.9201C112.427 48.913 112.576 48.9171 112.724 48.9325Z" fill="black"/>
<path opacity="0.1" d="M137.041 63.6049C136.939 64.8126 136.377 65.9755 135.922 67.121C135.009 69.417 134.494 71.8524 134.109 74.2953C133.763 76.4842 133.363 78.9695 131.497 80.1822C130.964 80.501 130.394 80.752 129.799 80.9293C127.117 81.8581 124.414 82.7894 121.591 83.1281C118.768 83.4668 115.805 83.1704 113.343 81.761C112.629 81.388 112.016 80.8471 111.557 80.1847C110.893 79.1313 110.881 77.8115 110.562 76.6063C110.291 75.7113 109.958 74.836 109.567 73.9865C109.018 72.6468 108.595 71.2473 108.175 69.8702C107.785 68.5903 107.396 67.3095 107.008 66.0278C106.88 65.6423 106.785 65.2466 106.725 64.845C106.628 65.4825 106.817 66.1499 107.008 66.7749C107.396 68.0582 107.785 69.339 108.175 70.6173C108.595 72.0043 109.018 73.3939 109.567 74.7336C109.958 75.5831 110.291 76.4584 110.562 77.3533C110.876 78.5586 110.888 79.8784 111.557 80.9317C112.016 81.5942 112.629 82.1351 113.343 82.508C115.805 83.9175 118.775 84.2139 121.591 83.8752C124.406 83.5365 127.107 82.6052 129.799 81.6763C130.394 81.499 130.964 81.2481 131.497 80.9293C133.35 79.7165 133.763 77.2313 134.109 75.0424C134.494 72.5995 135.009 70.1641 135.922 67.8681C136.464 66.5035 137.166 65.1164 137.046 63.6497C137.046 63.6347 137.041 63.6198 137.041 63.6049Z" fill="black"/>
<path opacity="0.1" d="M107.272 62.6411C107.272 62.6411 107.272 62.6237 107.272 62.6137C107.317 62.1746 107.278 61.731 107.157 61.3064C107.108 61.0331 107.075 60.757 107.06 60.4796C107.032 61.0062 107.064 61.5344 107.157 62.0534C107.197 62.2477 107.242 62.4444 107.272 62.6411Z" fill="black"/>
<path opacity="0.1" d="M108.03 56.5501C108.222 56.2283 108.439 55.9227 108.679 55.6362C108.224 56.072 107.384 55.6835 107.207 55.0784C107.142 55.3231 107.142 55.5807 107.207 55.8254C107.268 56.0082 107.377 56.1714 107.521 56.2987C107.666 56.426 107.841 56.5127 108.03 56.5501Z" fill="black"/>
</g>
<path opacity="0.1" d="M170.151 120.441C170.151 120.441 170.94 123.305 170.151 125.795C169.363 128.286 170.151 120.441 170.151 120.441Z" fill="black"/>
<path opacity="0.1" d="M173.509 123.362C173.509 123.362 173.839 126.998 173.093 127.643C172.347 128.288 173.509 123.362 173.509 123.362Z" fill="black"/>
<path d="M52.008 84.108H52.442C52.4887 84.108 52.5267 84.1193 52.556 84.142C52.5853 84.1647 52.6073 84.194 52.622 84.23L53.302 85.994C53.3247 86.0513 53.346 86.1147 53.366 86.184C53.3873 86.252 53.4073 86.324 53.426 86.4C53.4567 86.2467 53.4947 86.1113 53.54 85.994L54.218 84.23C54.23 84.1993 54.2513 84.1713 54.282 84.146C54.3127 84.1207 54.3507 84.108 54.396 84.108H54.83L53.662 87H53.176L52.008 84.108ZM57.8358 84.108V84.536H56.5538V85.338H57.5638V85.752H56.5538V86.57H57.8358V87H56.0118V84.108H57.8358ZM59.7369 85.87V87H59.1989V84.108H60.0809C60.2782 84.108 60.4469 84.1287 60.5869 84.17C60.7282 84.21 60.8436 84.2667 60.9329 84.34C61.0236 84.4133 61.0896 84.5013 61.1309 84.604C61.1736 84.7053 61.1949 84.8173 61.1949 84.94C61.1949 85.0373 61.1802 85.1293 61.1509 85.216C61.1229 85.3027 61.0816 85.3813 61.0269 85.452C60.9736 85.5227 60.9069 85.5847 60.8269 85.638C60.7482 85.6913 60.6582 85.734 60.5569 85.766C60.6249 85.8047 60.6836 85.86 60.7329 85.932L61.4569 87H60.9729C60.9262 87 60.8862 86.9907 60.8529 86.972C60.8209 86.9533 60.7936 86.9267 60.7709 86.892L60.1629 85.966C60.1402 85.9313 60.1149 85.9067 60.0869 85.892C60.0602 85.8773 60.0202 85.87 59.9669 85.87H59.7369ZM59.7369 85.484H60.0729C60.1742 85.484 60.2622 85.4713 60.3369 85.446C60.4129 85.4207 60.4749 85.386 60.5229 85.342C60.5722 85.2967 60.6089 85.2433 60.6329 85.182C60.6569 85.1207 60.6689 85.0533 60.6689 84.98C60.6689 84.8333 60.6202 84.7207 60.5229 84.642C60.4269 84.5633 60.2796 84.524 60.0809 84.524H59.7369V85.484ZM65.3583 85.554C65.3583 85.766 65.323 85.9627 65.2523 86.144C65.1817 86.324 65.0823 86.48 64.9543 86.612C64.8263 86.744 64.6723 86.8473 64.4923 86.922C64.3123 86.9953 64.113 87.032 63.8943 87.032C63.6757 87.032 63.4757 86.9953 63.2943 86.922C63.1143 86.8473 62.9597 86.744 62.8303 86.612C62.7023 86.48 62.603 86.324 62.5323 86.144C62.4617 85.9627 62.4263 85.766 62.4263 85.554C62.4263 85.342 62.4617 85.146 62.5323 84.966C62.603 84.7847 62.7023 84.628 62.8303 84.496C62.9597 84.364 63.1143 84.2613 63.2943 84.188C63.4757 84.1133 63.6757 84.076 63.8943 84.076C64.113 84.076 64.3123 84.1133 64.4923 84.188C64.6723 84.2627 64.8263 84.366 64.9543 84.498C65.0823 84.6287 65.1817 84.7847 65.2523 84.966C65.323 85.146 65.3583 85.342 65.3583 85.554ZM64.8063 85.554C64.8063 85.3953 64.785 85.2533 64.7423 85.128C64.701 85.0013 64.641 84.894 64.5623 84.806C64.4837 84.718 64.3877 84.6507 64.2743 84.604C64.1623 84.5573 64.0357 84.534 63.8943 84.534C63.753 84.534 63.6257 84.5573 63.5123 84.604C63.399 84.6507 63.3023 84.718 63.2223 84.806C63.1437 84.894 63.083 85.0013 63.0403 85.128C62.9977 85.2533 62.9763 85.3953 62.9763 85.554C62.9763 85.7127 62.9977 85.8553 63.0403 85.982C63.083 86.1073 63.1437 86.214 63.2223 86.302C63.3023 86.3887 63.399 86.4553 63.5123 86.502C63.6257 86.5487 63.753 86.572 63.8943 86.572C64.0357 86.572 64.1623 86.5487 64.2743 86.502C64.3877 86.4553 64.4837 86.3887 64.5623 86.302C64.641 86.214 64.701 86.1073 64.7423 85.982C64.785 85.8553 64.8063 85.7127 64.8063 85.554ZM66.9456 84.108C66.9696 84.108 66.9896 84.1093 67.0056 84.112C67.0216 84.1133 67.0356 84.1173 67.0476 84.124C67.0609 84.1293 67.0736 84.138 67.0856 84.15C67.0976 84.1607 67.1109 84.1753 67.1256 84.194L68.6436 86.128C68.6382 86.0813 68.6342 86.036 68.6316 85.992C68.6302 85.9467 68.6296 85.9047 68.6296 85.866V84.108H69.1036V87H68.8256C68.7829 87 68.7476 86.9933 68.7196 86.98C68.6916 86.9667 68.6642 86.9427 68.6376 86.908L67.1256 84.982C67.1296 85.0247 67.1322 85.0673 67.1336 85.11C67.1362 85.1513 67.1376 85.1893 67.1376 85.224V87H66.6636V84.108H66.9456ZM73.109 87H72.693C72.6463 87 72.6077 86.9887 72.577 86.966C72.5477 86.942 72.5263 86.9127 72.513 86.878L72.297 86.288H71.099L70.883 86.878C70.8723 86.9087 70.851 86.9367 70.819 86.962C70.7883 86.9873 70.7503 87 70.705 87H70.287L71.423 84.108H71.973L73.109 87ZM71.237 85.908H72.159L71.807 84.946C71.791 84.9033 71.773 84.8533 71.753 84.796C71.7343 84.7373 71.7157 84.674 71.697 84.606C71.6783 84.674 71.6597 84.7373 71.641 84.796C71.6237 84.8547 71.6063 84.906 71.589 84.95L71.237 85.908Z" fill="#3E4C59"/>
</svg>
