<svg width="216" height="141" viewBox="0 0 216 141" fill="none" xmlns="http://www.w3.org/2000/svg">
<g clip-path="url(#clip0_1369_6260)">
<path d="M60.2906 122.571L48.1373 123.892L42.3249 119.929L38.96 123.892L40.5751 132.254L42.4245 138.859L53.6387 133.164L62.6684 132.347L60.2906 122.571Z" fill="#A0616A"/>
<path d="M121.849 108.568L92.5227 108.04L56.8555 123.1L61.6111 133.403L93.8437 124.421L143.778 138.687L136.908 104.87L121.849 108.568Z" fill="#2F2E41"/>
<path d="M41.4114 123.534L47.2402 123.08L39.8262 107.418C39.8262 107.418 36.3916 106.205 35.8632 109.982C35.3348 113.759 39.8418 139.332 41.1628 139.332C42.4838 139.332 46.9161 136.746 46.9161 136.746L40.3546 124.327L41.4114 123.534H41.4114Z" fill="#2F2E41"/>
<path d="M187.609 119.246C187.022 119.309 186.382 119.403 185.701 119.542C182.814 120.13 182.755 122.09 182.78 122.539L182.76 122.527C182.47 122.993 182.288 123.464 182.178 123.909L182.046 117.901C182.132 117.723 182.209 117.521 182.274 117.314C182.49 117.979 182.844 118.608 183.15 118.566C183.547 118.512 183.72 117.344 183.646 116.513C184.151 117.164 185.001 117.859 185.321 117.645C185.577 117.473 185.425 116.768 185.146 116.127C185.728 116.478 186.374 116.708 186.574 116.485C186.847 116.181 186.192 115.143 185.589 114.564C186.397 114.639 187.425 114.511 187.492 114.143C187.548 113.84 186.936 113.457 186.281 113.211C186.939 113.037 187.554 112.735 187.534 112.436C187.509 112.081 186.596 111.843 185.808 111.807C186.403 111.342 186.949 110.699 186.782 110.409C186.628 110.142 185.914 110.245 185.255 110.48C185.645 109.923 185.919 109.295 185.71 109.08C185.45 108.812 184.527 109.274 183.897 109.785C184.02 108.989 183.958 107.985 183.601 107.894C183.302 107.818 182.879 108.402 182.589 109.039C182.461 108.371 182.201 107.736 181.902 107.736C181.475 107.736 181.129 109.023 181.129 109.862C181.129 109.909 181.13 109.954 181.132 109.997C181.089 109.947 181.04 109.895 180.984 109.841C180.383 109.256 179.218 108.608 178.921 108.914C178.712 109.129 178.986 109.757 179.376 110.315C178.717 110.079 178.003 109.976 177.85 110.243C177.643 110.602 178.525 111.498 179.242 111.933C179.199 111.928 179.153 111.924 179.105 111.92C178.269 111.863 176.961 112.121 176.932 112.547C176.911 112.846 177.527 113.148 178.184 113.321C177.53 113.567 176.918 113.95 176.973 114.253C177.041 114.621 178.069 114.75 178.877 114.674C178.273 115.254 177.618 116.292 177.892 116.596C178.092 116.819 178.737 116.588 179.32 116.237C179.04 116.878 178.888 117.584 179.144 117.755C179.483 117.982 180.411 117.193 180.901 116.515C180.851 117.345 181.049 118.485 181.443 118.53C181.608 118.548 181.783 118.373 181.94 118.102L181.494 124.56C181.39 125.312 182.057 125.803 182.116 126.112L182.213 130.485C182.104 130.174 181.958 129.855 181.761 129.539L181.741 129.551C181.766 129.101 181.706 127.141 178.82 126.554C178.139 126.415 177.499 126.32 176.912 126.257C176.219 126.183 175.949 127.131 176.575 127.437C177.481 127.88 178.333 128.439 178.778 129.101C179.913 130.792 181.483 129.814 181.706 129.663C181.955 130.077 182.118 130.495 182.222 130.893L182.273 133.215C182.26 133.27 182.251 133.301 182.251 133.303L182.275 133.31L182.398 138.93L183.546 138.921L183.135 133.177C183.204 132.867 183.416 131.811 183.135 130.715L182.725 126.201C182.724 126.198 182.748 126.32 182.725 126.201L182.19 124.428C182.268 123.879 182.448 123.262 182.815 122.651C183.038 122.803 184.607 123.781 185.743 122.089C186.187 121.427 187.04 120.869 187.946 120.425C188.571 120.119 188.301 119.171 187.609 119.246H187.609ZM182.368 132.543L182.347 131.56C182.39 131.931 182.388 132.267 182.368 132.543Z" fill="#F2F2F2"/>
<path d="M0.356445 138.824C0.356445 139.095 0.573931 139.313 0.844759 139.313H215.155C215.425 139.313 215.643 139.095 215.643 138.824C215.643 138.553 215.425 138.336 215.155 138.336H0.844759C0.573931 138.336 0.356445 138.553 0.356445 138.824Z" fill="#EEEEEE"/>
<path d="M142.557 73.3375L145.463 63.5621L153.917 63.2979L157.352 75.4511L142.557 73.3375Z" fill="#A0616A"/>
<path opacity="0.1" d="M142.557 73.3375L145.463 63.5621L153.917 63.2979L157.352 75.4511L142.557 73.3375Z" fill="black"/>
<path d="M155.535 71.9766L141.796 71.4482L137.536 80.2067L130.964 119.004L165.442 126.798C165.442 126.798 167.556 83.4694 162.8 77.3928C158.045 71.3161 155.535 71.9766 155.535 71.9766Z" fill="#E6E6E6"/>
<path d="M115.299 41.5938C114.726 38.5354 112.684 36.3518 110.737 36.7166C108.791 37.0813 107.678 39.856 108.251 42.9155C108.463 44.1407 108.966 45.2973 109.717 46.2885L112.307 59.2164L117.417 58.1791L115.153 45.2698C115.494 44.0736 115.544 42.8131 115.299 41.5938Z" fill="#A0616A"/>
<path d="M153.478 75.4972L125.42 69.968L117.535 46.2527L108.699 48.3427L117.563 83.3765L149.323 87.5554L153.478 75.4972Z" fill="#E6E6E6"/>
<path d="M110.746 3.60481C110.719 3.63156 110.693 3.65969 110.666 3.68666C106.417 -0.52955 99.5746 -0.566644 95.2803 3.60322C90.9707 7.78953 90.8251 14.6618 94.9535 19.027L94.9508 19.0296L95.0536 19.1354L110.256 34.7885L126.015 19.483L125.971 19.4379C125.998 19.4127 126.025 19.3893 126.052 19.3637C130.403 15.1372 130.505 8.18324 126.278 3.83152C122.052 -0.52017 115.098 -0.621669 110.746 3.60481Z" fill="#4C63B6"/>
<path d="M114.506 81.2383C114.455 81.2876 114.408 81.3394 114.358 81.3891C106.533 73.6238 93.9301 73.5555 86.021 81.2354C78.0838 88.9456 77.8156 101.603 85.419 109.642L85.4141 109.647L85.6034 109.842L113.603 138.671L142.627 110.482L142.547 110.399C142.595 110.353 142.646 110.31 142.695 110.262C150.709 102.478 150.896 89.6707 143.112 81.6559C135.328 73.6411 122.52 73.4542 114.506 81.2383L114.506 81.2383Z" fill="#4C63B6"/>
<path d="M163.858 122.043C163.858 122.043 169.142 134.46 163.329 137.366C157.517 140.273 141.596 142.65 137.667 137.366C133.739 132.082 132.418 107.776 132.418 107.776L119.736 125.477L112.603 120.986C112.603 120.986 121.057 91.1312 128.19 89.546C135.324 87.9608 154.346 106.983 154.346 106.983L163.858 122.043H163.858Z" fill="#2F2E41"/>
<path d="M115.773 119.401L110.224 124.949L102.562 128.912L103.355 135.781L117.886 134.196L119.736 130.497L119.207 127.327L120.264 122.307L115.773 119.401Z" fill="#A0616A"/>
<path d="M104.412 133.139L103.958 127.31L88.2958 134.724C88.2958 134.724 87.083 138.159 90.8598 138.687C94.6367 139.216 119.736 139.216 119.736 137.895C119.736 136.574 120.422 129.811 120.422 129.811L105.205 134.196L104.412 133.139H104.412Z" fill="#2F2E41"/>
<path d="M115.958 113.301C112.861 113.608 110.51 115.455 110.706 117.425C110.901 119.396 113.57 120.744 116.667 120.436C117.906 120.33 119.102 119.929 120.154 119.266L133.257 117.8L132.664 112.62L119.608 113.763C118.445 113.319 117.194 113.161 115.958 113.301V113.301Z" fill="#A0616A"/>
<path d="M153.025 78.1853L145.099 105.662L120.792 111.475L122.113 120.458L157.78 114.645L164.68 83.3636L153.025 78.1853Z" fill="#E6E6E6"/>
<path d="M148.616 66.488C154.817 66.488 159.844 61.4612 159.844 55.2603C159.844 49.0593 154.817 44.0325 148.616 44.0325C142.416 44.0325 137.389 49.0593 137.389 55.2603C137.389 61.4612 142.416 66.488 148.616 66.488Z" fill="#A0616A"/>
<path d="M149.512 40.1653C149.187 40.355 148.752 40.0681 148.648 39.7066C148.544 39.3451 148.665 38.9613 148.786 38.6049C148.988 38.0068 149.189 37.4087 149.391 36.8106C149.821 35.538 150.277 34.221 151.208 33.2525C152.612 31.7905 154.844 31.4186 156.853 31.6881C159.434 32.0341 161.979 33.4313 163.179 35.7417C164.379 38.0521 163.868 41.276 161.7 42.7175C164.79 46.2587 165.867 50.2054 165.697 54.902C165.527 59.5986 160.409 63.9209 157.071 67.2295C156.326 66.7777 155.648 64.6602 156.058 63.891C156.468 63.1217 155.88 62.2305 156.388 61.522C156.896 60.8134 157.32 61.9417 156.807 61.2371C156.483 60.7926 157.747 59.7698 157.266 59.5037C154.938 58.2167 154.163 55.3146 152.701 53.0923C150.937 50.4117 147.918 48.5964 144.724 48.2952C142.964 48.1293 141.105 48.4298 139.663 49.4515C138.22 50.4731 137.286 52.2988 137.621 54.0345C136.755 53.155 136.323 51.8659 136.486 50.6421C136.649 49.4183 137.402 48.2867 138.468 47.6639C137.819 45.5205 138.375 43.055 139.879 41.3963C141.383 39.7377 147.486 40.0202 149.682 40.4567L149.512 40.1653V40.1653Z" fill="#2F2E41"/>
<path d="M149.854 48.3604C152.762 48.6744 154.863 51.1941 156.636 53.5211C157.658 54.8623 158.729 56.3435 158.704 58.0297C158.678 59.7344 157.538 61.1966 156.993 62.8122C156.103 65.453 156.971 68.5948 159.09 70.4043C156.996 70.8017 154.732 69.2314 154.37 67.1306C153.949 64.685 155.803 62.3246 155.584 59.8528C155.39 57.6751 153.674 55.9991 152.215 54.3709C150.756 52.7426 149.386 50.5819 150.057 48.5013L149.854 48.3604L149.854 48.3604Z" fill="#2F2E41"/>
</g>
<defs>
<clipPath id="clip0_1369_6260">
<rect width="215.286" height="140" fill="white" transform="translate(0.356445 0.5)"/>
</clipPath>
</defs>
</svg>
