<svg width="158" height="140" viewBox="0 0 158 140" fill="none" xmlns="http://www.w3.org/2000/svg">
<g clip-path="url(#clip0_1369_6205)">
<path d="M18.4392 140L18.3025 139.949C13.6689 138.202 10.0387 134.504 8.3762 129.839C7.92577 128.543 7.64036 127.195 7.52673 125.827L7.51557 125.697L7.64447 125.72C9.18326 125.996 10.7987 126.148 11.5184 126.208L7.48047 123.536L7.48776 123.397C7.55063 122.093 8.40083 120.958 9.635 120.531C10.8809 120.071 12.2814 120.415 13.1722 121.4C13.5737 121.836 13.9981 122.275 14.4085 122.699C15.8188 124.156 17.2771 125.664 18.1993 127.443C19.5861 130.184 19.6614 133.405 18.4041 136.209L18.4392 140H18.4392Z" fill="#F2F2F2"/>
<path d="M100.141 137.411L100.139 137.396C99.9606 133.433 99.2335 129.514 97.9784 125.751L97.9772 125.745C97.904 125.358 97.9253 124.96 98.0392 124.583C98.3897 123.504 99.4767 122.843 100.596 123.029C101.752 123.246 102.948 123.042 103.967 122.454C104.614 122.078 105.399 122.026 106.089 122.313C106.741 122.579 107.228 123.137 107.403 123.818C107.417 123.872 107.429 123.926 107.439 123.981C107.476 127.962 108.207 131.907 109.6 135.637L109.601 135.642C109.747 136.413 109.514 137.206 108.976 137.776C108.5 138.259 107.833 138.504 107.158 138.444C105.945 138.361 104.698 138.607 103.345 139.196C102.873 139.406 102.342 139.444 101.844 139.301C100.965 139.044 100.306 138.312 100.141 137.411Z" fill="#798BC8"/>
<path d="M61.3818 82.9709V135.013H97.8411V82.9709C97.8423 82.2025 97.3421 81.5232 96.608 81.2964C96.4394 81.2407 96.2628 81.2133 96.0853 81.2152H63.1426C62.172 81.2133 61.3837 81.9986 61.3818 82.9692V82.9709ZM75.6103 100.853C75.6301 98.7034 77.3887 96.9769 79.5382 96.9967C81.6598 97.0162 83.3749 98.7313 83.3944 100.853V106.891C83.3842 109.041 81.6335 110.775 79.484 110.765C77.3488 110.755 75.6204 109.027 75.6103 106.891V100.853Z" fill="#F2F2F2"/>
<path d="M61.2705 133.349V138.367C61.2722 138.908 61.7089 139.347 62.2498 139.352H96.9737C97.5154 139.349 97.9531 138.909 97.953 138.367V133.349H61.2705Z" fill="#E6E6E6"/>
<path d="M4.02637 4.56187V99.5842C4.02836 102.106 6.07187 104.149 8.59329 104.151H149.407C151.928 104.149 153.972 102.106 153.974 99.5842V4.56187C153.968 2.04293 151.926 0.00319537 149.407 0H8.59329C6.07435 0.00320793 4.03237 2.04294 4.02637 4.56187H4.02637Z" fill="#E6E6E6"/>
<path d="M148.232 3.29834H9.7679C8.41914 3.30128 7.32727 4.39542 7.32715 5.74419V98.4121C7.32947 99.7591 8.42087 100.85 9.7679 100.853H148.232C149.579 100.85 150.67 99.7591 150.673 98.4121V5.74418C150.672 4.39542 149.581 3.30128 148.232 3.29834V3.29834ZM113.304 69.1347C112.89 69.9524 112.051 70.4669 111.134 70.4648L111.12 70.4638C109.792 70.2788 108.46 70.1569 107.123 70.0979C107.33 70.2466 107.513 70.4273 107.664 70.6333C108.052 71.1893 108.171 71.8897 107.989 72.5428C107.687 73.7199 107.701 74.9909 108.033 76.4284C108.154 76.9313 108.094 77.4606 107.863 77.9236C107.449 78.7412 106.61 79.2558 105.693 79.2536L105.679 79.2526C102.509 78.8111 99.2996 78.7256 96.1106 78.9977C96.098 79.0781 96.0821 79.1587 96.0615 79.2391C95.759 80.4162 95.7733 81.6872 96.1056 83.1247C96.2261 83.6276 96.1659 84.1569 95.9354 84.6198C95.5215 85.4375 94.6822 85.9521 93.7657 85.9499L93.7512 85.9489C90.4957 85.4957 87.1988 85.418 83.9255 85.7175C83.9006 86.5349 83.9855 87.352 84.1779 88.1469C84.2984 88.6498 84.2382 89.1791 84.0077 89.6421C83.5938 90.4597 82.7544 90.9743 81.838 90.9721L81.8235 90.9711C77.8944 90.4236 73.9083 90.4236 69.9792 90.9711H69.9728C69.5795 90.9726 69.1916 90.879 68.8422 90.6983C67.8451 90.1568 67.3938 88.9675 67.7807 87.9009C67.8995 87.5651 67.9877 87.2193 68.0443 86.8677C64.4435 86.4526 60.8045 86.4955 57.2144 86.9952H57.2081C56.8147 86.9967 56.4268 86.9031 56.0774 86.7224C55.0803 86.1809 54.6291 84.9916 55.016 83.925C55.4405 82.8278 55.4579 81.6148 55.065 80.5058C54.8799 79.9858 54.8799 79.4179 55.0649 78.8979C52.3584 78.76 49.6449 78.8787 46.9608 79.2526H46.9544C46.5611 79.2541 46.1732 79.1605 45.8238 78.9798C44.8267 78.4383 44.3754 77.2491 44.7623 76.1824C45.1869 75.0852 45.2043 73.8722 44.8114 72.7633C44.5604 72.0587 44.6525 71.2774 45.0605 70.6506C45.4404 70.0586 46.078 69.6813 46.7797 69.6334C46.8349 69.6297 46.8903 69.6278 46.9463 69.6278C48.3215 69.8682 49.7099 70.025 51.1041 70.0974C50.2147 69.5129 49.8421 68.3948 50.2031 67.3936C50.6276 66.2964 50.645 65.0834 50.2521 63.9744C50.0011 63.2699 50.0933 62.4886 50.5012 61.8617C50.5189 61.8347 50.5394 61.8107 50.558 61.7847C49.5659 61.8531 48.5761 61.956 47.5886 62.0934H47.5822C47.1889 62.0949 46.8009 62.0014 46.4515 61.8206C45.4544 61.2791 45.0032 60.0899 45.3901 59.0232C45.8147 57.926 45.8321 56.713 45.4392 55.6041C45.1882 54.8995 45.2803 54.1182 45.6883 53.4914C46.0681 52.8994 46.7058 52.5221 47.4075 52.4742C47.4627 52.4705 47.5181 52.4686 47.5741 52.4686C49.2276 52.7581 50.9001 52.9265 52.5782 52.9724C52.1501 52.3554 52.0449 51.5701 52.2956 50.8622C52.7202 49.765 52.7376 48.552 52.3447 47.443C52.0937 46.7385 52.1858 45.9572 52.5938 45.3303C52.9737 44.7383 53.6113 44.3611 54.313 44.3131C54.3682 44.3095 54.4236 44.3075 54.4796 44.3075C55.8789 44.5522 57.292 44.7104 58.7108 44.7812C58.406 44.2041 58.3562 43.5258 58.5734 42.9104C58.9979 41.8131 59.0153 40.6001 58.6224 39.4912C58.3715 38.7867 58.4636 38.0054 58.8715 37.3785C59.2514 36.7865 59.889 36.4093 60.5908 36.3613C60.6459 36.3577 60.7013 36.3557 60.7573 36.3557C62.4039 36.6439 64.0692 36.8121 65.7401 36.8588C65.5126 36.3213 65.4941 35.7182 65.6882 35.1678C66.1127 34.0706 66.1301 32.8576 65.7372 31.7487C65.4862 31.0441 65.5784 30.2628 65.9863 29.6359C66.3662 29.044 67.0038 28.6667 67.7055 28.6188C67.7607 28.6151 67.8161 28.6132 67.8721 28.6132C71.7937 29.3034 75.8057 29.3039 79.7275 28.6147H79.7324C80.0351 28.677 80.3473 28.677 80.6499 28.6147H80.6548C84.5766 29.3039 88.5886 29.3034 92.5102 28.6132C92.5662 28.6132 92.6216 28.6151 92.6768 28.6188C93.3785 28.6667 94.0161 29.044 94.396 29.6359C94.8039 30.2628 94.8961 31.0441 94.6451 31.7487C94.2522 32.8576 94.2696 34.0706 94.6941 35.1678C94.8882 35.7182 94.8697 36.3213 94.6422 36.8588C96.3131 36.8121 97.9784 36.6439 99.625 36.3557C99.681 36.3557 99.7364 36.3577 99.7915 36.3613C100.493 36.4093 101.131 36.7865 101.511 37.3785C101.919 38.0054 102.011 38.7867 101.76 39.4912C101.367 40.6001 101.384 41.8131 101.809 42.9104C102.026 43.5258 101.976 44.2041 101.672 44.7812C103.09 44.7104 104.503 44.5522 105.903 44.3075C105.959 44.3075 106.014 44.3095 106.069 44.3131C106.771 44.3611 107.409 44.7383 107.789 45.3303C108.196 45.9572 108.289 46.7385 108.038 47.443C107.645 48.552 107.662 49.765 108.087 50.8622C108.338 51.5719 108.232 52.3592 107.801 52.9768C107.988 53.1179 108.153 53.2854 108.292 53.4741C108.68 54.0301 108.799 54.7306 108.617 55.3837C108.315 56.5608 108.329 57.8317 108.661 59.2693C108.782 59.7722 108.721 60.3015 108.491 60.7644C108.407 60.9292 108.304 61.084 108.185 61.2257C109.164 61.1396 110.142 61.0112 111.116 60.8404H111.121C111.905 60.8377 112.643 61.2111 113.105 61.8444C113.493 62.4005 113.612 63.1009 113.43 63.754C113.127 64.9311 113.142 66.2021 113.474 67.6396C113.595 68.1425 113.534 68.6718 113.304 69.1347L113.304 69.1347Z" fill="white"/>
<path d="M143.741 16.0637H14.1808C13.8962 16.0574 13.6706 15.8216 13.6769 15.5371C13.683 15.2614 13.905 15.0393 14.1808 15.0332H143.741C144.025 15.0395 144.251 15.2752 144.245 15.5598C144.239 15.8355 144.017 16.0576 143.741 16.0637Z" fill="#E6E6E6"/>
<path d="M80.5261 88.5036L80.5116 88.5025C76.5825 87.9551 72.5964 87.9551 68.6673 88.5025H68.6609C68.2676 88.504 67.8797 88.4104 67.5303 88.2297C66.5332 87.6882 66.0819 86.499 66.4688 85.4323C66.8934 84.3351 66.9108 83.1221 66.5179 82.0132C66.2669 81.3086 66.359 80.5273 66.767 79.9005C67.1468 79.3085 67.7845 78.9312 68.4862 78.8833C68.5414 78.8796 68.5968 78.8777 68.6528 78.8777C72.5744 79.5679 76.5863 79.5685 80.5081 78.8792H80.513C81.297 78.8765 82.0347 79.2498 82.4967 79.8832C82.8848 80.4392 83.0041 81.1397 82.8218 81.7928C82.5194 82.9699 82.5337 84.2408 82.866 85.6784C82.9865 86.1813 82.9263 86.7106 82.6957 87.1735C82.2819 87.9912 81.4425 88.5057 80.5261 88.5036Z" fill="#798BC8"/>
<path d="M92.6093 67.9864L89.4483 65.3706C87.0779 66.6131 83.471 71.5734 83.471 71.5734L75.1501 77.5579C74.1508 77.6055 73.3793 78.4541 73.4269 79.4534C73.4745 80.4527 74.3232 81.2242 75.3224 81.1766C75.9709 81.1457 76.5533 80.7702 76.849 80.1922L88.1547 74.2178L92.6093 67.9864V67.9864Z" fill="#FFB8B8"/>
<path d="M97.9419 58.0309C99.7663 59.576 99.9928 62.3076 98.4477 64.132C98.2746 64.3364 98.0828 64.5243 97.8749 64.6933L95.8648 66.3274C95.8648 66.3274 90.8508 73.5454 88.241 74.3828L81.5407 77.8832L78.5195 74.8541L84.592 69.9053C84.592 69.9053 87.3849 67.2636 87.6646 65.3297C87.8358 64.1454 89.8402 60.9194 91.8493 58.5266C93.3913 56.7076 96.1159 56.483 97.935 58.025L97.9419 58.0309V58.0309Z" fill="#3F3D56"/>
<path d="M91.4457 136.368L88.59 136.367L87.2314 125.352L91.4463 125.352L91.4457 136.368Z" fill="#FFB6B6"/>
<path d="M91.5465 139.347L82.7646 139.346V139.235C82.7648 137.348 84.2951 135.817 86.1828 135.817H86.183L87.7871 134.6L90.7801 135.817L91.5467 135.818L91.5465 139.347Z" fill="#2F2E41"/>
<path d="M113.206 121.337L111.853 123.852L101.508 119.832L103.504 116.12L113.206 121.337Z" fill="#FFB6B6"/>
<path d="M115.877 122.659L111.718 130.393L111.62 130.341C109.958 129.447 109.335 127.374 110.228 125.712L110.229 125.711L109.916 123.722L112.406 121.663L112.769 120.987L115.877 122.659Z" fill="#2F2E41"/>
<path d="M86.0469 85.9236L83.5264 106.088L84.7866 112.848L107.471 122.786L108.731 118.69C102.933 115.142 96.7344 109.772 92.8288 109.377C92.8288 109.377 92.5049 105.799 95.3029 103.591C95.8674 103.145 95.7439 102.542 95.9722 101.996C96.1292 101.62 96.7537 101.229 96.9137 100.843C97.1209 100.344 96.8644 99.8474 97.0728 99.3397C97.19 99.0543 97.6342 99.0364 97.7507 98.7507C97.9494 98.2635 97.8193 97.509 98.0129 97.0276C98.4265 95.9989 98.8241 94.9929 99.1872 94.0499C100.317 91.1145 101.113 88.7888 101.012 88.2866C100.697 86.7112 86.0469 85.9236 86.0469 85.9236Z" fill="#2F2E41"/>
<path d="M85.6126 106.029L84.2939 114.545L87.622 131.923H92.0329C93.6176 126.084 93.6993 118.409 92.1904 111.916L85.6126 106.029Z" fill="#2F2E41"/>
<path d="M88.4467 61.2873L90.4801 57.7441L92.6633 55.9927L96.7591 55.3625L97.897 56.2375C101.992 62.4965 103.519 70.0923 102.161 77.4476L101.842 79.179L101.639 80.278L101.727 81.5916L101.043 83.5041L101.137 84.9044L101.187 85.6524L101.238 86.403L101.308 87.4508C101.434 88.0488 100.8 87.97 100.89 88.4971C101.047 89.4228 101.754 90.7945 100.68 90.799L89.5897 88.4971C86.7721 88.5087 84.1489 85.149 86.8693 82.4286L88.4467 61.2873H88.4467Z" fill="#3F3D56"/>
<path d="M93.6375 54.3754C96.6119 54.3754 99.0231 51.9642 99.0231 48.9898C99.0231 46.0155 96.6119 43.6042 93.6375 43.6042C90.6632 43.6042 88.252 46.0155 88.252 48.9898C88.252 51.9642 90.6632 54.3754 93.6375 54.3754Z" fill="#FFB8B8"/>
<path d="M93.7292 54.2225C94.5173 54.2348 95.3049 54.1797 96.0835 54.0579C96.8553 53.901 98.5819 52.6358 99.0632 51.8744C99.4208 51.3087 99.6495 50.4253 99.7784 49.7839C100.129 48.0675 99.7362 46.2826 98.6964 44.8726C98.4987 44.5809 98.226 44.3481 97.9069 44.1988C97.8786 44.1877 97.8495 44.1779 97.8201 44.1695C97.3552 44.0472 96.9374 43.7887 96.6205 43.4272C96.559 43.3541 96.4924 43.2855 96.4211 43.222C96.0628 42.9197 95.6381 42.7064 95.1817 42.5997C94.445 42.4025 93.3788 42.5982 92.0128 43.182C91.3265 43.4753 90.576 43.3691 89.9986 43.2439C89.9327 43.2311 89.865 43.2543 89.8207 43.3048C89.5751 43.5354 89.2512 43.6645 88.9143 43.6661C88.7079 43.6752 88.4914 43.961 88.2297 44.3336C88.1703 44.4182 88.101 44.5169 88.051 44.5769L88.0443 44.4616L87.9276 44.5903C87.327 45.2522 87.3768 46.2757 88.0388 46.8763C88.2167 47.0377 88.4283 47.1575 88.6582 47.2269C88.8658 47.2822 89.0785 47.3161 89.293 47.3281C89.4229 47.3398 89.5573 47.3519 89.6861 47.3742C90.5269 47.5464 91.2154 48.1476 91.4993 48.9576C91.6182 49.2893 91.9835 49.4618 92.3153 49.3429C92.3674 49.3242 92.4168 49.2988 92.4624 49.2674C92.7347 49.0553 93.0935 48.99 93.4231 49.0924C93.5634 49.1704 93.6726 49.2943 93.7324 49.4433C93.8051 49.6093 93.9256 49.7499 94.0785 49.8471C94.6015 50.1168 94.6376 51.3113 94.4497 52.3072C94.2687 53.2671 93.9107 53.9614 93.5793 53.9958C93.3242 54.0222 93.295 54.0403 93.2766 54.0854L93.2601 54.1258L93.2887 54.1636C93.4296 54.2147 93.5799 54.2348 93.7292 54.2225Z" fill="#2F2E41"/>
<path d="M82.8279 51.0465L82.8134 51.0455C78.8842 50.498 74.8982 50.498 70.969 51.0455H70.9627C70.5693 51.047 70.1814 50.9534 69.832 50.7727C68.8349 50.2312 68.3837 49.0419 68.7706 47.9753C69.1951 46.8781 69.2125 45.6651 68.8196 44.5562C68.5687 43.8516 68.6608 43.0703 69.0687 42.4434C69.4486 41.8515 70.0862 41.4742 70.788 41.4263C70.8432 41.4226 70.8985 41.4207 70.9545 41.4207C74.8761 42.1109 78.8881 42.1114 82.8099 41.4222H82.8148C83.5988 41.4194 84.3365 41.7928 84.7985 42.4262C85.1866 42.9822 85.3058 43.6826 85.1236 44.3358C84.8211 45.5128 84.8355 46.7838 85.1677 48.2213C85.2883 48.7243 85.228 49.2535 84.9975 49.7165C84.5837 50.5341 83.7443 51.0487 82.8279 51.0465Z" fill="#798BC8"/>
<path d="M87.8645 63.7309L90.093 60.2859C88.5821 58.0769 83.2342 55.0744 83.2342 55.0744L76.3183 47.5098C76.1543 46.5229 75.2213 45.8559 74.2344 46.0199C73.2475 46.184 72.5805 47.117 72.7445 48.1038C72.851 48.7443 73.292 49.2788 73.9006 49.5049L81.1552 60.035L87.8645 63.7309H87.8645Z" fill="#FFB8B8"/>
<path d="M98.3754 67.8638C97.0541 69.8563 94.3677 70.4004 92.3753 69.0791C92.152 68.931 91.9429 68.7625 91.7508 68.5758L89.893 66.7704C89.893 66.7704 82.1055 62.7041 80.9688 60.21L75.8662 52.9724L79.2876 49.886L85.2344 55.292C85.2344 55.292 87.9723 58.4581 89.9256 58.5098C91.1218 58.5415 94.56 60.1552 97.1711 61.8708C99.1579 63.1897 99.6993 65.8694 98.3805 67.8562L98.3754 67.8638Z" fill="#3F3D56"/>
<path d="M46.4978 139.316L46.4833 139.315C42.5542 138.767 38.5681 138.767 34.639 139.315H34.6326C34.2392 139.316 33.8513 139.222 33.5019 139.042C32.5048 138.5 32.0536 137.311 32.4405 136.244C32.8651 135.147 32.8825 133.934 32.4896 132.825C32.2386 132.121 32.3307 131.339 32.7387 130.712C33.1185 130.121 33.7562 129.743 34.4579 129.695C34.5131 129.692 34.5685 129.69 34.6244 129.69C38.5461 130.38 42.558 130.38 46.4798 129.691H46.4847C47.2687 129.688 48.0064 130.062 48.4684 130.695C48.8565 131.251 48.9757 131.952 48.7935 132.605C48.4911 133.782 48.5054 135.053 48.8377 136.49C48.9582 136.993 48.8979 137.523 48.6674 137.986C48.2536 138.803 47.4142 139.318 46.4978 139.316H46.4978Z" fill="#798BC8"/>
<path d="M49.8455 130.527L49.831 130.526C45.9018 129.978 41.9157 129.978 37.9866 130.526H37.9803C37.5869 130.527 37.199 130.434 36.8496 130.253C35.8525 129.711 35.4013 128.522 35.7882 127.456C36.2127 126.358 36.2301 125.145 35.8372 124.036C35.5862 123.332 35.6784 122.551 36.0863 121.924C36.4662 121.332 37.1038 120.954 37.8056 120.906C37.8607 120.903 37.9161 120.901 37.9721 120.901C41.8937 121.591 45.9057 121.592 49.8275 120.902H49.8324C50.6163 120.9 51.3541 121.273 51.816 121.906C52.2042 122.462 52.3234 123.163 52.1412 123.816C51.8387 124.993 51.853 126.264 52.1853 127.702C52.3059 128.204 52.2456 128.734 52.0151 129.197C51.6012 130.014 50.7619 130.529 49.8455 130.527H49.8455Z" fill="#798BC8"/>
<path d="M20.5467 132.922L20.5556 132.911C23.2107 129.963 25.4441 126.662 27.1923 123.101L27.1958 123.095C27.415 122.769 27.7099 122.5 28.0553 122.312C29.0625 121.789 30.3004 122.082 30.9671 123C31.638 123.966 32.6329 124.661 33.7716 124.956C34.4958 125.143 35.0913 125.657 35.3819 126.347C35.6594 126.993 35.6146 127.732 35.2611 128.341C35.2332 128.388 35.2038 128.435 35.1724 128.482C32.4033 131.343 30.1549 134.666 28.5283 138.3L28.5256 138.304C28.0886 138.955 27.366 139.357 26.5825 139.385C25.9045 139.395 25.2576 139.101 24.8187 138.584C24.0132 137.674 22.9525 136.974 21.5756 136.444C21.0915 136.262 20.6869 135.915 20.4326 135.465C19.9873 134.664 20.0314 133.68 20.5467 132.922Z" fill="#798BC8"/>
<path d="M157.341 139.635L0.658994 139.699C0.521388 139.698 0.410416 139.586 0.411136 139.448C0.411848 139.312 0.522403 139.201 0.658994 139.201L157.341 139.136C157.479 139.137 157.59 139.249 157.589 139.387C157.588 139.523 157.478 139.634 157.341 139.635Z" fill="#CACACA"/>
<path d="M33.9454 11.2807C34.9227 11.2807 35.715 10.4708 35.715 9.47165C35.715 8.47254 34.9227 7.6626 33.9454 7.6626C32.9681 7.6626 32.1758 8.47254 32.1758 9.47165C32.1758 10.4708 32.9681 11.2807 33.9454 11.2807Z" fill="#3F3D56"/>
<path d="M40.0587 11.2807C41.036 11.2807 41.8283 10.4708 41.8283 9.47165C41.8283 8.47254 41.036 7.6626 40.0587 7.6626C39.0813 7.6626 38.2891 8.47254 38.2891 9.47165C38.2891 10.4708 39.0813 11.2807 40.0587 11.2807Z" fill="#3F3D56"/>
<path d="M46.172 11.2807C47.1493 11.2807 47.9416 10.4708 47.9416 9.47165C47.9416 8.47254 47.1493 7.6626 46.172 7.6626C45.1946 7.6626 44.4023 8.47254 44.4023 9.47165C44.4023 10.4708 45.1946 11.2807 46.172 11.2807Z" fill="#3F3D56"/>
<path d="M53.1426 10.9015C53.0882 10.9015 53.034 10.8805 52.993 10.8386L51.799 9.61797C51.7194 9.53664 51.7194 9.40667 51.799 9.32533L52.993 8.10483C53.074 8.02227 53.2066 8.02094 53.2889 8.10156C53.3716 8.18238 53.373 8.31491 53.2922 8.39747L52.2413 9.47165L53.2922 10.5459C53.373 10.6285 53.3716 10.761 53.2889 10.8418C53.2482 10.8817 53.1954 10.9015 53.1426 10.9015Z" fill="#3F3D56"/>
<path d="M55.1487 10.9014C55.0959 10.9014 55.0431 10.8816 55.0024 10.8418C54.9197 10.7609 54.9183 10.6285 54.9991 10.5458L56.0499 9.47156L54.9991 8.39737C54.9183 8.31482 54.9197 8.18229 55.0024 8.10147C55.0849 8.02055 55.2175 8.02208 55.2983 8.10474L56.4922 9.32524C56.5718 9.40657 56.5718 9.53654 56.4922 9.61788L55.2983 10.8385C55.2573 10.8804 55.2031 10.9014 55.1487 10.9014Z" fill="#3F3D56"/>
<path d="M117.615 7.87207H115.395C115.142 7.87207 114.937 8.07714 114.937 8.33035V10.5527C114.937 10.8059 115.142 11.0109 115.395 11.0109H117.615C117.868 11.0109 118.075 10.8059 118.075 10.5527V8.33035C118.075 8.07714 117.868 7.87207 117.615 7.87207Z" fill="#3F3D56"/>
<path d="M112.174 7.87207H109.953C109.7 7.87207 109.495 8.07714 109.495 8.33035V10.5527C109.495 10.8059 109.7 11.0109 109.953 11.0109H112.174C112.427 11.0109 112.634 10.8059 112.634 10.5527V8.33035C112.634 8.07714 112.427 7.87207 112.174 7.87207Z" fill="#3F3D56"/>
<path d="M122.741 7.97656H120.521C120.268 7.97656 120.062 8.18163 120.062 8.43484V10.6572C120.062 10.9104 120.268 11.1154 120.521 11.1154H122.741C122.994 11.1154 123.201 10.9104 123.201 10.6572V8.43484C123.201 8.18163 122.994 7.97656 122.741 7.97656Z" fill="#3F3D56"/>
<path d="M89.2766 8.82202H71.5294C71.2197 8.82202 70.9707 9.07313 70.9707 9.38075C70.9707 9.68836 71.2197 9.93946 71.5294 9.93946H89.2766C89.5842 9.93946 89.8353 9.68835 89.8353 9.38075C89.8353 9.07315 89.5842 8.82202 89.2766 8.82202Z" fill="#3F3D56"/>
</g>
<defs>
<clipPath id="clip0_1369_6205">
<rect width="157.178" height="140" fill="white" transform="translate(0.411133)"/>
</clipPath>
</defs>
</svg>
