<svg width="260" height="194" viewBox="0 0 260 194" fill="none" xmlns="http://www.w3.org/2000/svg">
<g clip-path="url(#clip0_1369_6114)">
<g opacity="0.3">
<path d="M179.419 107.687H151.881C150.906 107.687 150.115 108.479 150.115 109.455V115.32C150.115 116.296 150.906 117.088 151.881 117.088H179.419C180.394 117.088 181.185 116.296 181.185 115.32V109.455C181.185 108.479 180.394 107.687 179.419 107.687Z" fill="#F2F2F2"/>
<path d="M211.933 117.088H184.396C183.42 117.088 182.63 117.879 182.63 118.855V124.721C182.63 125.697 183.42 126.488 184.396 126.488H211.933C212.909 126.488 213.699 125.697 213.699 124.721V118.855C213.699 117.879 212.909 117.088 211.933 117.088Z" fill="#F2F2F2"/>
<path d="M244.45 126.491H216.912C215.937 126.491 215.146 127.282 215.146 128.258V134.124C215.146 135.1 215.937 135.891 216.912 135.891H244.45C245.425 135.891 246.216 135.1 246.216 134.124V128.258C246.216 127.282 245.425 126.491 244.45 126.491Z" fill="#F2F2F2"/>
<path d="M179.419 93.5842H151.881C150.906 93.5842 150.115 94.3755 150.115 95.3516V101.217C150.115 102.193 150.906 102.985 151.881 102.985H179.419C180.394 102.985 181.185 102.193 181.185 101.217V95.3516C181.185 94.3755 180.394 93.5842 179.419 93.5842Z" fill="#F2F2F2"/>
<path d="M211.933 102.987H184.396C183.42 102.987 182.63 103.778 182.63 104.754V110.62C182.63 111.596 183.42 112.388 184.396 112.388H211.933C212.909 112.388 213.699 111.596 213.699 110.62V104.754C213.699 103.778 212.909 102.987 211.933 102.987Z" fill="#F2F2F2"/>
<path d="M244.45 112.387H216.912C215.937 112.387 215.146 113.179 215.146 114.155V120.021C215.146 120.997 215.937 121.788 216.912 121.788H244.45C245.425 121.788 246.216 120.997 246.216 120.021V114.155C246.216 113.179 245.425 112.387 244.45 112.387Z" fill="#F2F2F2"/>
<path d="M179.419 74.7832H151.881C150.906 74.7832 150.115 75.5745 150.115 76.5505V82.4163C150.115 83.3924 150.906 84.1837 151.881 84.1837H179.419C180.394 84.1837 181.185 83.3924 181.185 82.4163V76.5505C181.185 75.5745 180.394 74.7832 179.419 74.7832Z" fill="#F2F2F2"/>
<path d="M211.933 84.1838H184.396C183.42 84.1838 182.63 84.9751 182.63 85.9512V91.817C182.63 92.793 183.42 93.5843 184.396 93.5843H211.933C212.909 93.5843 213.699 92.793 213.699 91.817V85.9512C213.699 84.9751 212.909 84.1838 211.933 84.1838Z" fill="#F2F2F2"/>
<path d="M244.45 93.5842H216.912C215.937 93.5842 215.146 94.3755 215.146 95.3516V101.217C215.146 102.193 215.937 102.985 216.912 102.985H244.45C245.425 102.985 246.216 102.193 246.216 101.217V95.3516C246.216 94.3755 245.425 93.5842 244.45 93.5842Z" fill="#F2F2F2"/>
<path d="M179.419 60.6802H151.881C150.906 60.6802 150.115 61.4714 150.115 62.4475V68.3133C150.115 69.2894 150.906 70.0807 151.881 70.0807H179.419C180.394 70.0807 181.185 69.2894 181.185 68.3133V62.4475C181.185 61.4714 180.394 60.6802 179.419 60.6802Z" fill="#F2F2F2"/>
<path d="M211.933 70.0806H184.396C183.42 70.0806 182.63 70.8718 182.63 71.8479V77.7137C182.63 78.6898 183.42 79.481 184.396 79.481H211.933C212.909 79.481 213.699 78.6898 213.699 77.7137V71.8479C213.699 70.8718 212.909 70.0806 211.933 70.0806Z" fill="#F2F2F2"/>
<path d="M244.45 79.4834H216.912C215.937 79.4834 215.146 80.2747 215.146 81.2508V87.1165C215.146 88.0926 215.937 88.8839 216.912 88.8839H244.45C245.425 88.8839 246.216 88.0926 246.216 87.1165V81.2508C246.216 80.2747 245.425 79.4834 244.45 79.4834Z" fill="#F2F2F2"/>
<path opacity="0.1" d="M179.419 107.687H151.881C150.906 107.687 150.115 108.479 150.115 109.455V115.32C150.115 116.296 150.906 117.088 151.881 117.088H179.419C180.394 117.088 181.185 116.296 181.185 115.32V109.455C181.185 108.479 180.394 107.687 179.419 107.687Z" fill="#4C63B6"/>
<path opacity="0.1" d="M211.933 117.088H184.396C183.42 117.088 182.63 117.879 182.63 118.855V124.721C182.63 125.697 183.42 126.488 184.396 126.488H211.933C212.909 126.488 213.699 125.697 213.699 124.721V118.855C213.699 117.879 212.909 117.088 211.933 117.088Z" fill="#4C63B6"/>
<path opacity="0.1" d="M244.45 126.491H216.912C215.937 126.491 215.146 127.282 215.146 128.258V134.124C215.146 135.1 215.937 135.891 216.912 135.891H244.45C245.425 135.891 246.216 135.1 246.216 134.124V128.258C246.216 127.282 245.425 126.491 244.45 126.491Z" fill="#4C63B6"/>
<path opacity="0.1" d="M179.419 93.5842H151.881C150.906 93.5842 150.115 94.3755 150.115 95.3516V101.217C150.115 102.193 150.906 102.985 151.881 102.985H179.419C180.394 102.985 181.185 102.193 181.185 101.217V95.3516C181.185 94.3755 180.394 93.5842 179.419 93.5842Z" fill="#4C63B6"/>
<path opacity="0.1" d="M211.933 102.987H184.396C183.42 102.987 182.63 103.778 182.63 104.754V110.62C182.63 111.596 183.42 112.388 184.396 112.388H211.933C212.909 112.388 213.699 111.596 213.699 110.62V104.754C213.699 103.778 212.909 102.987 211.933 102.987Z" fill="#4C63B6"/>
<path opacity="0.1" d="M244.45 112.387H216.912C215.937 112.387 215.146 113.179 215.146 114.155V120.021C215.146 120.997 215.937 121.788 216.912 121.788H244.45C245.425 121.788 246.216 120.997 246.216 120.021V114.155C246.216 113.179 245.425 112.387 244.45 112.387Z" fill="#4C63B6"/>
<path opacity="0.1" d="M179.419 74.7832H151.881C150.906 74.7832 150.115 75.5745 150.115 76.5505V82.4163C150.115 83.3924 150.906 84.1837 151.881 84.1837H179.419C180.394 84.1837 181.185 83.3924 181.185 82.4163V76.5505C181.185 75.5745 180.394 74.7832 179.419 74.7832Z" fill="#4C63B6"/>
<path opacity="0.1" d="M211.933 84.1838H184.396C183.42 84.1838 182.63 84.9751 182.63 85.9512V91.817C182.63 92.793 183.42 93.5843 184.396 93.5843H211.933C212.909 93.5843 213.699 92.793 213.699 91.817V85.9512C213.699 84.9751 212.909 84.1838 211.933 84.1838Z" fill="#4C63B6"/>
<path opacity="0.1" d="M244.45 93.5842H216.912C215.937 93.5842 215.146 94.3755 215.146 95.3516V101.217C215.146 102.193 215.937 102.985 216.912 102.985H244.45C245.425 102.985 246.216 102.193 246.216 101.217V95.3516C246.216 94.3755 245.425 93.5842 244.45 93.5842Z" fill="#4C63B6"/>
<path opacity="0.1" d="M179.419 60.6802H151.881C150.906 60.6802 150.115 61.4714 150.115 62.4475V68.3133C150.115 69.2894 150.906 70.0807 151.881 70.0807H179.419C180.394 70.0807 181.185 69.2894 181.185 68.3133V62.4475C181.185 61.4714 180.394 60.6802 179.419 60.6802Z" fill="#4C63B6"/>
<path opacity="0.1" d="M211.933 70.0806H184.396C183.42 70.0806 182.63 70.8718 182.63 71.8479V77.7137C182.63 78.6898 183.42 79.481 184.396 79.481H211.933C212.909 79.481 213.699 78.6898 213.699 77.7137V71.8479C213.699 70.8718 212.909 70.0806 211.933 70.0806Z" fill="#4C63B6"/>
<path opacity="0.1" d="M244.45 79.4834H216.912C215.937 79.4834 215.146 80.2747 215.146 81.2508V87.1165C215.146 88.0926 215.937 88.8839 216.912 88.8839H244.45C245.425 88.8839 246.216 88.0926 246.216 87.1165V81.2508C246.216 80.2747 245.425 79.4834 244.45 79.4834Z" fill="#4C63B6"/>
</g>
<g opacity="0.3">
<path d="M57.7371 47.5071H30.1994C29.2242 47.5071 28.4336 48.2984 28.4336 49.2744V55.1402C28.4336 56.1163 29.2242 56.9076 30.1994 56.9076H57.7371C58.7123 56.9076 59.5029 56.1163 59.5029 55.1402V49.2744C59.5029 48.2984 58.7123 47.5071 57.7371 47.5071Z" fill="#F2F2F2"/>
<path d="M90.2517 56.9077H62.7141C61.7388 56.9077 60.9482 57.699 60.9482 58.6751V64.5408C60.9482 65.5169 61.7388 66.3082 62.7141 66.3082H90.2517C91.2269 66.3082 92.0175 65.5169 92.0175 64.5408V58.6751C92.0175 57.699 91.2269 56.9077 90.2517 56.9077Z" fill="#F2F2F2"/>
<path d="M122.768 66.3105H95.2307C94.2554 66.3105 93.4648 67.1018 93.4648 68.0779V73.9437C93.4648 74.9198 94.2554 75.711 95.2307 75.711H122.768C123.744 75.711 124.534 74.9198 124.534 73.9437V68.0779C124.534 67.1018 123.744 66.3105 122.768 66.3105Z" fill="#F2F2F2"/>
<path d="M57.7371 33.4041H30.1994C29.2242 33.4041 28.4336 34.1953 28.4336 35.1714V41.0372C28.4336 42.0133 29.2242 42.8045 30.1994 42.8045H57.7371C58.7123 42.8045 59.5029 42.0133 59.5029 41.0372V35.1714C59.5029 34.1953 58.7123 33.4041 57.7371 33.4041Z" fill="#F2F2F2"/>
<path d="M90.2517 42.8069H62.7141C61.7388 42.8069 60.9482 43.5982 60.9482 44.5742V50.44C60.9482 51.4161 61.7388 52.2074 62.7141 52.2074H90.2517C91.2269 52.2074 92.0175 51.4161 92.0175 50.44V44.5742C92.0175 43.5982 91.2269 42.8069 90.2517 42.8069Z" fill="#F2F2F2"/>
<path d="M122.768 52.2073H95.2307C94.2554 52.2073 93.4648 52.9985 93.4648 53.9746V59.8404C93.4648 60.8165 94.2554 61.6078 95.2307 61.6078H122.768C123.744 61.6078 124.534 60.8165 124.534 59.8404V53.9746C124.534 52.9985 123.744 52.2073 122.768 52.2073Z" fill="#F2F2F2"/>
<path d="M57.7371 14.603H30.1994C29.2242 14.603 28.4336 15.3943 28.4336 16.3704V22.2362C28.4336 23.2122 29.2242 24.0035 30.1994 24.0035H57.7371C58.7123 24.0035 59.5029 23.2122 59.5029 22.2362V16.3704C59.5029 15.3943 58.7123 14.603 57.7371 14.603Z" fill="#F2F2F2"/>
<path d="M90.2517 24.0037H62.7141C61.7388 24.0037 60.9482 24.7949 60.9482 25.771V31.6368C60.9482 32.6129 61.7388 33.4041 62.7141 33.4041H90.2517C91.2269 33.4041 92.0175 32.6129 92.0175 31.6368V25.771C92.0175 24.7949 91.2269 24.0037 90.2517 24.0037Z" fill="#F2F2F2"/>
<path d="M122.768 33.4041H95.2307C94.2554 33.4041 93.4648 34.1953 93.4648 35.1714V41.0372C93.4648 42.0133 94.2554 42.8045 95.2307 42.8045H122.768C123.744 42.8045 124.534 42.0133 124.534 41.0372V35.1714C124.534 34.1953 123.744 33.4041 122.768 33.4041Z" fill="#F2F2F2"/>
<path d="M57.7371 0.5H30.1994C29.2242 0.5 28.4336 1.29127 28.4336 2.26735V8.13313C28.4336 9.10921 29.2242 9.90048 30.1994 9.90048H57.7371C58.7123 9.90048 59.5029 9.10921 59.5029 8.13313V2.26735C59.5029 1.29127 58.7123 0.5 57.7371 0.5Z" fill="#F2F2F2"/>
<path d="M90.2517 9.90039H62.7141C61.7388 9.90039 60.9482 10.6917 60.9482 11.6677V17.5335C60.9482 18.5096 61.7388 19.3009 62.7141 19.3009H90.2517C91.2269 19.3009 92.0175 18.5096 92.0175 17.5335V11.6677C92.0175 10.6917 91.2269 9.90039 90.2517 9.90039Z" fill="#F2F2F2"/>
<path d="M122.768 19.3032H95.2307C94.2554 19.3032 93.4648 20.0945 93.4648 21.0706V26.9364C93.4648 27.9124 94.2554 28.7037 95.2307 28.7037H122.768C123.744 28.7037 124.534 27.9124 124.534 26.9364V21.0706C124.534 20.0945 123.744 19.3032 122.768 19.3032Z" fill="#F2F2F2"/>
<path opacity="0.1" d="M57.7371 47.5071H30.1994C29.2242 47.5071 28.4336 48.2984 28.4336 49.2744V55.1402C28.4336 56.1163 29.2242 56.9076 30.1994 56.9076H57.7371C58.7123 56.9076 59.5029 56.1163 59.5029 55.1402V49.2744C59.5029 48.2984 58.7123 47.5071 57.7371 47.5071Z" fill="#4C63B6"/>
<path opacity="0.1" d="M90.2517 56.9077H62.7141C61.7388 56.9077 60.9482 57.699 60.9482 58.6751V64.5408C60.9482 65.5169 61.7388 66.3082 62.7141 66.3082H90.2517C91.2269 66.3082 92.0175 65.5169 92.0175 64.5408V58.6751C92.0175 57.699 91.2269 56.9077 90.2517 56.9077Z" fill="#4C63B6"/>
<path opacity="0.1" d="M122.768 66.3105H95.2307C94.2554 66.3105 93.4648 67.1018 93.4648 68.0779V73.9437C93.4648 74.9198 94.2554 75.711 95.2307 75.711H122.768C123.744 75.711 124.534 74.9198 124.534 73.9437V68.0779C124.534 67.1018 123.744 66.3105 122.768 66.3105Z" fill="#4C63B6"/>
<path opacity="0.1" d="M57.7371 33.4041H30.1994C29.2242 33.4041 28.4336 34.1953 28.4336 35.1714V41.0372C28.4336 42.0133 29.2242 42.8045 30.1994 42.8045H57.7371C58.7123 42.8045 59.5029 42.0133 59.5029 41.0372V35.1714C59.5029 34.1953 58.7123 33.4041 57.7371 33.4041Z" fill="#4C63B6"/>
<path opacity="0.1" d="M90.2517 42.8069H62.7141C61.7388 42.8069 60.9482 43.5982 60.9482 44.5742V50.44C60.9482 51.4161 61.7388 52.2074 62.7141 52.2074H90.2517C91.2269 52.2074 92.0175 51.4161 92.0175 50.44V44.5742C92.0175 43.5982 91.2269 42.8069 90.2517 42.8069Z" fill="#4C63B6"/>
<path opacity="0.1" d="M122.768 52.2073H95.2307C94.2554 52.2073 93.4648 52.9985 93.4648 53.9746V59.8404C93.4648 60.8165 94.2554 61.6078 95.2307 61.6078H122.768C123.744 61.6078 124.534 60.8165 124.534 59.8404V53.9746C124.534 52.9985 123.744 52.2073 122.768 52.2073Z" fill="#4C63B6"/>
<path opacity="0.1" d="M57.7371 14.603H30.1994C29.2242 14.603 28.4336 15.3943 28.4336 16.3704V22.2362C28.4336 23.2122 29.2242 24.0035 30.1994 24.0035H57.7371C58.7123 24.0035 59.5029 23.2122 59.5029 22.2362V16.3704C59.5029 15.3943 58.7123 14.603 57.7371 14.603Z" fill="#4C63B6"/>
<path opacity="0.1" d="M90.2517 24.0037H62.7141C61.7388 24.0037 60.9482 24.7949 60.9482 25.771V31.6368C60.9482 32.6129 61.7388 33.4041 62.7141 33.4041H90.2517C91.2269 33.4041 92.0175 32.6129 92.0175 31.6368V25.771C92.0175 24.7949 91.2269 24.0037 90.2517 24.0037Z" fill="#4C63B6"/>
<path opacity="0.1" d="M122.768 33.4041H95.2307C94.2554 33.4041 93.4648 34.1953 93.4648 35.1714V41.0372C93.4648 42.0133 94.2554 42.8045 95.2307 42.8045H122.768C123.744 42.8045 124.534 42.0133 124.534 41.0372V35.1714C124.534 34.1953 123.744 33.4041 122.768 33.4041Z" fill="#4C63B6"/>
<path opacity="0.1" d="M57.7371 0.5H30.1994C29.2242 0.5 28.4336 1.29127 28.4336 2.26735V8.13313C28.4336 9.10921 29.2242 9.90048 30.1994 9.90048H57.7371C58.7123 9.90048 59.5029 9.10921 59.5029 8.13313V2.26735C59.5029 1.29127 58.7123 0.5 57.7371 0.5Z" fill="#4C63B6"/>
<path opacity="0.1" d="M90.2517 9.90039H62.7141C61.7388 9.90039 60.9482 10.6917 60.9482 11.6677V17.5335C60.9482 18.5096 61.7388 19.3009 62.7141 19.3009H90.2517C91.2269 19.3009 92.0175 18.5096 92.0175 17.5335V11.6677C92.0175 10.6917 91.2269 9.90039 90.2517 9.90039Z" fill="#4C63B6"/>
<path opacity="0.1" d="M122.768 19.3032H95.2307C94.2554 19.3032 93.4648 20.0945 93.4648 21.0706V26.9364C93.4648 27.9124 94.2554 28.7037 95.2307 28.7037H122.768C123.744 28.7037 124.534 27.9124 124.534 26.9364V21.0706C124.534 20.0945 123.744 19.3032 122.768 19.3032Z" fill="#4C63B6"/>
</g>
<g opacity="0.1">
<path d="M70.255 131.85C70.2586 133.198 70.12 134.543 69.8414 135.863C69.7892 136.101 69.7321 136.355 69.6751 136.593C68.2087 142.485 64.0663 146.795 59.1253 147.059C58.9614 147.059 58.795 147.073 58.6239 147.073C53.3954 147.073 48.9796 142.554 47.5228 136.35C47.48 136.184 47.4444 136.02 47.4087 135.853C47.1302 134.534 46.9916 133.189 46.9952 131.84C46.9952 123.422 52.1999 116.617 58.6239 116.617C65.0478 116.617 70.255 123.432 70.255 131.85Z" fill="#3F3D56"/>
<path opacity="0.1" d="M70.2542 131.85C70.2579 133.198 70.1192 134.543 69.8407 135.863C69.7884 136.101 69.7314 136.355 69.6744 136.593C69.4985 136.593 69.3274 136.593 69.1539 136.572C67.8743 136.501 66.6026 136.327 65.3513 136.051C64.2416 136.393 63.108 136.652 61.9599 136.826C61.0794 136.955 60.1923 137.034 59.3029 137.064C59.0034 137.064 58.704 137.081 58.4045 137.081C57.3395 137.08 56.2756 137.009 55.2199 136.869C53.5159 136.639 51.8423 136.222 50.229 135.627C49.3449 135.919 48.4441 136.157 47.5316 136.341C47.4888 136.174 47.4532 136.01 47.4175 135.844C47.139 134.524 47.0004 133.179 47.004 131.831C47.004 123.413 52.2087 116.607 58.6327 116.607C65.0566 116.607 70.2542 123.432 70.2542 131.85Z" fill="black"/>
<path d="M95.0643 103.465C95.0693 99.7618 94.2022 96.1094 92.5332 92.8041L78.8559 97.0595L90.8601 89.9949C88.8474 87.0828 86.2066 84.6605 83.1329 82.907C80.0593 81.1535 76.6313 80.1136 73.1022 79.8641C72.5414 79.011 71.9262 78.195 71.2603 77.4213L51.5987 83.5416L67.7097 74.0602C64.6284 71.6973 61.0131 70.1302 57.1832 69.4972C53.3534 68.8643 49.4267 69.185 45.75 70.4311C42.0733 71.6772 38.7598 73.8102 36.102 76.6419C33.4443 79.4735 31.5241 82.9166 30.5111 86.6671L47.3398 106.056L29.059 92.8493C24.4362 96.1311 21.1451 100.966 19.7853 106.473C18.4255 111.98 19.0875 117.792 21.6507 122.851C24.2139 127.911 28.5076 131.88 33.7498 134.037C38.992 136.193 44.8337 136.393 50.2108 134.6C55.0788 136.389 60.398 136.535 65.3568 135.016C68.8119 135.78 72.3943 135.759 75.8401 134.954C79.2859 134.148 82.5072 132.579 85.2667 130.363C88.0263 128.146 90.2536 125.337 91.7848 122.145C93.3159 118.952 94.1117 115.456 94.1137 111.914C94.1137 111.389 94.0947 110.868 94.0614 110.349C94.7328 108.116 95.0707 105.797 95.0643 103.465Z" fill="#4C63B6"/>
<path opacity="0.1" d="M94.6576 107.854C87.4344 106.483 80.0272 106.389 72.7715 107.576C64.5603 108.936 56.1662 111.926 48.1333 109.74C43.4205 108.456 39.3399 105.487 34.7411 103.841C30.2986 102.285 25.5113 101.996 20.9141 103.006C19.1606 107.201 18.651 111.812 19.4464 116.288C20.2417 120.765 22.3082 124.917 25.3989 128.249C28.4896 131.582 32.4737 133.952 36.8749 135.079C41.2761 136.205 45.9082 136.038 50.2176 134.6C55.0835 136.387 60.3998 136.533 65.3565 135.016C68.8116 135.78 72.394 135.759 75.8398 134.954C79.2855 134.148 82.5069 132.579 85.2664 130.363C88.0259 128.146 90.2533 125.337 91.7844 122.145C93.3156 118.952 94.1114 115.456 94.1133 111.914C94.1133 111.389 94.0943 110.868 94.0611 110.349C94.3053 109.529 94.5044 108.696 94.6576 107.854Z" fill="black"/>
</g>
<path opacity="0.1" d="M130 190.579C201.797 190.579 260 179.983 260 166.911C260 153.84 201.797 143.244 130 143.244C58.203 143.244 0 153.84 0 166.911C0 179.983 58.203 190.579 130 190.579Z" fill="#4C63B6"/>
<path d="M172.703 169.64C172.878 168.924 173.225 168.262 173.714 167.712C174.203 167.161 174.818 166.739 175.508 166.481C176.197 166.223 176.939 166.137 177.669 166.232C178.398 166.326 179.094 166.598 179.695 167.023L179.88 167.159C183.856 170.142 181.496 175.612 179.88 175.736C178.264 175.86 175.156 175.993 175.156 175.993C175.156 175.993 171.493 174.48 172.703 169.64Z" fill="#192534"/>
<path d="M208.575 165.922V166.916C208.575 166.916 192.414 168.034 190.689 168.034H187.459C187.459 168.034 187.411 168.084 187.333 168.174C187.2 168.324 186.974 168.588 186.725 168.916C186.216 169.578 185.61 170.501 185.47 171.267C185.232 172.634 184.353 173.131 184.353 173.131L181.123 172.263L178.007 168.533L177.553 168.096L176.26 166.861L175.155 165.803L175.21 165.208V165.118C175.474 163.84 175.812 162.579 176.222 161.34C176.222 161.307 176.244 161.271 176.256 161.238C177.152 158.545 178.646 155.275 180.8 154.302C180.964 154.228 181.135 154.157 181.318 154.093L181.536 154.016C185.667 152.632 193.472 153.182 193.472 153.182C193.472 153.182 199.432 154.923 199.931 155.67C200.43 156.417 206.08 162.568 206.08 162.568C206.575 162.942 207.032 163.365 207.444 163.831C207.974 164.418 208.466 165.158 208.575 165.922Z" fill="#4C63B6"/>
<path opacity="0.1" d="M174.664 174.128C175.624 174.128 176.403 172.903 176.403 171.393C176.403 169.882 175.624 168.657 174.664 168.657C173.703 168.657 172.924 169.882 172.924 171.393C172.924 172.903 173.703 174.128 174.664 174.128Z" fill="white"/>
<path opacity="0.1" d="M181.869 155.23C181.869 155.23 180.443 157.418 178.936 160.225C178.936 160.232 178.936 160.239 178.936 160.246C178.535 160.993 178.126 161.78 177.736 162.587L177.72 162.625C177.72 162.625 176.895 161.971 176.246 161.333C176.246 161.3 176.267 161.264 176.279 161.231C177.175 158.538 178.67 155.268 180.823 154.295C180.987 154.221 181.159 154.15 181.342 154.085L181.869 155.23Z" fill="black"/>
<path opacity="0.1" d="M177.646 162.565C177.646 162.565 186.466 165.182 188.203 164.057C188.203 164.057 188.826 156.1 184.726 155.603C184.726 155.603 182.366 154.98 181.874 155.365C181.383 155.751 177.646 162.565 177.646 162.565Z" fill="white"/>
<path opacity="0.1" d="M189.073 156.721C189.073 156.721 190.813 163.31 192.056 163.436C193.299 163.562 205.84 163.31 205.346 162.439C204.851 161.569 199.383 155.977 199.383 155.977L189.073 156.721Z" fill="white"/>
<path d="M186.939 168.643C186.939 168.643 189.197 165.672 193.173 168.657C197.149 171.642 194.786 177.111 193.173 177.235C191.559 177.358 188.465 177.484 188.465 177.484C188.465 177.484 183.562 175.467 186.939 168.643Z" fill="#192534"/>
<path d="M210.389 169.399C210.223 168.93 209.962 168.5 209.622 168.136C209.282 167.773 208.871 167.484 208.414 167.287C207.956 167.091 207.464 166.992 206.966 166.996C206.469 167 205.978 167.107 205.524 167.311C205.08 167.52 204.659 167.776 204.269 168.074C200.73 170.729 202.843 175.598 204.269 175.71C204.784 175.748 205.471 175.788 206.139 175.824C206.823 175.86 207.506 175.737 208.134 175.465C208.762 175.192 209.319 174.778 209.759 174.253C210.2 173.729 210.514 173.109 210.675 172.443C210.836 171.777 210.84 171.083 210.688 170.415C210.607 170.071 210.507 169.732 210.389 169.399Z" fill="#192534"/>
<path opacity="0.1" d="M187.955 175.62C188.916 175.62 189.695 174.395 189.695 172.884C189.695 171.373 188.916 170.149 187.955 170.149C186.995 170.149 186.216 171.373 186.216 172.884C186.216 174.395 186.995 175.62 187.955 175.62Z" fill="white"/>
<path opacity="0.1" d="M192.8 167.663C192.8 167.663 192.562 164.057 196.403 165.548C200.243 167.04 197.769 168.657 197.769 168.657L192.8 167.663Z" fill="white"/>
<path opacity="0.1" d="M208.575 165.922V166.419L207.955 166.657L206.688 166.419C206.688 166.419 206.417 164.383 207.456 163.802C207.974 164.419 208.466 165.158 208.575 165.922Z" fill="white"/>
<path opacity="0.1" d="M208.575 165.946V166.916C208.575 166.916 192.414 168.034 190.689 168.034H190.674C189.781 167.558 188.887 167.347 188.136 167.663C187.908 167.758 187.693 167.882 187.497 168.034C187.44 168.079 187.385 168.127 187.333 168.174C187.096 168.392 186.891 168.642 186.725 168.917C185.612 170.717 185.85 173.505 185.85 173.505C182.62 174.499 179.267 171.89 179.267 171.89C178.658 170.063 178.09 168.871 177.57 168.084C177.095 167.37 176.662 167.021 176.277 166.85L175.155 165.803L175.21 165.208L184.224 171.769C184.224 171.769 185.094 166.174 187.076 166.547C189.058 166.921 193.039 166.921 193.039 166.921L208.575 165.946Z" fill="black"/>
<path d="M174.664 165.175C174.664 165.175 173.917 167.04 174.664 167.166C175.41 167.292 177.085 165.739 179.26 172.263C179.26 172.263 182.613 174.88 185.843 173.878C185.843 173.878 185.458 169.154 188.137 168.034C190.815 166.914 195.283 172.511 195.283 172.511V173.755L205.842 172.634C205.842 172.634 209.072 170.149 208.949 166.295L193.049 167.289C193.049 167.289 189.073 167.289 187.086 166.916C185.099 166.543 184.234 172.149 184.234 172.149L174.664 165.175Z" fill="#4C63B6"/>
<path d="M129.948 131.172H129.946C126.276 131.172 123.301 134.15 123.301 137.823V137.825C123.301 141.498 126.276 144.476 129.946 144.476H129.948C133.618 144.476 136.593 141.498 136.593 137.825V137.823C136.593 134.15 133.618 131.172 129.948 131.172Z" fill="#192534"/>
<path d="M126.466 154.942C127.358 154.159 128.263 153.363 128.905 152.366C129.494 151.452 129.841 150.408 130.167 149.371C131.097 146.407 131.898 143.406 132.57 140.368C128.912 139.809 126.181 136.576 122.605 135.627C122.519 135.603 119.783 152.054 119.584 153.558C119.42 154.799 118.003 160.729 119.617 160.763C120.48 160.782 122.281 158.622 122.918 158.053L126.466 154.942Z" fill="#3F3D56"/>
<path opacity="0.1" d="M126.466 154.942C127.358 154.159 128.263 153.363 128.905 152.366C129.494 151.452 129.841 150.408 130.167 149.371C131.097 146.407 131.898 143.406 132.57 140.368C128.912 139.809 126.181 136.576 122.605 135.627C122.519 135.603 119.783 152.054 119.584 153.558C119.42 154.799 118.003 160.729 119.617 160.763C120.48 160.782 122.281 158.622 122.918 158.053L126.466 154.942Z" fill="black"/>
<path d="M81.2652 113.434C80.8611 113.496 80.4334 113.527 80.1006 113.762C79.6253 114.095 79.5041 114.714 79.2783 115.252C78.9818 115.941 78.4797 116.523 77.8405 116.917C77.2962 117.25 76.6332 117.473 76.3076 118.02C76.1236 118.389 76.0361 118.798 76.0533 119.21C76.0104 120.428 76.0652 121.649 76.2173 122.858C76.2933 123.465 76.3931 124.083 76.2672 124.681C76.1222 125.377 75.6849 125.97 75.269 126.548C74.2708 127.93 73.2941 129.447 73.2132 131.15C73.1728 132.007 73.363 132.885 73.1467 133.715C72.7641 135.187 71.205 136.148 70.9008 137.637C70.8105 138.077 70.8343 138.543 70.6632 138.955C70.3637 139.668 69.539 140.059 69.3275 140.794C69.1683 141.345 69.4012 141.928 69.4178 142.501C69.4416 143.341 69.0019 144.117 68.5789 144.84L66.1048 149.05C65.3015 150.415 64.4792 151.842 64.3438 153.422C64.2226 154.823 64.6575 156.21 65.1352 157.532C66.1975 160.47 67.7756 163.581 70.6869 164.711C72.4004 165.377 74.3089 165.234 76.1412 165.082C78.6509 164.875 81.1772 164.663 83.599 163.976C84.7992 163.636 85.9756 163.182 87.1876 162.939C87.9957 162.78 88.8251 162.701 89.6047 162.442C90.447 162.139 91.1924 161.614 91.7627 160.924C92.333 160.233 92.7073 159.402 92.8463 158.517C93.8825 158.926 94.8427 157.566 94.6953 156.462C94.548 155.358 93.8065 154.423 93.507 153.353C93.0792 151.876 93.507 150.273 94.22 148.912C94.933 147.551 95.9169 146.348 96.694 145.023C97.5599 143.54 98.1614 141.917 98.4717 140.227C98.8877 137.946 98.7617 135.603 98.6334 133.289L98.1438 124.443C98.0535 122.823 97.9513 121.151 97.2383 119.685C96.4564 118.089 95.0304 116.919 93.6068 115.856C91.506 114.256 89.303 112.796 87.0118 111.484C85.5335 110.656 85.6381 110.977 84.4617 111.959C83.5505 112.734 82.4451 113.244 81.2652 113.434Z" fill="#3F3D56"/>
<path d="M101.243 138.046C99.5627 139.373 97.8611 140.72 96.5682 142.428C95.0066 144.504 94.1205 147.011 94.03 149.609C94.015 150.824 94.1 152.039 94.2843 153.241C94.5386 155.203 94.9973 157.389 96.649 158.474C97.69 159.157 99.1207 159.328 99.8313 160.351C100.055 160.672 100.185 161.064 100.447 161.347C100.922 161.861 101.664 161.973 102.348 162.011C103.371 162.069 104.397 162.037 105.414 161.916C106.576 161.776 107.757 161.521 108.908 161.74C111.146 162.161 112.817 164.276 115.087 164.559C116.971 164.797 118.737 163.7 120.315 162.656C121.943 161.578 123.642 160.425 124.524 158.681C125.382 156.987 125.335 154.994 125.268 153.094C125.194 150.984 125.118 148.848 124.555 146.811C124.38 146.279 124.246 145.733 124.153 145.18C123.985 143.753 124.629 142.349 125.104 140.984C125.843 138.907 126.166 136.348 124.698 134.706C124.077 134.012 123.215 133.584 122.34 133.279C118.478 131.89 114.214 132.418 110.253 133.041C106.472 133.615 104.209 135.708 101.243 138.046Z" fill="#3F3D56"/>
<path d="M133.993 129.826C132.462 132.126 130.927 134.443 129.822 136.962C129.068 138.79 128.433 140.665 127.921 142.575C126.395 147.853 124.881 153.246 121.834 157.815C121.397 158.472 120.912 159.155 120.867 159.942C120.824 160.679 121.176 161.369 121.516 162.026C122.229 163.415 122.975 164.818 123.992 166.012C125.009 167.206 126.226 168.11 127.452 169.033C129.998 170.936 132.826 172.953 136.008 172.81C136.666 172.78 137.37 172.627 137.81 172.135C138.249 171.643 138.311 170.962 138.233 170.329C137.995 168.372 136.521 166.833 135.186 165.382C133.85 163.931 132.507 162.235 132.614 160.256C132.698 158.622 133.767 157.228 134.791 155.953C135.963 154.492 137.137 153.034 138.242 151.524C143.021 144.994 146.472 137.571 149.208 129.952C150.36 126.736 151.409 123.358 151.05 119.961C148.435 119.319 143.207 117.173 140.999 119.388C139.661 120.73 138.715 122.718 137.672 124.3L133.993 129.826Z" fill="#FBBEBE"/>
<path d="M156.066 107.492C154.41 110.384 153.114 113.467 152.207 116.674C151.986 117.449 151.788 118.268 151.957 119.053C152.14 119.895 152.713 120.587 153.145 121.329C153.578 122.071 153.882 123.011 153.49 123.777C151.636 123.922 149.799 123.415 148.007 122.913L142.389 121.343C141.923 121.254 141.487 121.051 141.117 120.753C140.466 120.137 140.516 119.103 140.642 118.218C141.742 110.972 145.276 104.293 146.6 97.0881C146.793 96.0486 146.995 94.8973 147.822 94.2337C150.198 92.3545 155.579 93.9459 156.81 96.667C158.186 99.688 157.623 104.778 156.066 107.492Z" fill="#4C63B6"/>
<path d="M125.991 82.7303C125.779 82.8397 125.542 82.9682 125.477 83.1918C125.463 83.3135 125.476 83.4369 125.514 83.5532C125.553 83.6695 125.617 83.7759 125.701 83.8649L128.099 87.2426C130.463 90.5728 132.833 93.9243 135.568 96.9618C137.633 99.2536 139.895 101.36 142.327 103.256C143.012 103.789 143.742 104.343 144.077 105.144C142.582 100.715 142.848 95.8797 144.818 91.6408C145.602 89.9757 146.639 88.432 147.454 86.7764C147.531 86.6854 147.583 86.5762 147.605 86.4591C147.627 86.3421 147.619 86.2213 147.581 86.1084C147.543 85.9955 147.477 85.8943 147.388 85.8147C147.3 85.735 147.192 85.6795 147.076 85.6537C144.999 84.5833 142.727 83.9363 140.659 82.8469C139.036 81.9905 137.57 80.8773 136.113 79.7808C134.813 78.8031 133.082 77.0762 131.478 76.6647C129.746 76.2175 129.815 77.7993 129.256 79.1195C128.614 80.6625 127.461 81.9374 125.991 82.7303Z" fill="#FBBEBE"/>
<path opacity="0.1" d="M125.991 82.7303C125.779 82.8397 125.542 82.9682 125.477 83.1918C125.463 83.3135 125.476 83.4369 125.514 83.5532C125.553 83.6695 125.617 83.7759 125.701 83.8649L128.099 87.2426C130.463 90.5728 132.833 93.9243 135.568 96.9618C137.633 99.2536 139.895 101.36 142.327 103.256C143.012 103.789 143.742 104.343 144.077 105.144C142.582 100.715 142.848 95.8797 144.818 91.6408C145.602 89.9757 146.639 88.432 147.454 86.7764C147.531 86.6854 147.583 86.5762 147.605 86.4591C147.627 86.3421 147.619 86.2213 147.581 86.1084C147.543 85.9955 147.477 85.8943 147.388 85.8147C147.3 85.735 147.192 85.6795 147.076 85.6537C144.999 84.5833 142.727 83.9363 140.659 82.8469C139.036 81.9905 137.57 80.8773 136.113 79.7808C134.813 78.8031 133.082 77.0762 131.478 76.6647C129.746 76.2175 129.815 77.7993 129.256 79.1195C128.614 80.6625 127.461 81.9374 125.991 82.7303Z" fill="black"/>
<path d="M140.695 96.1912C139.609 94.9638 138.142 94.1527 136.857 93.1346C135.008 91.6693 133.546 89.7807 132.134 87.8896C129.544 84.4097 126.932 80.1471 128.223 75.9963C126.851 75.8631 125.668 76.9906 125.021 78.2061C124.375 79.4216 124.042 80.806 123.236 81.9216C122.012 83.6176 119.931 84.4073 117.991 85.1827C113.728 86.8901 109.61 88.9384 105.676 91.3078C104.095 92.2593 102.522 93.2797 101.315 94.6736C100.022 96.1603 99.2113 98.0037 98.1134 99.6331C95.9744 102.837 92.7232 105.242 89.1156 106.603C87.9273 107.055 86.6534 107.407 85.5911 108.125C83.3143 109.664 82.366 112.732 82.9055 115.43C83.445 118.127 85.2821 120.425 87.49 122.057C89.6978 123.689 92.2123 124.652 94.76 125.603C96.8957 126.388 99.045 127.137 101.208 127.849C102.799 128.4 104.426 128.842 106.077 129.171C109.117 129.73 112.242 129.592 115.315 129.933C118.124 130.242 120.884 130.953 123.705 131.15C126.526 131.348 129.513 130.972 131.811 129.328C133.639 128.022 134.856 126.051 135.98 124.095C138.898 119.054 141.504 113.838 143.784 108.477C144.457 106.89 150.698 97.9038 149.144 96.743C141.318 90.8987 143.915 100.185 143.169 99.4714C142.171 98.5151 141.598 97.2116 140.695 96.1912Z" fill="#4C63B6"/>
<path d="M131.001 90.8154C129.32 87.4329 128.184 83.8126 127.056 80.2113C126.744 79.2123 126.43 78.1323 126.766 77.1428C127.17 75.9535 128.462 74.9378 128.082 73.7461C125.059 74.6976 121.549 76.189 120.952 79.3074C120.822 79.9877 120.845 80.7132 120.529 81.3269C119.914 82.5305 118.345 82.7874 117.012 82.992C113.133 83.6128 109.279 85.178 106.622 88.0728C106.175 88.5485 105.754 89.0885 105.196 89.4453C104.792 89.6835 104.362 89.875 103.915 90.0162C101.315 90.951 98.6409 92.1165 96.9678 94.3168C96.1051 95.449 95.5537 96.8072 94.5912 97.8586C93.2888 99.2858 91.3709 99.9994 89.9615 101.329C89.0109 102.214 88.3336 103.337 87.7061 104.471C85.2915 108.839 83.521 113.96 84.8019 118.786C85.4698 121.31 86.9409 123.558 87.7323 126.046C88.8231 129.435 88.7162 133.301 90.7625 136.215C92.0529 138.046 94.0493 139.257 96.0932 140.17C100.641 142.195 105.637 143 110.59 142.506C112.427 142.292 114.252 141.984 116.057 141.583C120.365 140.694 124.719 139.725 128.634 137.713C135.309 134.281 140.113 128.146 144.699 122.199C145.572 121.067 146.451 119.925 147.076 118.631C147.687 117.397 148.055 116.06 148.466 114.747C149.857 110.32 151.813 105.913 151.63 101.279C151.637 100.724 151.528 100.174 151.309 99.664C151.123 99.2834 150.833 98.9504 150.669 98.5674C150.379 97.8824 150.51 97.0903 150.306 96.3743C149.738 94.3762 147.114 93.9957 145.037 94.0123L144.371 105.737C144.269 107.497 144.081 109.45 142.772 110.63C142.212 111.112 141.513 111.403 140.776 111.461C140.039 111.519 139.303 111.34 138.675 110.951C137.277 110.045 137.08 108.463 137.09 106.947C137.104 105.045 136.949 103.301 136.343 101.477C135.088 97.6921 132.764 94.3715 131.001 90.8154Z" fill="#192534"/>
<path d="M131.827 124.226C140.103 128.424 148.426 132.654 155.831 138.244C157.542 139.533 159.206 140.898 161.014 142.049C166.198 145.346 172.629 146.952 176.629 151.614C177.47 152.592 178.183 153.691 179.153 154.537C179.994 155.229 180.935 155.79 181.943 156.202C185.156 157.622 188.636 158.336 192.148 158.298C193.068 158.286 194.014 158.217 194.841 157.822C197.067 156.742 197.574 153.85 197.799 151.383C197.876 150.548 197.892 149.564 197.236 149.045C196.882 148.767 196.414 148.695 195.969 148.626C188.742 147.485 182.073 144.002 176.035 139.866C169.996 135.729 164.461 130.901 158.505 126.645C156.411 125.149 154.267 123.724 152.124 122.299L145.186 117.69C141.517 115.251 137.652 112.74 133.27 112.28C133.021 112.237 132.765 112.254 132.524 112.33C132.139 112.48 131.925 112.88 131.737 113.246C130.451 115.753 128.885 118.03 127.309 120.351C126.466 121.593 126.371 121.914 127.825 122.578C129.135 123.177 130.523 123.565 131.827 124.226Z" fill="#FBBEBE"/>
<path d="M148.088 193.5C148.182 193.5 148.273 193.462 148.34 193.395C148.407 193.329 148.444 193.238 148.444 193.143C148.444 193.049 148.407 192.958 148.34 192.891C148.273 192.824 148.182 192.786 148.088 192.786C147.993 192.786 147.903 192.824 147.836 192.891C147.769 192.958 147.731 193.049 147.731 193.143C147.731 193.238 147.769 193.329 147.836 193.395C147.903 193.462 147.993 193.5 148.088 193.5Z" fill="black"/>
<path d="M150.688 98.7863C163.243 98.7863 173.42 88.5999 173.42 76.0344C173.42 63.4689 163.243 53.2825 150.688 53.2825C138.134 53.2825 127.956 63.4689 127.956 76.0344C127.956 88.5999 138.134 98.7863 150.688 98.7863Z" fill="#FBBEBE"/>
<path d="M132.821 84.9069C133.225 82.8637 135.568 81.8313 137.643 81.6934C139.742 81.5804 141.834 82.0231 143.709 82.9769C145.583 83.9306 147.173 85.3618 148.319 87.1262C148.799 85.8508 149.123 84.5218 149.283 83.1681L153.086 83.4512C153.51 83.5169 153.945 83.4777 154.35 83.337C154.84 83.1182 155.142 82.6234 155.396 82.1477C157.06 79.0388 158.172 75.2234 161.295 73.5845V77.8661C162.15 77.6996 162.955 77.3387 163.649 76.8112C164.342 76.2837 164.905 75.6037 165.295 74.8238C165.509 76.009 165.85 77.1677 166.312 78.28C166.388 78.4655 166.495 78.6701 166.687 78.7177C166.781 78.7245 166.876 78.7113 166.964 78.6789C167.053 78.6465 167.133 78.5957 167.201 78.5298C168.657 77.4237 169.974 76.1459 171.124 74.7239L175.64 82.5592C178.249 75.9655 178.391 68.6507 176.041 61.9602C173.691 55.2697 169.007 49.6534 162.849 46.1442C161.805 45.5422 160.716 45.0229 159.591 44.591C156.651 43.4825 153.483 43.1281 150.348 42.914C145.892 42.6096 141.189 42.6214 137.277 44.7599C135.174 45.9088 133.427 47.6024 131.739 49.3055C129.458 51.6033 127.176 54.0319 125.962 57.0361C125.123 59.1103 124.835 61.3582 124.581 63.5799C124.427 64.9238 124.284 66.3129 124.667 67.6093C124.933 68.5061 125.434 69.3124 125.772 70.1854C126.333 71.6364 126.421 73.2206 126.637 74.7619C127.117 78.1683 128.228 81.4549 129.914 84.4526C130.271 85.0877 130.727 85.7633 131.438 85.925C132.148 86.0868 133.001 85.3018 132.626 84.6833" fill="#192534"/>
<path d="M132.821 84.9069C133.225 82.8637 135.568 81.8313 137.643 81.6934C139.742 81.5804 141.834 82.0231 143.709 82.9769C145.583 83.9306 147.173 85.3618 148.319 87.1262C148.799 85.8508 149.123 84.5218 149.283 83.1681L153.086 83.4512C153.51 83.5169 153.945 83.4777 154.35 83.337C154.84 83.1182 155.142 82.6234 155.396 82.1477C157.06 79.0388 158.172 75.2234 161.295 73.5845V77.8661C162.15 77.6996 162.955 77.3387 163.649 76.8112C164.342 76.2837 164.905 75.6037 165.295 74.8238C165.509 76.009 165.85 77.1677 166.312 78.28C166.388 78.4655 166.495 78.6701 166.687 78.7177C166.781 78.7245 166.876 78.7113 166.964 78.6789C167.053 78.6465 167.133 78.5957 167.201 78.5297C168.657 77.4237 169.974 76.1459 171.124 74.7239L175.64 82.5592C178.249 75.9655 178.391 68.6507 176.041 61.9602C173.691 55.2697 169.007 49.6534 162.849 46.1442C161.805 45.5422 160.716 45.0229 159.591 44.591C156.651 43.4825 153.483 43.1281 150.348 42.914C145.892 42.6096 141.189 42.6214 137.277 44.7599C135.174 45.9088 133.427 47.6024 131.739 49.3055C129.458 51.6033 127.176 54.0319 125.962 57.0361C125.123 59.1103 124.835 61.3582 124.581 63.5799C124.427 64.9238 124.284 66.3129 124.667 67.6093C124.933 68.5061 125.434 69.3124 125.772 70.1854C126.333 71.6364 126.421 73.2206 126.637 74.7619C127.117 78.1683 128.228 81.4549 129.914 84.4526C130.271 85.0877 130.727 85.7633 131.438 85.925C132.148 86.0868 133.001 85.3018 132.626 84.6834" stroke="black" stroke-miterlimit="10"/>
<path d="M106.731 106.743C107.649 109.267 109.954 110.979 112.14 112.54L117.844 116.612C119.36 117.694 120.917 118.817 121.903 120.397C120.461 120.944 119.802 122.799 120.275 124.269C120.748 125.739 122.105 126.793 123.584 127.269C125.062 127.744 126.63 127.728 128.173 127.64C129.943 127.542 131.797 127.328 133.259 126.322L130.048 124.343C129.202 123.817 128.23 122.98 128.539 122.035L131.925 122.002C132.282 122.002 132.669 121.986 132.952 121.764C133.235 121.543 133.332 121.203 133.451 120.879C133.955 119.571 134.814 118.431 135.933 117.586C137.051 116.742 138.383 116.228 139.778 116.103C140.614 116.041 141.577 116.077 142.154 115.454C142.53 115.04 142.611 114.445 142.677 113.891C142.803 112.835 142.927 111.75 142.718 110.715C142.509 109.681 141.905 108.653 140.935 108.218C140.222 107.894 139.398 107.925 138.618 107.821C135.032 107.345 132.546 104.091 130.621 101.025C128.696 97.9586 126.63 94.5667 123.199 93.4249C122.127 93.1038 121.016 92.9333 119.898 92.9182C117.423 92.816 114.876 93.0182 112.623 94.0457C108.423 95.9606 105.096 102.252 106.731 106.743Z" fill="#4C63B6"/>
<path opacity="0.1" d="M175.661 78.3251L171.146 70.4898C169.996 71.9124 168.678 73.1903 167.222 74.2957C167.155 74.3624 167.074 74.4139 166.986 74.4468C166.897 74.4796 166.803 74.493 166.708 74.486C166.516 74.4384 166.409 74.2338 166.333 74.0483C165.871 72.9352 165.53 71.7757 165.316 70.5897C164.927 71.3702 164.364 72.0507 163.67 72.5786C162.977 73.1066 162.171 73.4678 161.316 73.6344V69.3528C158.193 70.9965 157.09 74.8119 155.417 77.916C155.163 78.3917 154.861 78.8794 154.372 79.1053C153.966 79.246 153.532 79.2852 153.107 79.2195L149.305 78.9365C149.144 80.2901 148.82 81.6192 148.34 82.8946C147.194 81.1301 145.604 79.6989 143.73 78.7452C141.856 77.7914 139.764 77.3487 137.664 77.4617C135.589 77.5996 133.246 78.632 132.842 80.6753L132.64 80.4517C133.023 81.0725 132.165 81.8575 131.452 81.6957C130.739 81.534 130.285 80.8584 129.928 80.2233C128.247 77.2223 127.14 73.9333 126.665 70.5255C126.449 68.9841 126.361 67.3999 125.8 65.949C125.463 65.076 124.961 64.2696 124.695 63.3729C124.695 63.3419 124.678 63.3134 124.671 63.2825C124.65 63.4609 124.628 63.6393 124.609 63.8177C124.455 65.164 124.312 66.5508 124.695 67.8614C124.961 68.7582 125.463 69.5645 125.8 70.4351C126.361 71.8885 126.449 73.4703 126.665 75.014C127.139 78.4212 128.246 81.7095 129.928 84.7095C130.285 85.3446 130.741 86.0225 131.452 86.1842C132.162 86.346 133.015 85.561 132.64 84.9402L132.842 85.1614C133.246 83.1205 135.589 82.0858 137.664 81.9502C139.763 81.8363 141.856 82.2783 143.73 83.2317C145.604 84.1851 147.194 85.6162 148.34 87.3807C148.821 86.1062 149.145 84.7779 149.305 83.425L153.107 83.7057C153.532 83.7722 153.966 83.733 154.372 83.5915C154.861 83.3727 155.163 82.8779 155.417 82.4022C157.081 79.2909 158.193 75.4779 161.316 73.839V78.1206C162.171 77.954 162.977 77.5927 163.67 77.0648C164.364 76.5369 164.927 75.8563 165.316 75.0759C165.531 76.2618 165.872 77.4212 166.333 78.5345C166.409 78.7176 166.516 78.9246 166.708 78.9698C166.803 78.9777 166.897 78.965 166.986 78.9325C167.075 78.9001 167.155 78.8487 167.222 78.7818C168.678 77.6764 169.996 76.3985 171.146 74.976L175.661 82.8113C177.29 78.6535 177.96 74.1816 177.622 69.7287C177.403 72.6765 176.742 75.5745 175.661 78.3251Z" fill="black"/>
</g>
<defs>
<clipPath id="clip0_1369_6114">
<rect width="260" height="193" fill="white" transform="translate(0 0.5)"/>
</clipPath>
</defs>
</svg>
