<svg width="212" height="213" viewBox="0 0 212 213" fill="none" xmlns="http://www.w3.org/2000/svg">
<g opacity="0.1">
<circle cx="8" cy="8.5" r="8" fill="#6C757D"/>
<circle cx="36" cy="8.5" r="8" fill="#6C757D"/>
<circle cx="64" cy="8.5" r="8" fill="#6C757D"/>
<circle cx="92" cy="8.5" r="8" fill="#6C757D"/>
<circle cx="120" cy="8.5" r="8" fill="#6C757D"/>
<circle cx="148" cy="8.5" r="8" fill="#6C757D"/>
<circle cx="176" cy="8.5" r="8" fill="#6C757D"/>
<circle cx="204" cy="8.5" r="8" fill="#6C757D"/>
<circle cx="8" cy="36.5" r="8" fill="#6C757D"/>
<circle cx="36" cy="36.5" r="8" fill="#6C757D"/>
<circle cx="64" cy="36.5" r="8" fill="#6C757D"/>
<circle cx="92" cy="36.5" r="8" fill="#6C757D"/>
<circle cx="120" cy="36.5" r="8" fill="#6C757D"/>
<circle cx="148" cy="36.5" r="8" fill="#6C757D"/>
<circle cx="176" cy="36.5" r="8" fill="#6C757D"/>
<circle cx="204" cy="36.5" r="8" fill="#6C757D"/>
<circle cx="8" cy="64.5" r="8" fill="#6C757D"/>
<circle cx="36" cy="64.5" r="8" fill="#6C757D"/>
<circle cx="64" cy="64.5" r="8" fill="#6C757D"/>
<circle cx="92" cy="64.5" r="8" fill="#6C757D"/>
<circle cx="120" cy="64.5" r="8" fill="#6C757D"/>
<circle cx="148" cy="64.5" r="8" fill="#6C757D"/>
<circle cx="176" cy="64.5" r="8" fill="#6C757D"/>
<circle cx="204" cy="64.5" r="8" fill="#6C757D"/>
<circle cx="8" cy="92.5" r="8" fill="#6C757D"/>
<circle cx="36" cy="92.5" r="8" fill="#6C757D"/>
<circle cx="64" cy="92.5" r="8" fill="#6C757D"/>
<circle cx="8" cy="120.5" r="8" fill="#6C757D"/>
<circle cx="36" cy="120.5" r="8" fill="#6C757D"/>
<circle cx="64" cy="120.5" r="8" fill="#6C757D"/>
<circle cx="8" cy="148.5" r="8" fill="#6C757D"/>
<circle cx="36" cy="148.5" r="8" fill="#6C757D"/>
<circle cx="64" cy="148.5" r="8" fill="#6C757D"/>
<circle cx="8" cy="176.5" r="8" fill="#6C757D"/>
<circle cx="36" cy="176.5" r="8" fill="#6C757D"/>
<circle cx="64" cy="176.5" r="8" fill="#6C757D"/>
<circle cx="8" cy="204.5" r="8" fill="#6C757D"/>
<circle cx="36" cy="204.5" r="8" fill="#6C757D"/>
<circle cx="64" cy="204.5" r="8" fill="#6C757D"/>
</g>
</svg>
