<svg width="230" height="168" viewBox="0 0 230 168" fill="none" xmlns="http://www.w3.org/2000/svg">
<path fill-rule="evenodd" clip-rule="evenodd" d="M219.56 167.804H63.6835V162.439H81.3577V127.195H16.2398C7.28724 127.195 0 119.92 0 110.977V16.2186C0 7.27773 7.28456 0 16.2398 0H172.117C181.072 0 188.356 7.27505 188.356 16.2186V25.3822H195.837C202.925 25.3822 208.69 31.1389 208.69 38.2181V65.9905H219.557C224.774 65.9905 229.02 70.4006 229.02 75.8193V157.98C229.023 163.396 224.776 167.804 219.56 167.804ZM172.117 71.3556C169.86 71.3556 168.026 73.3567 168.026 75.8193V157.98C168.026 160.44 169.863 162.441 172.117 162.441H219.557C221.814 162.441 223.648 160.44 223.648 157.98V75.8166C223.648 73.3567 221.811 71.3529 219.557 71.3529H172.117V71.3556ZM124.673 30.7473C120.552 30.7473 117.198 34.1004 117.198 38.2181V154.97C117.198 159.088 120.552 162.439 124.673 162.439H163.688C163.027 161.1 162.654 159.584 162.654 157.977V151.845L131.794 151.84C125.825 151.84 120.974 146.992 120.974 141.04V47.6365C120.974 41.6786 125.828 36.8313 131.794 36.8313H188.719C194.687 36.8313 199.541 41.6786 199.541 47.6365V65.9905H203.318V38.2181C203.318 34.0978 199.963 30.7473 195.837 30.7473H124.673ZM107.192 162.439H114.235C112.723 160.333 111.828 157.755 111.828 154.97V127.195H107.192V162.439ZM86.7298 162.439H101.82V127.195H86.7298V162.439ZM5.37209 96.7351V110.977C5.37209 116.959 10.2473 121.83 16.2398 121.83H111.825V96.7377H5.37209V96.7351ZM213.632 152.366H178.045C173.76 152.366 170.277 148.758 170.277 144.323V82.7054C170.277 78.2711 173.76 74.6631 178.045 74.6631H213.629C217.914 74.6631 221.397 78.2711 221.397 82.7054V144.326C221.397 148.76 217.914 152.366 213.632 152.366Z" fill="#F7B000"/>
<path fill-rule="evenodd" clip-rule="evenodd" d="M131.794 42.1963C128.791 42.1963 126.346 44.6374 126.346 47.6365V141.04C126.346 144.036 128.791 146.475 131.794 146.475L162.653 146.48V75.8166C162.653 70.3978 166.9 65.9877 172.116 65.9877H194.169V47.6365C194.169 44.6374 191.725 42.1963 188.719 42.1963H131.794Z" fill="#FFF0AE"/>
<path fill-rule="evenodd" clip-rule="evenodd" d="M5.37207 91.37H111.825V38.2182C111.825 31.139 117.59 25.3822 124.673 25.3822H182.984V16.2187C182.984 10.2339 178.109 5.36511 172.116 5.36511H16.2398C10.2472 5.36511 5.37207 10.2339 5.37207 16.2187V91.37Z" fill="#FFF0AE"/>
<path fill-rule="evenodd" clip-rule="evenodd" d="M178.045 80.0282C176.726 80.0282 175.649 81.23 175.649 82.7054V144.326C175.649 145.804 176.723 147.003 178.045 147.003H213.63C214.948 147.003 216.026 145.804 216.026 144.326V82.7054C216.026 81.23 214.951 80.0282 213.63 80.0282H178.045Z" fill="#FFF0AE"/>
</svg>
