<svg width="170" height="169" viewBox="0 0 170 169" fill="none" xmlns="http://www.w3.org/2000/svg">
<path fill-rule="evenodd" clip-rule="evenodd" d="M88.6084 0V4.1319L122.374 4.13002C123.201 1.47004 125.484 0.265058 128.113 0C131.541 0 134.32 2.77465 134.32 6.19597C134.32 9.61917 131.541 12.3938 128.113 12.3938C124.808 12.187 123.433 10.7715 122.218 7.89159H106.978C132.938 15.6215 153.406 36.5292 161.408 62.2191L161.406 47.1146C158.651 46.2818 157.359 44.041 157.082 41.3096C157.082 37.8883 159.862 35.1136 163.292 35.1136H163.29C166.719 35.1136 169.499 37.8883 169.499 41.3096C169.305 44.4565 167.964 45.9434 165.175 47.1146L165.173 80.7412H169.312V92.7629H165.173V126.388C167.93 127.22 169.224 129.461 169.499 132.193C169.499 135.614 166.719 138.389 163.292 138.389C159.862 138.389 157.082 135.614 157.082 132.193C157.276 129.046 158.617 127.559 161.408 126.388L161.406 110.913C151.359 144.568 119.423 168.073 84.4707 168.953V169H0V84.6852H0.047083C0.542397 49.5433 24.8146 18.2477 58.1946 7.89159H42.9548C42.1092 10.7302 39.9057 12.1062 37.0619 12.3938C33.6342 12.3938 30.8545 9.61917 30.8545 6.19597C30.9919 2.57539 33.6041 0.347771 37.0619 0L38.1015 0.109031C40.514 0.494399 41.7099 2.15054 42.7985 4.1319H76.5646V0H88.6084ZM3.76664 110.913V165.24H58.1946C32.2349 157.51 11.7689 136.603 3.76664 110.913ZM151.568 48.6579C152.826 54.8182 152.462 51.8179 152.758 57.6492C152.758 80.3615 134.313 98.7727 111.559 98.7727C101.871 98.4644 91.5163 95.5375 84.4707 88.505V165.193C125.147 164.518 156.216 131.939 160.939 92.7629H157.269V80.7412H161.156C160.508 69.3494 156.681 58.7377 151.568 48.6579ZM80.7041 88.4449H3.81373C4.35801 129.954 39.5008 164.156 80.7041 165.193V88.4449ZM165.546 89.0032V84.5009H161.035V89.0032H165.546ZM76.5646 8.21869C36.3236 11.5573 5.83265 44.9546 3.81373 84.6852H80.6438C73.5249 77.5098 70.8506 67.4169 70.3571 57.6492C70.3571 34.9369 88.8024 16.5238 111.559 16.5238C117.399 16.819 114.393 16.4562 120.565 17.7119C110.447 11.6174 100.097 9.71128 88.6084 8.26568V12.0216H76.5646V8.21869ZM84.8418 3.75969H80.3312V8.26192H84.8418V3.75969Z" fill="#7FB30F"/>
<path fill-rule="evenodd" clip-rule="evenodd" d="M111.557 20.2834C90.8837 20.2834 74.124 37.0122 74.124 57.6491C74.124 78.2842 90.8837 95.0129 111.559 95.0129C132.232 95.0129 148.992 78.2842 148.992 57.6491C148.992 37.0122 132.232 20.2834 111.559 20.2834H111.557Z" fill="#DFF5B1"/>
</svg>
