<svg width="144" height="178" viewBox="0 0 144 178" fill="none" xmlns="http://www.w3.org/2000/svg">
<path fill-rule="evenodd" clip-rule="evenodd" d="M143.043 151.14V60.2907C143.043 60.1087 143.023 59.9287 142.99 59.7507L142.982 59.7132C142.933 59.4798 142.849 59.2563 142.744 59.0427L142.648 58.8627C142.524 58.6471 142.383 58.4395 142.206 58.2615L85.1488 0.842631C84.9719 0.664631 84.7655 0.522231 84.5493 0.397631L84.3725 0.302697C84.1582 0.197875 83.9361 0.110853 83.7042 0.0633863L83.6649 0.0554752C83.49 0.021853 83.3111 0.0020752 83.1303 0.0020752H27.0874C12.345 0.00405297 0.397473 12.027 0.395508 26.8623V151.142C0.397473 165.977 12.345 178 27.0874 178H116.351C131.094 177.998 143.041 165.975 143.043 151.14ZM85.9841 9.80394L133.303 57.4209H105.954C100.43 57.4189 95.4553 55.1761 91.8331 51.5351C88.2148 47.888 85.986 42.8823 85.9841 37.3247V9.80394Z" fill="#E96D66"/>
<path fill-rule="evenodd" clip-rule="evenodd" d="M116.351 172.259H27.0874C21.2837 172.257 16.0557 169.899 12.2488 166.074C8.44577 162.243 6.10303 156.982 6.10303 151.142V26.8602C6.10499 21.0198 8.44773 15.759 12.2488 11.928C16.0557 8.10101 21.2837 5.74349 27.0874 5.74152H80.2786V37.3227C80.2806 51.5943 91.7741 63.1584 105.954 63.1604H137.338V151.14C137.336 156.98 134.993 162.241 131.192 166.072C127.385 169.899 122.155 172.257 116.351 172.259Z" fill="#EFD1CF"/>
<path fill-rule="evenodd" clip-rule="evenodd" d="M44.9288 98.3331C43.8145 97.2117 42.0083 97.2117 40.8939 98.3331L27.8182 111.491C26.7038 112.613 26.7038 114.43 27.8182 115.552L40.8939 128.71C42.0083 129.831 43.8145 129.831 44.9288 128.71C46.0432 127.588 46.0432 125.771 44.9288 124.649L33.8696 113.52L44.9288 102.392C46.0432 101.272 46.0432 99.4545 44.9288 98.3331Z" fill="#E96D66"/>
<path fill-rule="evenodd" clip-rule="evenodd" d="M102.545 98.3331C101.43 97.2117 99.624 97.2117 98.5096 98.3331C97.3952 99.4545 97.3952 101.272 98.5096 102.393L109.569 113.522L98.5096 124.651C97.3952 125.773 97.3952 127.59 98.5096 128.712C99.624 129.833 101.43 129.833 102.545 128.712L115.62 115.554C116.735 114.432 116.735 112.615 115.62 111.493L102.545 98.3331Z" fill="#E96D66"/>
<path fill-rule="evenodd" clip-rule="evenodd" d="M80.4263 88.563C78.9405 88.0369 77.3112 88.826 76.7903 90.3212L61.2658 134.821C60.743 136.318 61.5252 137.956 63.013 138.482C64.4988 139.008 66.1281 138.219 66.649 136.724L82.1735 92.2238C82.6963 90.7267 81.9141 89.0891 80.4263 88.563Z" fill="#E96D66"/>
</svg>
