<svg width="831" height="1801" viewBox="0 0 831 1801" fill="none" xmlns="http://www.w3.org/2000/svg">
<path fill-rule="evenodd" clip-rule="evenodd" d="M362 359.5V0H332V359.5C332 406.444 293.944 444.5 247 444.5H115C51.4873 444.5 0 495.987 0 559.5V900V901V1241.5C0 1305.01 51.4873 1356.5 115 1356.5H247C293.944 1356.5 332 1394.56 332 1441.5V1801H362V1441.5C362 1377.99 310.513 1326.5 247 1326.5H115C68.0558 1326.5 30 1288.44 30 1241.5V901V900V559.5C30 512.556 68.0558 474.5 115 474.5H247C310.513 474.5 362 423.013 362 359.5ZM620 553.5C620 612.042 572.542 659.5 514 659.5C455.458 659.5 408 612.042 408 553.5C408 494.958 455.458 447.5 514 447.5C572.542 447.5 620 494.958 620 553.5ZM650 553.5C650 628.611 589.111 689.5 514 689.5C438.889 689.5 378 628.611 378 553.5C378 478.389 438.889 417.5 514 417.5C589.111 417.5 650 478.389 650 553.5ZM723 355.5C766.078 355.5 801 320.578 801 277.5C801 234.422 766.078 199.5 723 199.5C679.922 199.5 645 234.422 645 277.5C645 320.578 679.922 355.5 723 355.5ZM723 385.5C782.647 385.5 831 337.147 831 277.5C831 217.853 782.647 169.5 723 169.5C663.353 169.5 615 217.853 615 277.5C615 337.147 663.353 385.5 723 385.5ZM514 1141.5C572.542 1141.5 620 1188.96 620 1247.5C620 1306.04 572.542 1353.5 514 1353.5C455.458 1353.5 408 1306.04 408 1247.5C408 1188.96 455.458 1141.5 514 1141.5ZM514 1111.5C589.111 1111.5 650 1172.39 650 1247.5C650 1322.61 589.111 1383.5 514 1383.5C438.889 1383.5 378 1322.61 378 1247.5C378 1172.39 438.889 1111.5 514 1111.5ZM801 1523.5C801 1480.42 766.078 1445.5 723 1445.5C679.922 1445.5 645 1480.42 645 1523.5C645 1566.58 679.922 1601.5 723 1601.5C766.078 1601.5 801 1566.58 801 1523.5ZM831 1523.5C831 1463.85 782.647 1415.5 723 1415.5C663.353 1415.5 615 1463.85 615 1523.5C615 1583.15 663.353 1631.5 723 1631.5C782.647 1631.5 831 1583.15 831 1523.5Z" fill="#D4DAED"/>
</svg>
