<svg width="212" height="212" viewBox="0 0 212 212" fill="none" xmlns="http://www.w3.org/2000/svg">
<g opacity="0.1">
<circle cx="8" cy="8" r="8" fill="#3E4C59"/>
<circle cx="36" cy="8" r="8" fill="#3E4C59"/>
<circle cx="64" cy="8" r="8" fill="#3E4C59"/>
<circle cx="92" cy="8" r="8" fill="#3E4C59"/>
<circle cx="120" cy="8" r="8" fill="#3E4C59"/>
<circle cx="148" cy="8" r="8" fill="#3E4C59"/>
<circle cx="176" cy="8" r="8" fill="#3E4C59"/>
<circle cx="204" cy="8" r="8" fill="#3E4C59"/>
<circle cx="8" cy="36" r="8" fill="#3E4C59"/>
<circle cx="36" cy="36" r="8" fill="#3E4C59"/>
<circle cx="64" cy="36" r="8" fill="#3E4C59"/>
<circle cx="92" cy="36" r="8" fill="#3E4C59"/>
<circle cx="120" cy="36" r="8" fill="#3E4C59"/>
<circle cx="148" cy="36" r="8" fill="#3E4C59"/>
<circle cx="176" cy="36" r="8" fill="#3E4C59"/>
<circle cx="204" cy="36" r="8" fill="#3E4C59"/>
<circle cx="8" cy="64" r="8" fill="#3E4C59"/>
<circle cx="36" cy="64" r="8" fill="#3E4C59"/>
<circle cx="64" cy="64" r="8" fill="#3E4C59"/>
<circle cx="92" cy="64" r="8" fill="#3E4C59"/>
<circle cx="120" cy="64" r="8" fill="#3E4C59"/>
<circle cx="148" cy="64" r="8" fill="#3E4C59"/>
<circle cx="176" cy="64" r="8" fill="#3E4C59"/>
<circle cx="204" cy="64" r="8" fill="#3E4C59"/>
<circle cx="8" cy="92" r="8" fill="#3E4C59"/>
<circle cx="36" cy="92" r="8" fill="#3E4C59"/>
<circle cx="64" cy="92" r="8" fill="#3E4C59"/>
<circle cx="8" cy="120" r="8" fill="#3E4C59"/>
<circle cx="36" cy="120" r="8" fill="#3E4C59"/>
<circle cx="64" cy="120" r="8" fill="#3E4C59"/>
<circle cx="8" cy="148" r="8" fill="#3E4C59"/>
<circle cx="36" cy="148" r="8" fill="#3E4C59"/>
<circle cx="64" cy="148" r="8" fill="#3E4C59"/>
<circle cx="8" cy="176" r="8" fill="#3E4C59"/>
<circle cx="36" cy="176" r="8" fill="#3E4C59"/>
<circle cx="64" cy="176" r="8" fill="#3E4C59"/>
<circle cx="8" cy="204" r="8" fill="#3E4C59"/>
<circle cx="36" cy="204" r="8" fill="#3E4C59"/>
<circle cx="64" cy="204" r="8" fill="#3E4C59"/>
</g>
</svg>
