<svg width="222" height="140" viewBox="0 0 222 140" fill="none" xmlns="http://www.w3.org/2000/svg">
<path d="M222 57.4581H221.625V47.1603C221.625 46.3776 221.471 45.6026 221.172 44.8794C220.874 44.1563 220.436 43.4993 219.884 42.9459C219.332 42.3924 218.676 41.9534 217.955 41.6539C217.234 41.3544 216.461 41.2002 215.68 41.2002H193.92C193.139 41.2002 192.366 41.3544 191.645 41.6539C190.924 41.9534 190.268 42.3924 189.716 42.9459C189.164 43.4993 188.726 44.1563 188.428 44.8794C188.129 45.6026 187.975 46.3776 187.975 47.1603V103.655C187.975 104.437 188.129 105.212 188.428 105.936C188.726 106.659 189.164 107.316 189.716 107.869C190.268 108.423 190.924 108.862 191.645 109.161C192.366 109.461 193.139 109.615 193.92 109.615H215.68C216.461 109.615 217.234 109.461 217.955 109.161C218.676 108.862 219.332 108.423 219.884 107.869C220.436 107.316 220.874 106.659 221.172 105.936C221.471 105.212 221.625 104.437 221.625 103.655V64.7882H222V57.4581Z" fill="#3F3D56"/>
<path d="M220.36 47.5105V103.923C220.36 105.103 219.892 106.236 219.06 107.07C218.227 107.905 217.098 108.374 215.92 108.374H194.055C193.472 108.374 192.895 108.259 192.356 108.035C191.818 107.811 191.329 107.484 190.916 107.07C190.504 106.657 190.177 106.166 189.955 105.626C189.732 105.086 189.617 104.507 189.617 103.923V47.5105C189.617 46.3304 190.085 45.1986 190.917 44.3642C191.749 43.5297 192.878 43.0609 194.055 43.0609H196.708C196.578 43.382 196.528 43.7302 196.564 44.0749C196.599 44.4196 196.719 44.7503 196.911 45.038C197.104 45.3256 197.365 45.5613 197.67 45.7244C197.975 45.8875 198.315 45.973 198.661 45.9734H211.127C211.473 45.974 211.814 45.8892 212.12 45.7263C212.425 45.5635 212.686 45.3277 212.879 45.0398C213.072 44.7519 213.191 44.4207 213.226 44.0756C213.262 43.7304 213.211 43.3819 213.08 43.0609H215.92C217.098 43.0609 218.227 43.5296 219.059 44.364C219.892 45.1984 220.36 46.3302 220.36 47.5105Z" fill="white"/>
<path d="M216.221 71.9425H190.803V78.8191H216.221V71.9425Z" fill="#4C63B6"/>
<path d="M217.229 77.6057H192.618C192.458 77.6055 192.304 77.5415 192.191 77.4278C192.077 77.314 192.013 77.1598 192.013 76.9989V70.9313C192.013 70.7705 192.077 70.6162 192.191 70.5025C192.304 70.3887 192.458 70.3248 192.618 70.3246H217.229C217.389 70.3248 217.543 70.3887 217.657 70.5025C217.77 70.6162 217.834 70.7705 217.834 70.9313V76.9989C217.834 77.1598 217.77 77.314 217.657 77.4278C217.543 77.5415 217.389 77.6055 217.229 77.6057ZM192.618 70.7291C192.565 70.7291 192.514 70.7505 192.476 70.7884C192.438 70.8263 192.417 70.8777 192.417 70.9313V76.9989C192.417 77.0526 192.438 77.104 192.476 77.1419C192.514 77.1798 192.565 77.2011 192.618 77.2012H217.229C217.282 77.2011 217.334 77.1798 217.372 77.1419C217.409 77.104 217.431 77.0526 217.431 76.9989V70.9313C217.431 70.8777 217.409 70.8263 217.372 70.7884C217.334 70.7505 217.282 70.7291 217.229 70.7291H192.618Z" fill="#3F3D56"/>
<path d="M196.855 75.7854H193.627V76.1899H196.855V75.7854Z" fill="#3F3D56"/>
<path d="M201.293 75.7854H198.065V76.1899H201.293V75.7854Z" fill="#3F3D56"/>
<path d="M205.731 75.7854H202.503V76.1899H205.731V75.7854Z" fill="#3F3D56"/>
<path d="M210.169 75.7854H206.941V76.1899H210.169V75.7854Z" fill="#3F3D56"/>
<path d="M214.607 75.7854H211.379V76.1899H214.607V75.7854Z" fill="#3F3D56"/>
<path opacity="0.1" d="M220.36 98.1868V103.923C220.36 105.103 219.892 106.236 219.06 107.07C218.227 107.905 217.098 108.374 215.92 108.374H194.055C193.472 108.374 192.895 108.259 192.356 108.035C191.818 107.811 191.329 107.484 190.916 107.07C190.504 106.657 190.177 106.166 189.955 105.626C189.732 105.086 189.617 104.507 189.617 103.923V77.5369L220.36 98.1868Z" fill="black"/>
<path d="M115.56 92.9768H20.1431V139.899H115.56V92.9768Z" fill="white"/>
<path opacity="0.1" d="M91.302 139.899H20.5465C20.4396 139.899 20.3372 139.856 20.2616 139.781C20.186 139.705 20.1434 139.602 20.1431 139.495V93.3813C20.1434 93.2741 20.186 93.1714 20.2616 93.0956C20.3372 93.0198 20.4396 92.9771 20.5465 92.9768H21.4422L91.302 139.899Z" fill="black"/>
<path d="M212.186 99.2466H64.3208V99.6511H212.186V99.2466Z" fill="#3F3D56"/>
<path d="M111.069 0.873277H68.8095V0H49.6473V0.873277H7.21352C6.83813 0.873276 6.46642 0.947408 6.11961 1.09144C5.77279 1.23547 5.45767 1.44658 5.19223 1.71271C4.92679 1.97884 4.71623 2.29478 4.57257 2.6425C4.42892 2.99022 4.35498 3.36291 4.35498 3.73927V61.7565C4.35498 62.5167 4.65615 63.2456 5.19223 63.7831C5.72831 64.3206 6.45539 64.6226 7.21352 64.6226H111.069C111.827 64.6226 112.554 64.3206 113.09 63.7831C113.626 63.2456 113.928 62.5167 113.928 61.7565V3.73927C113.928 3.36291 113.854 2.99022 113.71 2.6425C113.566 2.29478 113.356 1.97884 113.09 1.71271C112.825 1.44658 112.51 1.23547 112.163 1.09144C111.816 0.947408 111.444 0.873276 111.069 0.873277Z" fill="#3F3D56"/>
<path d="M110.095 5.9375H8.18848V63.5754H110.095V5.9375Z" fill="white"/>
<path d="M59.0545 4.36638C59.6317 4.36638 60.0997 3.8972 60.0997 3.31844C60.0997 2.73968 59.6317 2.27051 59.0545 2.27051C58.4772 2.27051 58.0093 2.73968 58.0093 3.31844C58.0093 3.8972 58.4772 4.36638 59.0545 4.36638Z" fill="#4C63B6"/>
<path d="M38.4995 27.4471H36.0788C35.9184 27.4469 35.7645 27.3829 35.6511 27.2692C35.5376 27.1554 35.4738 27.0012 35.4736 26.8403V24.4133C35.4738 24.2524 35.5376 24.0982 35.6511 23.9844C35.7645 23.8707 35.9184 23.8067 36.0788 23.8065H38.4995C38.66 23.8067 38.8138 23.8707 38.9273 23.9844C39.0407 24.0982 39.1045 24.2524 39.1047 24.4133V26.8403C39.1045 27.0012 39.0407 27.1554 38.9273 27.2692C38.8138 27.3829 38.66 27.4469 38.4995 27.4471ZM36.0788 24.211C36.0253 24.2111 35.9741 24.2324 35.9362 24.2703C35.8984 24.3083 35.8772 24.3597 35.8771 24.4133V26.8403C35.8772 26.8939 35.8984 26.9453 35.9362 26.9832C35.9741 27.0212 36.0253 27.0425 36.0788 27.0426H38.4995C38.553 27.0425 38.6043 27.0212 38.6421 26.9832C38.6799 26.9453 38.7012 26.8939 38.7013 26.8403V24.4133C38.7012 24.3597 38.6799 24.3083 38.6421 24.2703C38.6043 24.2324 38.553 24.2111 38.4995 24.211H36.0788Z" fill="#3F3D56"/>
<path d="M81.6689 27.0425H35.6753V27.447H81.6689V27.0425Z" fill="#3F3D56"/>
<path d="M80.4586 38.1664H69.7671V41.4024H80.4586V38.1664Z" fill="#4C63B6"/>
<path d="M81.2656 40.5934H71.3811C71.2206 40.5932 71.0668 40.5293 70.9533 40.4155C70.8399 40.3018 70.7761 40.1475 70.7759 39.9867V37.5596C70.7761 37.3988 70.8399 37.2445 70.9533 37.1308C71.0668 37.017 71.2206 36.9531 71.3811 36.9529H81.2656C81.4261 36.9531 81.5799 37.017 81.6934 37.1308C81.8068 37.2445 81.8706 37.3988 81.8708 37.5596V39.9867C81.8706 40.1475 81.8068 40.3018 81.6934 40.4155C81.5799 40.5293 81.4261 40.5932 81.2656 40.5934ZM71.3811 37.3574C71.3276 37.3575 71.2763 37.3788 71.2385 37.4167C71.2007 37.4546 71.1794 37.506 71.1793 37.5596V39.9867C71.1794 40.0403 71.2007 40.0917 71.2385 40.1296C71.2763 40.1675 71.3276 40.1888 71.3811 40.1889H81.2656C81.3191 40.1888 81.3704 40.1675 81.4082 40.1296C81.446 40.0917 81.4673 40.0403 81.4674 39.9867V37.5596C81.4673 37.506 81.446 37.4546 81.4082 37.4167C81.3704 37.3788 81.3191 37.3575 81.2656 37.3574H71.3811Z" fill="#3F3D56"/>
<path d="M162.158 41.8069H141.985V55.9646H162.158V41.8069Z" fill="#4C63B6"/>
<path d="M164.175 54.8522H144.809C144.595 54.8519 144.39 54.7666 144.239 54.615C144.088 54.4633 144.003 54.2577 144.002 54.0432V40.6945C144.003 40.48 144.088 40.2744 144.239 40.1227C144.39 39.971 144.595 39.8857 144.809 39.8855H164.175C164.389 39.8857 164.594 39.971 164.745 40.1227C164.897 40.2744 164.982 40.48 164.982 40.6945V54.0432C164.982 54.2577 164.897 54.4633 164.745 54.615C164.594 54.7666 164.389 54.8519 164.175 54.8522ZM144.809 40.6945V54.0432H164.176L164.175 40.6945H144.809Z" fill="#3F3D56"/>
<path d="M161.957 40.1889H161.15C161.15 38.4188 160.448 36.7211 159.2 35.4694C157.951 34.2178 156.258 33.5146 154.493 33.5146C152.727 33.5146 151.034 34.2178 149.785 35.4694C148.537 36.7211 147.836 38.4188 147.836 40.1889H147.029C147.029 38.2042 147.815 36.3008 149.215 34.8974C150.615 33.494 152.513 32.7056 154.493 32.7056C156.472 32.7056 158.371 33.494 159.77 34.8974C161.17 36.3008 161.957 38.2042 161.957 40.1889Z" fill="#3F3D56"/>
<path d="M156.509 45.7508C156.51 45.3986 156.418 45.0525 156.244 44.7465C156.07 44.4406 155.82 44.1855 155.517 44.0065C155.214 43.8276 154.871 43.7309 154.519 43.7261C154.168 43.7214 153.822 43.8086 153.514 43.9793C153.207 44.15 152.95 44.3981 152.767 44.6992C152.585 45.0003 152.484 45.3439 152.475 45.696C152.466 46.048 152.549 46.3964 152.715 46.7066C152.882 47.0168 153.126 47.278 153.424 47.4644V49.6353C153.424 49.7759 153.452 49.9151 153.505 50.045C153.559 50.1749 153.638 50.293 153.737 50.3924C153.836 50.4918 153.954 50.5707 154.083 50.6245C154.213 50.6783 154.352 50.706 154.492 50.706C154.775 50.706 155.047 50.5932 155.247 50.3924C155.447 50.1916 155.56 49.9193 155.56 49.6353V47.4644C155.85 47.2831 156.09 47.0307 156.256 46.7309C156.422 46.4311 156.509 46.0938 156.509 45.7508Z" fill="#3F3D56"/>
<path d="M60.5889 113.809H57.3613V114.213H60.5889V113.809Z" fill="#3F3D56"/>
<path d="M65.0269 113.809H61.7993V114.213H65.0269V113.809Z" fill="#3F3D56"/>
<path d="M69.4649 113.809H66.2373V114.213H69.4649V113.809Z" fill="#3F3D56"/>
<path d="M73.9029 113.809H70.6753V114.213H73.9029V113.809Z" fill="#3F3D56"/>
<path d="M78.3409 113.809H75.1133V114.213H78.3409V113.809Z" fill="#3F3D56"/>
<path d="M119.795 136.461H25.1858C24.9719 136.461 24.7668 136.376 24.6155 136.224C24.4642 136.072 24.3791 135.867 24.3789 135.652V89.5385C24.3791 89.324 24.4642 89.1184 24.6155 88.9667C24.7668 88.815 24.9719 88.7297 25.1858 88.7295H119.795C120.009 88.7297 120.214 88.815 120.366 88.9667C120.517 89.1184 120.602 89.324 120.602 89.5385V135.652C120.602 135.867 120.517 136.072 120.366 136.224C120.214 136.376 120.009 136.461 119.795 136.461ZM25.1858 89.5385V135.652H119.796L119.795 89.5385H25.1858Z" fill="#3F3D56"/>
<path d="M29.4223 96.4151C30.0907 96.4151 30.6326 95.8718 30.6326 95.2016C30.6326 94.5313 30.0907 93.988 29.4223 93.988C28.7538 93.988 28.2119 94.5313 28.2119 95.2016C28.2119 95.8718 28.7538 96.4151 29.4223 96.4151Z" fill="#3F3D56"/>
<path d="M33.6581 96.4151C34.3266 96.4151 34.8685 95.8718 34.8685 95.2016C34.8685 94.5313 34.3266 93.988 33.6581 93.988C32.9897 93.988 32.4478 94.5313 32.4478 95.2016C32.4478 95.8718 32.9897 96.4151 33.6581 96.4151Z" fill="#3F3D56"/>
<path d="M37.8944 96.4151C38.5629 96.4151 39.1048 95.8718 39.1048 95.2016C39.1048 94.5313 38.5629 93.988 37.8944 93.988C37.226 93.988 36.6841 94.5313 36.6841 95.2016C36.6841 95.8718 37.226 96.4151 37.8944 96.4151Z" fill="#3F3D56"/>
<path d="M81.4671 116.64H54.2341C54.0736 116.64 53.9198 116.576 53.8064 116.462C53.6929 116.349 53.6291 116.194 53.6289 116.034V109.157C53.6291 108.996 53.6929 108.842 53.8064 108.728C53.9198 108.614 54.0736 108.55 54.2341 108.55H81.4671C81.6276 108.55 81.7814 108.614 81.8949 108.728C82.0083 108.842 82.0721 108.996 82.0723 109.157V116.034C82.0721 116.194 82.0083 116.349 81.8949 116.462C81.7814 116.576 81.6276 116.64 81.4671 116.64ZM54.2341 108.955C54.1806 108.955 54.1293 108.976 54.0915 109.014C54.0537 109.052 54.0324 109.103 54.0324 109.157V116.034C54.0324 116.087 54.0537 116.139 54.0915 116.176C54.1293 116.214 54.1806 116.236 54.2341 116.236H81.4671C81.5206 116.236 81.5719 116.214 81.6097 116.176C81.6475 116.139 81.6688 116.087 81.6689 116.034V109.157C81.6688 109.103 81.6475 109.052 81.6097 109.014C81.5719 108.976 81.5206 108.955 81.4671 108.955H54.2341Z" fill="#3F3D56"/>
<path d="M88.3264 116.843C90.3318 116.843 91.9575 115.213 91.9575 113.202C91.9575 111.191 90.3318 109.562 88.3264 109.562C86.321 109.562 84.6953 111.191 84.6953 113.202C84.6953 115.213 86.321 116.843 88.3264 116.843Z" fill="#4C63B6"/>
<path d="M89.5359 116.438C88.7779 116.438 88.0368 116.213 87.4065 115.79C86.7762 115.368 86.285 114.768 85.9949 114.066C85.7048 113.364 85.6289 112.591 85.7768 111.846C85.9247 111.1 86.2897 110.415 86.8257 109.878C87.3618 109.341 88.0447 108.975 88.7882 108.826C89.5317 108.678 90.3023 108.754 91.0027 109.045C91.703 109.336 92.3016 109.828 92.7228 110.46C93.1439 111.092 93.3687 111.835 93.3687 112.595C93.3676 113.614 92.9634 114.591 92.2449 115.311C91.5263 116.032 90.5521 116.437 89.5359 116.438ZM89.5359 109.157C88.8577 109.157 88.1946 109.359 87.6307 109.736C87.0667 110.114 86.6272 110.651 86.3676 111.279C86.1081 111.908 86.0402 112.599 86.1725 113.266C86.3048 113.933 86.6314 114.546 87.111 115.026C87.5906 115.507 88.2017 115.835 88.8669 115.967C89.5321 116.1 90.2217 116.032 90.8483 115.772C91.4749 115.512 92.0105 115.071 92.3873 114.505C92.7642 113.94 92.9653 113.275 92.9653 112.595C92.9643 111.684 92.6026 110.81 91.9597 110.165C91.3168 109.521 90.4451 109.158 89.5359 109.157Z" fill="#3F3D56"/>
<path d="M89.5901 114.031L87.6372 112.072L88.2077 111.5L89.4824 112.778L93.0392 107.711L93.6991 108.176L89.5901 114.031Z" fill="#3F3D56"/>
<path opacity="0.1" d="M87.5012 63.5755H8.18848V10.3042L87.5012 63.5755Z" fill="black"/>
<path d="M116.789 62.5267H106.843V61.8082C106.843 61.7895 106.84 61.771 106.833 61.7537C106.825 61.7364 106.815 61.7207 106.802 61.7075C106.789 61.6943 106.773 61.6838 106.756 61.6766C106.739 61.6695 106.72 61.6658 106.701 61.6658H103.291C103.273 61.6658 103.254 61.6695 103.237 61.6766C103.22 61.6838 103.204 61.6943 103.191 61.7075C103.178 61.7207 103.167 61.7364 103.16 61.7537C103.153 61.771 103.149 61.7895 103.149 61.8082V62.5267H101.018V61.8082C101.018 61.7895 101.015 61.771 101.007 61.7537C101 61.7364 100.99 61.7207 100.977 61.7075C100.963 61.6943 100.948 61.6838 100.931 61.6766C100.913 61.6695 100.895 61.6658 100.876 61.6658H97.4662C97.4476 61.6658 97.4291 61.6695 97.4119 61.6766C97.3946 61.6838 97.379 61.6943 97.3658 61.7075C97.3526 61.7207 97.3421 61.7364 97.335 61.7537C97.3278 61.771 97.3242 61.7895 97.3242 61.8082V62.5267H95.193V61.8082C95.193 61.7895 95.1893 61.771 95.1822 61.7537C95.175 61.7364 95.1645 61.7207 95.1514 61.7075C95.1382 61.6943 95.1225 61.6838 95.1053 61.6766C95.088 61.6695 95.0695 61.6658 95.0509 61.6658H91.641C91.6223 61.6658 91.6039 61.6695 91.5866 61.6766C91.5694 61.6838 91.5537 61.6943 91.5405 61.7075C91.5273 61.7207 91.5169 61.7364 91.5097 61.7537C91.5026 61.771 91.4989 61.7895 91.4989 61.8082V62.5267H89.3677V61.8082C89.3677 61.7895 89.3641 61.771 89.3569 61.7537C89.3498 61.7364 89.3393 61.7207 89.3261 61.7075C89.3129 61.6943 89.2973 61.6838 89.28 61.6766C89.2628 61.6695 89.2443 61.6658 89.2256 61.6658H85.8158C85.7971 61.6658 85.7786 61.6695 85.7614 61.6766C85.7441 61.6838 85.7285 61.6943 85.7153 61.7075C85.7021 61.7207 85.6916 61.7364 85.6845 61.7537C85.6773 61.771 85.6737 61.7895 85.6737 61.8082V62.5267H83.5425V61.8082C83.5425 61.7895 83.5388 61.771 83.5317 61.7537C83.5245 61.7364 83.5141 61.7207 83.5009 61.7075C83.4877 61.6943 83.472 61.6838 83.4548 61.6766C83.4375 61.6695 83.4191 61.6658 83.4004 61.6658H79.9905C79.9719 61.6658 79.9534 61.6695 79.9361 61.6766C79.9189 61.6838 79.9032 61.6943 79.89 61.7075C79.8768 61.7207 79.8664 61.7364 79.8592 61.7537C79.8521 61.771 79.8484 61.7895 79.8484 61.8082V62.5267H77.7172V61.8082C77.7172 61.7895 77.7136 61.771 77.7064 61.7537C77.6993 61.7364 77.6888 61.7207 77.6756 61.7075C77.6624 61.6943 77.6468 61.6838 77.6295 61.6766C77.6123 61.6695 77.5938 61.6658 77.5752 61.6658H74.1653C74.1466 61.6658 74.1281 61.6695 74.1109 61.6766C74.0937 61.6838 74.078 61.6943 74.0648 61.7075C74.0516 61.7207 74.0411 61.7364 74.034 61.7537C74.0269 61.771 74.0232 61.7895 74.0232 61.8082V62.5267H71.892V61.8082C71.892 61.7895 71.8883 61.771 71.8812 61.7537C71.8741 61.7364 71.8636 61.7207 71.8504 61.7075C71.8372 61.6943 71.8215 61.6838 71.8043 61.6766C71.7871 61.6695 71.7686 61.6658 71.7499 61.6658H45.0391C45.0204 61.6658 45.0019 61.6695 44.9847 61.6766C44.9674 61.6838 44.9518 61.6943 44.9386 61.7075C44.9254 61.7207 44.9149 61.7364 44.9078 61.7537C44.9007 61.771 44.897 61.7895 44.897 61.8082V62.5267H42.7658V61.8082C42.7658 61.7895 42.7621 61.771 42.755 61.7537C42.7478 61.7364 42.7374 61.7207 42.7242 61.7075C42.711 61.6943 42.6953 61.6838 42.6781 61.6766C42.6609 61.6695 42.6424 61.6658 42.6237 61.6658H39.2138C39.1952 61.6658 39.1767 61.6695 39.1594 61.6766C39.1422 61.6838 39.1265 61.6943 39.1134 61.7075C39.1002 61.7207 39.0897 61.7364 39.0826 61.7537C39.0754 61.771 39.0717 61.7895 39.0717 61.8082V62.5267H36.9406V61.8082C36.9406 61.7895 36.9369 61.771 36.9297 61.7537C36.9226 61.7364 36.9121 61.7207 36.8989 61.7075C36.8857 61.6943 36.8701 61.6838 36.8528 61.6766C36.8356 61.6695 36.8171 61.6658 36.7985 61.6658H33.3886C33.3699 61.6658 33.3514 61.6695 33.3342 61.6766C33.317 61.6838 33.3013 61.6943 33.2881 61.7075C33.2749 61.7207 33.2645 61.7364 33.2573 61.7537C33.2502 61.771 33.2465 61.7895 33.2465 61.8082V62.5267H31.1153V61.8082C31.1153 61.7895 31.1116 61.771 31.1045 61.7537C31.0974 61.7364 31.0869 61.7207 31.0737 61.7075C31.0605 61.6943 31.0448 61.6838 31.0276 61.6766C31.0104 61.6695 30.9919 61.6658 30.9732 61.6658H27.5633C27.5447 61.6658 27.5262 61.6695 27.509 61.6766C27.4917 61.6838 27.4761 61.6943 27.4629 61.7075C27.4497 61.7207 27.4392 61.7364 27.4321 61.7537C27.4249 61.771 27.4213 61.7895 27.4213 61.8082V62.5267H25.2901V61.8082C25.2901 61.7895 25.2864 61.771 25.2793 61.7537C25.2721 61.7364 25.2617 61.7207 25.2485 61.7075C25.2353 61.6943 25.2196 61.6838 25.2024 61.6766C25.1851 61.6695 25.1667 61.6658 25.148 61.6658H21.7381C21.7194 61.6658 21.701 61.6695 21.6837 61.6766C21.6665 61.6838 21.6508 61.6943 21.6376 61.7075C21.6244 61.7207 21.614 61.7364 21.6068 61.7537C21.5997 61.771 21.596 61.7895 21.596 61.8082V62.5267H19.4648V61.8082C19.4648 61.7895 19.4612 61.771 19.454 61.7537C19.4469 61.7364 19.4364 61.7207 19.4232 61.7075C19.41 61.6943 19.3944 61.6838 19.3771 61.6766C19.3599 61.6695 19.3414 61.6658 19.3228 61.6658H15.9129C15.8942 61.6658 15.8757 61.6695 15.8585 61.6766C15.8412 61.6838 15.8256 61.6943 15.8124 61.7075C15.7992 61.7207 15.7887 61.7364 15.7816 61.7537C15.7744 61.771 15.7708 61.7895 15.7708 61.8082V62.5267H13.6396V61.8082C13.6396 61.7895 13.6359 61.771 13.6288 61.7537C13.6216 61.7364 13.6112 61.7207 13.598 61.7075C13.5848 61.6943 13.5691 61.6838 13.5519 61.6766C13.5346 61.6695 13.5162 61.6658 13.4975 61.6658H10.0876C10.069 61.6658 10.0505 61.6695 10.0332 61.6766C10.016 61.6838 10.0003 61.6943 9.98715 61.7075C9.97395 61.7207 9.96349 61.7364 9.95635 61.7537C9.94921 61.771 9.94553 61.7895 9.94554 61.8082V62.5267H3.4099C2.9621 62.5267 2.51869 62.6151 2.10498 62.7869C1.69128 62.9587 1.31537 63.2105 0.998735 63.528C0.682096 63.8455 0.430925 64.2224 0.259562 64.6371C0.088199 65.0519 -2.6491e-07 65.4965 0 65.9455V67.4914C2.14004e-06 68.3981 0.359259 69.2677 0.998739 69.9088C1.63822 70.55 2.50554 70.9101 3.4099 70.9101H116.789C117.237 70.9101 117.68 70.8217 118.094 70.6499C118.508 70.4781 118.883 70.2263 119.2 69.9088C119.517 69.5913 119.768 69.2145 119.939 68.7997C120.111 68.3849 120.199 67.9403 120.199 67.4914V65.9455C120.199 65.4965 120.111 65.0519 119.939 64.6371C119.768 64.2224 119.517 63.8455 119.2 63.528C118.883 63.2105 118.508 62.9587 118.094 62.7869C117.68 62.6151 117.237 62.5267 116.789 62.5267Z" fill="#3F3D56"/>
<path d="M85.7037 44.0317H32.448C32.2875 44.0315 32.1337 43.9676 32.0202 43.8538C31.9068 43.7401 31.8429 43.5858 31.8428 43.425V21.1772C31.8429 21.0163 31.9068 20.8621 32.0202 20.7483C32.1337 20.6346 32.2875 20.5706 32.448 20.5704H85.7037C85.8641 20.5706 86.018 20.6346 86.1314 20.7483C86.2449 20.8621 86.3087 21.0163 86.3089 21.1772V43.425C86.3087 43.5858 86.2449 43.7401 86.1314 43.8538C86.018 43.9676 85.8641 44.0315 85.7037 44.0317ZM32.448 20.9749C32.3945 20.975 32.3432 20.9963 32.3054 21.0343C32.2676 21.0722 32.2463 21.1236 32.2462 21.1772V43.425C32.2463 43.4786 32.2676 43.53 32.3054 43.5679C32.3432 43.6058 32.3945 43.6271 32.448 43.6272H85.7037C85.7572 43.6271 85.8084 43.6058 85.8463 43.5679C85.8841 43.53 85.9053 43.4786 85.9054 43.425V21.1772C85.9053 21.1236 85.8841 21.0722 85.8463 21.0343C85.8084 20.9963 85.7572 20.975 85.7037 20.9749H32.448Z" fill="#3F3D56"/>
<path d="M38.4995 33.5146H36.0788C35.9184 33.5144 35.7645 33.4504 35.6511 33.3367C35.5376 33.2229 35.4738 33.0687 35.4736 32.9078V30.4808C35.4738 30.3199 35.5376 30.1657 35.6511 30.0519C35.7645 29.9382 35.9184 29.8742 36.0788 29.874H38.4995C38.66 29.8742 38.8138 29.9382 38.9273 30.0519C39.0407 30.1657 39.1045 30.3199 39.1047 30.4808V32.9078C39.1045 33.0687 39.0407 33.2229 38.9273 33.3367C38.8138 33.4504 38.66 33.5144 38.4995 33.5146ZM36.0788 30.2785C36.0253 30.2786 35.9741 30.2999 35.9362 30.3378C35.8984 30.3758 35.8772 30.4272 35.8771 30.4808V32.9078C35.8772 32.9614 35.8984 33.0128 35.9362 33.0508C35.9741 33.0887 36.0253 33.11 36.0788 33.1101H38.4995C38.553 33.11 38.6043 33.0887 38.6421 33.0508C38.6799 33.0128 38.7012 32.9614 38.7013 32.9078V30.4808C38.7012 30.4272 38.6799 30.3758 38.6421 30.3378C38.6043 30.2999 38.553 30.2786 38.4995 30.2785H36.0788Z" fill="#3F3D56"/>
<path d="M81.6689 33.1101H35.6753V33.5146H81.6689V33.1101Z" fill="#3F3D56"/>
<path d="M201.293 54.5488H53.4277V54.9533H201.293V54.5488Z" fill="#3F3D56"/>
<path d="M53.4277 57.3804C54.9874 57.3804 56.2519 56.1126 56.2519 54.5488C56.2519 52.985 54.9874 51.7173 53.4277 51.7173C51.8679 51.7173 50.6035 52.985 50.6035 54.5488C50.6035 56.1126 51.8679 57.3804 53.4277 57.3804Z" fill="#3F3D56"/>
<path d="M201.293 57.1781C202.519 57.1781 203.512 56.182 203.512 54.9533C203.512 53.7246 202.519 52.7285 201.293 52.7285C200.068 52.7285 199.074 53.7246 199.074 54.9533C199.074 56.182 200.068 57.1781 201.293 57.1781Z" fill="#3F3D56"/>
<path d="M212.186 101.876C213.412 101.876 214.405 100.88 214.405 99.6512C214.405 98.4225 213.412 97.4264 212.186 97.4264C210.961 97.4264 209.967 98.4225 209.967 99.6512C209.967 100.88 210.961 101.876 212.186 101.876Z" fill="#3F3D56"/>
<path d="M64.926 101.876C66.1515 101.876 67.145 100.88 67.145 99.6512C67.145 98.4225 66.1515 97.4264 64.926 97.4264C63.7005 97.4264 62.707 98.4225 62.707 99.6512C62.707 100.88 63.7005 101.876 64.926 101.876Z" fill="#3F3D56"/>
</svg>
