<svg width="220" height="133" viewBox="0 0 220 133" fill="none" xmlns="http://www.w3.org/2000/svg">
<rect opacity="0.24" x="75" y="122" width="64" height="1" fill="#A3B3C6"/>
<path d="M67.75 79.532C68.6833 79.532 69.5233 79.6673 70.27 79.938C71.026 80.1993 71.67 80.568 72.202 81.044C72.734 81.5107 73.14 82.0613 73.42 82.696C73.7093 83.3307 73.854 84.0167 73.854 84.754C73.854 85.398 73.7793 85.9673 73.63 86.462C73.49 86.9473 73.28 87.372 73 87.736C72.7293 88.1 72.3933 88.408 71.992 88.66C71.6 88.912 71.152 89.122 70.648 89.29C71.8613 89.6727 72.7667 90.256 73.364 91.04C73.9613 91.824 74.26 92.8087 74.26 93.994C74.26 95.002 74.0733 95.8933 73.7 96.668C73.3267 97.4427 72.8227 98.096 72.188 98.628C71.5533 99.1507 70.816 99.5473 69.976 99.818C69.1453 100.089 68.2633 100.224 67.33 100.224C66.3127 100.224 65.426 100.107 64.67 99.874C63.914 99.6407 63.256 99.2953 62.696 98.838C62.136 98.3807 61.66 97.8207 61.268 97.158C60.876 96.4953 60.54 95.73 60.26 94.862L61.786 94.232C62.0473 94.12 62.3133 94.064 62.584 94.064C62.8267 94.064 63.0413 94.1153 63.228 94.218C63.424 94.3207 63.5733 94.47 63.676 94.666C63.844 94.9927 64.026 95.3147 64.222 95.632C64.4273 95.9493 64.67 96.234 64.95 96.486C65.23 96.7287 65.5567 96.9293 65.93 97.088C66.3127 97.2373 66.7653 97.312 67.288 97.312C67.876 97.312 68.3893 97.2187 68.828 97.032C69.2667 96.836 69.6307 96.584 69.92 96.276C70.2187 95.968 70.438 95.6273 70.578 95.254C70.7273 94.8713 70.802 94.4887 70.802 94.106C70.802 93.6207 70.7507 93.182 70.648 92.79C70.5453 92.3887 70.3307 92.048 70.004 91.768C69.6773 91.488 69.206 91.2687 68.59 91.11C67.9833 90.9513 67.1667 90.872 66.14 90.872V88.408C66.9893 88.3987 67.694 88.3193 68.254 88.17C68.814 88.0207 69.2573 87.8153 69.584 87.554C69.92 87.2833 70.1533 86.9613 70.284 86.588C70.4147 86.2147 70.48 85.804 70.48 85.356C70.48 84.3947 70.2187 83.6713 69.696 83.186C69.1733 82.6913 68.4593 82.444 67.554 82.444C66.7327 82.444 66.0513 82.6633 65.51 83.102C64.9687 83.5313 64.5907 84.0867 64.376 84.768C64.264 85.1227 64.11 85.3793 63.914 85.538C63.718 85.6873 63.4613 85.762 63.144 85.762C62.9947 85.762 62.836 85.748 62.668 85.72L60.848 85.398C60.988 84.4273 61.2587 83.578 61.66 82.85C62.0613 82.1127 62.5607 81.5013 63.158 81.016C63.7647 80.5213 64.4553 80.1527 65.23 79.91C66.014 79.658 66.854 79.532 67.75 79.532ZM83.9502 79.532C84.8835 79.532 85.7375 79.672 86.5122 79.952C87.2869 80.2227 87.9495 80.61 88.5002 81.114C89.0509 81.618 89.4802 82.2247 89.7882 82.934C90.0962 83.6433 90.2502 84.432 90.2502 85.3C90.2502 86.0467 90.1382 86.7373 89.9142 87.372C89.6995 88.0067 89.4055 88.6133 89.0322 89.192C88.6682 89.7707 88.2389 90.3307 87.7442 90.872C87.2495 91.4133 86.7315 91.964 86.1902 92.524L81.6262 97.186C82.0742 97.0553 82.5129 96.9573 82.9422 96.892C83.3715 96.8173 83.7822 96.78 84.1742 96.78H89.3682C89.7415 96.78 90.0355 96.8873 90.2502 97.102C90.4742 97.3073 90.5862 97.5827 90.5862 97.928V100H76.6982V98.852C76.6982 98.6187 76.7449 98.376 76.8382 98.124C76.9409 97.872 77.0995 97.6387 77.3142 97.424L83.4602 91.264C83.9735 90.7413 84.4309 90.242 84.8322 89.766C85.2429 89.29 85.5835 88.8187 85.8542 88.352C86.1342 87.8853 86.3442 87.414 86.4842 86.938C86.6335 86.4527 86.7082 85.944 86.7082 85.412C86.7082 84.9267 86.6382 84.502 86.4982 84.138C86.3582 83.7647 86.1575 83.452 85.8962 83.2C85.6349 82.948 85.3222 82.7613 84.9582 82.64C84.6035 82.5093 84.2022 82.444 83.7542 82.444C82.9235 82.444 82.2375 82.654 81.6962 83.074C81.1642 83.494 80.7909 84.0587 80.5762 84.768C80.4735 85.1227 80.3195 85.3793 80.1142 85.538C79.9089 85.6873 79.6475 85.762 79.3302 85.762C79.1902 85.762 79.0362 85.748 78.8682 85.72L77.0482 85.398C77.1882 84.4273 77.4589 83.578 77.8602 82.85C78.2615 82.1127 78.7609 81.5013 79.3582 81.016C79.9649 80.5213 80.6555 80.1527 81.4302 79.91C82.2142 79.658 83.0542 79.532 83.9502 79.532ZM93.0664 98.096C93.0664 97.8067 93.1177 97.5313 93.2204 97.27C93.3324 97.0087 93.4817 96.7847 93.6684 96.598C93.8644 96.4113 94.093 96.262 94.3544 96.15C94.6157 96.038 94.8957 95.982 95.1944 95.982C95.4837 95.982 95.759 96.038 96.0204 96.15C96.2817 96.262 96.5057 96.4113 96.6924 96.598C96.879 96.7847 97.0284 97.0087 97.1404 97.27C97.2524 97.5313 97.3084 97.8067 97.3084 98.096C97.3084 98.3947 97.2524 98.6747 97.1404 98.936C97.0284 99.188 96.879 99.4073 96.6924 99.594C96.5057 99.7807 96.2817 99.9253 96.0204 100.028C95.759 100.14 95.4837 100.196 95.1944 100.196C94.8957 100.196 94.6157 100.14 94.3544 100.028C94.093 99.9253 93.8644 99.7807 93.6684 99.594C93.4817 99.4073 93.3324 99.188 93.2204 98.936C93.1177 98.6747 93.0664 98.3947 93.0664 98.096ZM113.957 79.756V81.254C113.957 81.702 113.906 82.066 113.803 82.346C113.71 82.6167 113.617 82.8453 113.523 83.032L105.865 98.824C105.707 99.1507 105.483 99.4307 105.193 99.664C104.904 99.888 104.512 100 104.017 100H101.511L109.351 84.53C109.678 83.8953 110.042 83.3493 110.443 82.892H100.755C100.541 82.892 100.354 82.8127 100.195 82.654C100.037 82.4953 99.9574 82.3087 99.9574 82.094V79.756H113.957ZM122.556 91.922C121.856 91.922 121.17 91.8007 120.498 91.558C119.826 91.3153 119.224 90.9513 118.692 90.466C118.169 89.9713 117.749 89.3647 117.432 88.646C117.114 87.918 116.956 87.0687 116.956 86.098C116.956 85.1927 117.124 84.3433 117.46 83.55C117.796 82.7567 118.267 82.0613 118.874 81.464C119.48 80.8667 120.208 80.3953 121.058 80.05C121.907 79.7047 122.845 79.532 123.872 79.532C124.908 79.532 125.836 79.6953 126.658 80.022C127.488 80.3487 128.193 80.806 128.772 81.394C129.36 81.982 129.808 82.6867 130.116 83.508C130.433 84.3293 130.592 85.23 130.592 86.21C130.592 86.8353 130.536 87.428 130.424 87.988C130.321 88.548 130.167 89.0893 129.962 89.612C129.766 90.1253 129.528 90.6293 129.248 91.124C128.968 91.6093 128.655 92.0993 128.31 92.594L123.676 99.202C123.517 99.426 123.279 99.6173 122.962 99.776C122.654 99.9253 122.299 100 121.898 100H118.72L125.006 92.146C125.164 91.95 125.314 91.7587 125.454 91.572C125.594 91.3853 125.729 91.1987 125.86 91.012C125.393 91.3107 124.88 91.5393 124.32 91.698C123.76 91.8473 123.172 91.922 122.556 91.922ZM127.274 85.86C127.274 85.3093 127.19 84.8193 127.022 84.39C126.854 83.9513 126.616 83.5827 126.308 83.284C126 82.9853 125.631 82.7567 125.202 82.598C124.782 82.4393 124.32 82.36 123.816 82.36C123.293 82.36 122.822 82.4487 122.402 82.626C121.982 82.794 121.622 83.032 121.324 83.34C121.034 83.648 120.81 84.0167 120.652 84.446C120.493 84.866 120.414 85.328 120.414 85.832C120.414 86.9613 120.703 87.8247 121.282 88.422C121.87 89.01 122.7 89.304 123.774 89.304C124.334 89.304 124.828 89.2153 125.258 89.038C125.696 88.8607 126.065 88.618 126.364 88.31C126.662 88.002 126.886 87.638 127.036 87.218C127.194 86.798 127.274 86.3453 127.274 85.86ZM141.864 84.656C141.864 85.4213 141.733 86.112 141.472 86.728C141.22 87.344 140.879 87.8713 140.45 88.31C140.02 88.7393 139.521 89.0707 138.952 89.304C138.382 89.5373 137.79 89.654 137.174 89.654C136.502 89.654 135.881 89.5373 135.312 89.304C134.742 89.0707 134.248 88.7393 133.828 88.31C133.417 87.8713 133.095 87.344 132.862 86.728C132.628 86.112 132.512 85.4213 132.512 84.656C132.512 83.872 132.628 83.1627 132.862 82.528C133.095 81.8933 133.417 81.3567 133.828 80.918C134.248 80.4793 134.742 80.1433 135.312 79.91C135.881 79.6673 136.502 79.546 137.174 79.546C137.846 79.546 138.466 79.6673 139.036 79.91C139.614 80.1433 140.114 80.4793 140.534 80.918C140.954 81.3567 141.28 81.8933 141.514 82.528C141.747 83.1627 141.864 83.872 141.864 84.656ZM139.19 84.656C139.19 84.1147 139.138 83.662 139.036 83.298C138.933 82.934 138.788 82.64 138.602 82.416C138.424 82.192 138.21 82.0333 137.958 81.94C137.715 81.8373 137.454 81.786 137.174 81.786C136.894 81.786 136.632 81.8373 136.39 81.94C136.147 82.0333 135.937 82.192 135.76 82.416C135.582 82.64 135.442 82.934 135.34 83.298C135.246 83.662 135.2 84.1147 135.2 84.656C135.2 85.1787 135.246 85.6173 135.34 85.972C135.442 86.3173 135.582 86.5973 135.76 86.812C135.937 87.0267 136.147 87.1807 136.39 87.274C136.632 87.3673 136.894 87.414 137.174 87.414C137.454 87.414 137.715 87.3673 137.958 87.274C138.21 87.1807 138.424 87.0267 138.602 86.812C138.788 86.5973 138.933 86.3173 139.036 85.972C139.138 85.6173 139.19 85.1787 139.19 84.656ZM148.598 80.302C148.71 80.162 148.85 80.036 149.018 79.924C149.186 79.812 149.419 79.756 149.718 79.756H152.224L137.188 99.482C137.076 99.6313 136.931 99.7573 136.754 99.86C136.586 99.9533 136.38 100 136.138 100H133.562L148.598 80.302ZM153.288 95.24C153.288 96.0053 153.157 96.696 152.896 97.312C152.644 97.928 152.303 98.4553 151.874 98.894C151.444 99.3233 150.945 99.6593 150.376 99.902C149.806 100.135 149.214 100.252 148.598 100.252C147.926 100.252 147.305 100.135 146.736 99.902C146.166 99.6593 145.672 99.3233 145.252 98.894C144.841 98.4553 144.519 97.928 144.286 97.312C144.052 96.696 143.936 96.0053 143.936 95.24C143.936 94.456 144.052 93.7467 144.286 93.112C144.519 92.4773 144.841 91.9407 145.252 91.502C145.672 91.0633 146.166 90.7273 146.736 90.494C147.305 90.2513 147.926 90.13 148.598 90.13C149.27 90.13 149.89 90.2513 150.46 90.494C151.038 90.7273 151.538 91.0633 151.958 91.502C152.378 91.9407 152.704 92.4773 152.938 93.112C153.171 93.7467 153.288 94.456 153.288 95.24ZM150.628 95.24C150.628 94.6987 150.572 94.246 150.46 93.882C150.357 93.518 150.212 93.224 150.026 93C149.848 92.776 149.634 92.6173 149.382 92.524C149.139 92.4213 148.878 92.37 148.598 92.37C148.318 92.37 148.056 92.4213 147.814 92.524C147.571 92.6173 147.361 92.776 147.184 93C147.016 93.224 146.88 93.518 146.778 93.882C146.675 94.246 146.624 94.6987 146.624 95.24C146.624 95.7627 146.675 96.2013 146.778 96.556C146.88 96.9107 147.016 97.1953 147.184 97.41C147.361 97.6247 147.571 97.7787 147.814 97.872C148.056 97.9653 148.318 98.012 148.598 98.012C148.878 98.012 149.139 97.9653 149.382 97.872C149.634 97.7787 149.848 97.6247 150.026 97.41C150.212 97.1953 150.357 96.9107 150.46 96.556C150.572 96.2013 150.628 95.7627 150.628 95.24Z" fill="#DBE2EB"/>
<circle cx="107" cy="47" r="17.5" fill="#65D6AD" fill-opacity="0.1" stroke="#65D6AD"/>
<path d="M113.17 56.125H100.83C100.045 56.125 99.377 55.8496 98.8262 55.2988C98.2754 54.748 98 54.0801 98 53.2949V40.9551C98 40.1699 98.2754 39.502 98.8262 38.9512C99.377 38.4004 100.045 38.125 100.83 38.125H109.936C110.158 38.125 110.34 38.2012 110.48 38.3535C110.633 38.5059 110.709 38.6875 110.709 38.8984C110.709 39.1094 110.633 39.291 110.48 39.4434C110.34 39.5957 110.158 39.6719 109.936 39.6719H100.83C100.479 39.6719 100.174 39.8008 99.916 40.0586C99.6699 40.3047 99.5469 40.6035 99.5469 40.9551V53.2949C99.5469 53.6465 99.6699 53.9512 99.916 54.209C100.174 54.4551 100.479 54.5781 100.83 54.5781H113.17C113.521 54.5781 113.82 54.4551 114.066 54.209C114.324 53.9512 114.453 53.6465 114.453 53.2949V45.3672C114.453 45.1562 114.529 44.9746 114.682 44.8223C114.834 44.6699 115.016 44.5938 115.227 44.5938C115.438 44.5938 115.619 44.6699 115.771 44.8223C115.924 44.9746 116 45.1562 116 45.3672V53.2949C116 54.0801 115.725 54.748 115.174 55.2988C114.623 55.8496 113.955 56.125 113.17 56.125ZM105.453 50.4648C105.348 50.4531 105.248 50.4297 105.154 50.3945C105.072 50.3477 105.002 50.2891 104.943 50.2188L101.85 47.125C101.826 47.0781 101.809 47.0254 101.797 46.9668C101.785 46.9082 101.779 46.8496 101.779 46.791C101.779 46.5801 101.855 46.3984 102.008 46.2461C102.16 46.0938 102.342 46.0176 102.553 46.0176C102.611 46.0176 102.67 46.0234 102.729 46.0352C102.787 46.0469 102.84 46.0703 102.887 46.1055V46.0879L105.418 48.6367L114.207 39.918C114.254 39.8945 114.301 39.877 114.348 39.8652C114.406 39.8535 114.471 39.8477 114.541 39.8477C114.752 39.8477 114.928 39.9238 115.068 40.0762C115.221 40.2285 115.297 40.4102 115.297 40.6211C115.297 40.6797 115.291 40.7383 115.279 40.7969C115.268 40.8555 115.25 40.9082 115.227 40.9551L105.963 50.2188C105.904 50.2891 105.828 50.3477 105.734 50.3945C105.652 50.4297 105.559 50.4531 105.453 50.4648Z" fill="#65D6AD"/>
<path d="M190.722 130.184H192.57V124.322C192.57 124.146 192.576 123.968 192.588 123.788L191.052 125.102C191.012 125.134 190.972 125.158 190.932 125.174C190.892 125.186 190.854 125.192 190.818 125.192C190.758 125.192 190.704 125.18 190.656 125.156C190.608 125.128 190.572 125.096 190.548 125.06L190.212 124.598L192.768 122.384H193.638V130.184H195.33V131H190.722V130.184ZM202.561 126.704C202.561 127.456 202.479 128.108 202.315 128.66C202.155 129.208 201.935 129.662 201.655 130.022C201.375 130.382 201.043 130.65 200.659 130.826C200.279 131.002 199.871 131.09 199.435 131.09C198.995 131.09 198.585 131.002 198.205 130.826C197.829 130.65 197.501 130.382 197.221 130.022C196.941 129.662 196.721 129.208 196.561 128.66C196.401 128.108 196.321 127.456 196.321 126.704C196.321 125.952 196.401 125.3 196.561 124.748C196.721 124.196 196.941 123.74 197.221 123.38C197.501 123.016 197.829 122.746 198.205 122.57C198.585 122.394 198.995 122.306 199.435 122.306C199.871 122.306 200.279 122.394 200.659 122.57C201.043 122.746 201.375 123.016 201.655 123.38C201.935 123.74 202.155 124.196 202.315 124.748C202.479 125.3 202.561 125.952 202.561 126.704ZM201.451 126.704C201.451 126.048 201.395 125.498 201.283 125.054C201.175 124.606 201.027 124.246 200.839 123.974C200.655 123.702 200.441 123.508 200.197 123.392C199.953 123.272 199.699 123.212 199.435 123.212C199.171 123.212 198.917 123.272 198.673 123.392C198.429 123.508 198.215 123.702 198.031 123.974C197.847 124.246 197.699 124.606 197.587 125.054C197.479 125.498 197.425 126.048 197.425 126.704C197.425 127.36 197.479 127.91 197.587 128.354C197.699 128.798 197.847 129.156 198.031 129.428C198.215 129.7 198.429 129.896 198.673 130.016C198.917 130.132 199.171 130.19 199.435 130.19C199.699 130.19 199.953 130.132 200.197 130.016C200.441 129.896 200.655 129.7 200.839 129.428C201.027 129.156 201.175 128.798 201.283 128.354C201.395 127.91 201.451 127.36 201.451 126.704ZM209.522 126.704C209.522 127.456 209.44 128.108 209.276 128.66C209.116 129.208 208.896 129.662 208.616 130.022C208.336 130.382 208.004 130.65 207.62 130.826C207.24 131.002 206.832 131.09 206.396 131.09C205.956 131.09 205.546 131.002 205.166 130.826C204.79 130.65 204.462 130.382 204.182 130.022C203.902 129.662 203.682 129.208 203.522 128.66C203.362 128.108 203.282 127.456 203.282 126.704C203.282 125.952 203.362 125.3 203.522 124.748C203.682 124.196 203.902 123.74 204.182 123.38C204.462 123.016 204.79 122.746 205.166 122.57C205.546 122.394 205.956 122.306 206.396 122.306C206.832 122.306 207.24 122.394 207.62 122.57C208.004 122.746 208.336 123.016 208.616 123.38C208.896 123.74 209.116 124.196 209.276 124.748C209.44 125.3 209.522 125.952 209.522 126.704ZM208.412 126.704C208.412 126.048 208.356 125.498 208.244 125.054C208.136 124.606 207.988 124.246 207.8 123.974C207.616 123.702 207.402 123.508 207.158 123.392C206.914 123.272 206.66 123.212 206.396 123.212C206.132 123.212 205.878 123.272 205.634 123.392C205.39 123.508 205.176 123.702 204.992 123.974C204.808 124.246 204.66 124.606 204.548 125.054C204.44 125.498 204.386 126.048 204.386 126.704C204.386 127.36 204.44 127.91 204.548 128.354C204.66 128.798 204.808 129.156 204.992 129.428C205.176 129.7 205.39 129.896 205.634 130.016C205.878 130.132 206.132 130.19 206.396 130.19C206.66 130.19 206.914 130.132 207.158 130.016C207.402 129.896 207.616 129.7 207.8 129.428C207.988 129.156 208.136 128.798 208.244 128.354C208.356 127.91 208.412 127.36 208.412 126.704ZM214.125 124.478C214.125 124.814 214.073 125.116 213.969 125.384C213.865 125.648 213.725 125.872 213.549 126.056C213.377 126.236 213.175 126.374 212.943 126.47C212.711 126.566 212.469 126.614 212.217 126.614C211.945 126.614 211.693 126.566 211.461 126.47C211.233 126.374 211.033 126.236 210.861 126.056C210.689 125.872 210.555 125.648 210.459 125.384C210.363 125.116 210.315 124.814 210.315 124.478C210.315 124.134 210.363 123.828 210.459 123.56C210.555 123.292 210.689 123.066 210.861 122.882C211.033 122.698 211.233 122.558 211.461 122.462C211.693 122.366 211.945 122.318 212.217 122.318C212.485 122.318 212.735 122.366 212.967 122.462C213.203 122.558 213.405 122.698 213.573 122.882C213.745 123.066 213.879 123.292 213.975 123.56C214.075 123.828 214.125 124.134 214.125 124.478ZM213.291 124.478C213.291 124.214 213.263 123.99 213.207 123.806C213.151 123.622 213.073 123.472 212.973 123.356C212.877 123.236 212.763 123.15 212.631 123.098C212.503 123.046 212.365 123.02 212.217 123.02C212.069 123.02 211.929 123.046 211.797 123.098C211.669 123.15 211.557 123.236 211.461 123.356C211.365 123.472 211.289 123.622 211.233 123.806C211.181 123.99 211.155 124.214 211.155 124.478C211.155 124.738 211.181 124.96 211.233 125.144C211.289 125.324 211.365 125.472 211.461 125.588C211.557 125.7 211.669 125.782 211.797 125.834C211.929 125.882 212.069 125.906 212.217 125.906C212.365 125.906 212.503 125.882 212.631 125.834C212.763 125.782 212.877 125.7 212.973 125.588C213.073 125.472 213.151 125.324 213.207 125.144C213.263 124.96 213.291 124.738 213.291 124.478ZM217.131 122.618C217.183 122.55 217.237 122.498 217.293 122.462C217.353 122.422 217.431 122.402 217.527 122.402H218.295L212.013 130.826C211.973 130.878 211.925 130.92 211.869 130.952C211.813 130.984 211.747 131 211.671 131H210.879L217.131 122.618ZM218.877 128.972C218.877 129.308 218.825 129.608 218.721 129.872C218.617 130.136 218.477 130.36 218.301 130.544C218.129 130.724 217.927 130.862 217.695 130.958C217.467 131.054 217.227 131.102 216.975 131.102C216.703 131.102 216.451 131.054 216.219 130.958C215.991 130.862 215.791 130.724 215.619 130.544C215.447 130.36 215.313 130.136 215.217 129.872C215.121 129.608 215.073 129.308 215.073 128.972C215.073 128.628 215.121 128.322 215.217 128.054C215.313 127.782 215.447 127.554 215.619 127.37C215.791 127.186 215.991 127.046 216.219 126.95C216.451 126.854 216.703 126.806 216.975 126.806C217.243 126.806 217.493 126.854 217.725 126.95C217.957 127.046 218.159 127.186 218.331 127.37C218.503 127.554 218.637 127.782 218.733 128.054C218.829 128.322 218.877 128.628 218.877 128.972ZM218.049 128.972C218.049 128.708 218.021 128.484 217.965 128.3C217.909 128.112 217.831 127.96 217.731 127.844C217.635 127.728 217.521 127.644 217.389 127.592C217.261 127.54 217.123 127.514 216.975 127.514C216.827 127.514 216.687 127.54 216.555 127.592C216.427 127.644 216.315 127.728 216.219 127.844C216.123 127.96 216.047 128.112 215.991 128.3C215.939 128.484 215.913 128.708 215.913 128.972C215.913 129.232 215.939 129.452 215.991 129.632C216.047 129.812 216.123 129.96 216.219 130.076C216.315 130.188 216.427 130.27 216.555 130.322C216.687 130.37 216.827 130.394 216.975 130.394C217.123 130.394 217.261 130.37 217.389 130.322C217.521 130.27 217.635 130.188 217.731 130.076C217.831 129.96 217.909 129.812 217.965 129.632C218.021 129.452 218.049 129.232 218.049 128.972Z" fill="#A3B3C6"/>
<path d="M6.6 126.704C6.6 127.456 6.518 128.108 6.354 128.66C6.194 129.208 5.974 129.662 5.694 130.022C5.414 130.382 5.082 130.65 4.698 130.826C4.318 131.002 3.91 131.09 3.474 131.09C3.034 131.09 2.624 131.002 2.244 130.826C1.868 130.65 1.54 130.382 1.26 130.022C0.98 129.662 0.76 129.208 0.6 128.66C0.44 128.108 0.36 127.456 0.36 126.704C0.36 125.952 0.44 125.3 0.6 124.748C0.76 124.196 0.98 123.74 1.26 123.38C1.54 123.016 1.868 122.746 2.244 122.57C2.624 122.394 3.034 122.306 3.474 122.306C3.91 122.306 4.318 122.394 4.698 122.57C5.082 122.746 5.414 123.016 5.694 123.38C5.974 123.74 6.194 124.196 6.354 124.748C6.518 125.3 6.6 125.952 6.6 126.704ZM5.49 126.704C5.49 126.048 5.434 125.498 5.322 125.054C5.214 124.606 5.066 124.246 4.878 123.974C4.694 123.702 4.48 123.508 4.236 123.392C3.992 123.272 3.738 123.212 3.474 123.212C3.21 123.212 2.956 123.272 2.712 123.392C2.468 123.508 2.254 123.702 2.07 123.974C1.886 124.246 1.738 124.606 1.626 125.054C1.518 125.498 1.464 126.048 1.464 126.704C1.464 127.36 1.518 127.91 1.626 128.354C1.738 128.798 1.886 129.156 2.07 129.428C2.254 129.7 2.468 129.896 2.712 130.016C2.956 130.132 3.21 130.19 3.474 130.19C3.738 130.19 3.992 130.132 4.236 130.016C4.48 129.896 4.694 129.7 4.878 129.428C5.066 129.156 5.214 128.798 5.322 128.354C5.434 127.91 5.49 127.36 5.49 126.704ZM11.2029 124.478C11.2029 124.814 11.1509 125.116 11.0469 125.384C10.9429 125.648 10.8029 125.872 10.6269 126.056C10.4549 126.236 10.2529 126.374 10.0209 126.47C9.78894 126.566 9.54694 126.614 9.29494 126.614C9.02294 126.614 8.77094 126.566 8.53894 126.47C8.31094 126.374 8.11094 126.236 7.93894 126.056C7.76694 125.872 7.63294 125.648 7.53694 125.384C7.44094 125.116 7.39294 124.814 7.39294 124.478C7.39294 124.134 7.44094 123.828 7.53694 123.56C7.63294 123.292 7.76694 123.066 7.93894 122.882C8.11094 122.698 8.31094 122.558 8.53894 122.462C8.77094 122.366 9.02294 122.318 9.29494 122.318C9.56294 122.318 9.81294 122.366 10.0449 122.462C10.2809 122.558 10.4829 122.698 10.6509 122.882C10.8229 123.066 10.9569 123.292 11.0529 123.56C11.1529 123.828 11.2029 124.134 11.2029 124.478ZM10.3689 124.478C10.3689 124.214 10.3409 123.99 10.2849 123.806C10.2289 123.622 10.1509 123.472 10.0509 123.356C9.95494 123.236 9.84094 123.15 9.70894 123.098C9.58094 123.046 9.44294 123.02 9.29494 123.02C9.14694 123.02 9.00694 123.046 8.87494 123.098C8.74694 123.15 8.63494 123.236 8.53894 123.356C8.44294 123.472 8.36694 123.622 8.31094 123.806C8.25894 123.99 8.23294 124.214 8.23294 124.478C8.23294 124.738 8.25894 124.96 8.31094 125.144C8.36694 125.324 8.44294 125.472 8.53894 125.588C8.63494 125.7 8.74694 125.782 8.87494 125.834C9.00694 125.882 9.14694 125.906 9.29494 125.906C9.44294 125.906 9.58094 125.882 9.70894 125.834C9.84094 125.782 9.95494 125.7 10.0509 125.588C10.1509 125.472 10.2289 125.324 10.2849 125.144C10.3409 124.96 10.3689 124.738 10.3689 124.478ZM14.2089 122.618C14.2609 122.55 14.3149 122.498 14.3709 122.462C14.4309 122.422 14.5089 122.402 14.6049 122.402H15.3729L9.09094 130.826C9.05094 130.878 9.00294 130.92 8.94694 130.952C8.89094 130.984 8.82494 131 8.74894 131H7.95694L14.2089 122.618ZM15.9549 128.972C15.9549 129.308 15.9029 129.608 15.7989 129.872C15.6949 130.136 15.5549 130.36 15.3789 130.544C15.2069 130.724 15.0049 130.862 14.7729 130.958C14.5449 131.054 14.3049 131.102 14.0529 131.102C13.7809 131.102 13.5289 131.054 13.2969 130.958C13.0689 130.862 12.8689 130.724 12.6969 130.544C12.5249 130.36 12.3909 130.136 12.2949 129.872C12.1989 129.608 12.1509 129.308 12.1509 128.972C12.1509 128.628 12.1989 128.322 12.2949 128.054C12.3909 127.782 12.5249 127.554 12.6969 127.37C12.8689 127.186 13.0689 127.046 13.2969 126.95C13.5289 126.854 13.7809 126.806 14.0529 126.806C14.3209 126.806 14.5709 126.854 14.8029 126.95C15.0349 127.046 15.2369 127.186 15.4089 127.37C15.5809 127.554 15.7149 127.782 15.8109 128.054C15.9069 128.322 15.9549 128.628 15.9549 128.972ZM15.1269 128.972C15.1269 128.708 15.0989 128.484 15.0429 128.3C14.9869 128.112 14.9089 127.96 14.8089 127.844C14.7129 127.728 14.5989 127.644 14.4669 127.592C14.3389 127.54 14.2009 127.514 14.0529 127.514C13.9049 127.514 13.7649 127.54 13.6329 127.592C13.5049 127.644 13.3929 127.728 13.2969 127.844C13.2009 127.96 13.1249 128.112 13.0689 128.3C13.0169 128.484 12.9909 128.708 12.9909 128.972C12.9909 129.232 13.0169 129.452 13.0689 129.632C13.1249 129.812 13.2009 129.96 13.2969 130.076C13.3929 130.188 13.5049 130.27 13.6329 130.322C13.7649 130.37 13.9049 130.394 14.0529 130.394C14.2009 130.394 14.3389 130.37 14.4669 130.322C14.5989 130.27 14.7129 130.188 14.8089 130.076C14.9089 129.96 14.9869 129.812 15.0429 129.632C15.0989 129.452 15.1269 129.232 15.1269 128.972Z" fill="#A3B3C6"/>
<path d="M1 106C1 110.418 4.58172 114 9 114C13.4183 114 17 110.418 17 106H1ZM37.7035 36.7035L32.0467 31.0467L37.7035 36.7035ZM107 8V0V8ZM197 106C197 110.418 200.582 114 205 114C209.418 114 213 110.418 213 106L197 106ZM17 106C17 82.1305 26.4821 59.2387 43.3604 42.3604L32.0467 31.0467C12.1678 50.9255 1 77.887 1 106H17ZM43.3604 42.3604C60.2387 25.4821 83.1305 16 107 16V0C78.887 2.86102e-06 51.9255 11.1678 32.0467 31.0467L43.3604 42.3604ZM107 16C130.869 16 153.761 25.4821 170.64 42.3604L181.953 31.0467C162.074 11.1678 135.113 -2.86102e-06 107 0V16ZM170.64 42.3604C187.518 59.2386 197 82.1305 197 106L213 106C213 77.887 201.832 50.9255 181.953 31.0467L170.64 42.3604Z" fill="#65D6AD"/>
<path d="M197 106C197 110.418 200.582 114 205 114C209.418 114 213 110.418 213 106H197ZM192.883 58.7968L199.894 54.9435H199.894L192.883 58.7968ZM159.528 23.2664L163.816 16.5127L159.528 23.2664ZM113.183 8.19526L112.678 16.1793L113.183 8.19526ZM213 106C213 88.1491 208.492 70.5872 199.894 54.9435L185.872 62.6501C193.172 75.9326 197 90.8436 197 106H213ZM199.894 54.9435C191.296 39.2997 178.886 26.0807 163.816 16.5127L155.24 30.0202C168.035 38.144 178.572 49.3677 185.872 62.6501L199.894 54.9435ZM163.816 16.5127C148.746 6.94463 131.503 1.33744 113.688 0.211198L112.678 16.1793C127.805 17.1356 142.444 21.8964 155.24 30.0202L163.816 16.5127ZM113.688 0.211198C95.8724 -0.915041 78.0611 2.47615 61.906 10.0702L68.7127 24.5502C82.4292 18.1024 97.552 15.2231 112.678 16.1793L113.688 0.211198Z" fill="#677D96"/>
</svg>
