<svg width="308" height="47" viewBox="0 0 308 47" fill="none" xmlns="http://www.w3.org/2000/svg">
<g filter="url(#filter0_dd_1626_8320)">
<path d="M0.5 12L19.7188 22L34.3217 29.5983C37.2148 31.1036 40.6602 31.1036 43.5533 29.5983L58.1562 22L70.735 15.455C74.6714 13.4068 79.4867 14.1976 82.5613 17.3971L91.4075 26.6029C94.482 29.8025 99.2974 30.5932 103.234 28.545L115.812 22L130.415 14.4017C133.309 12.8964 136.754 12.8964 139.647 14.4017L149.634 19.5983C152.527 21.1036 155.973 21.1036 158.866 19.5983L166.829 15.455C170.765 13.4068 175.58 14.1976 178.655 17.3971L189.736 28.9288C191.622 30.891 194.226 32 196.947 32H209.46C211.067 32 212.651 31.6127 214.076 30.871L231.125 22L245.728 14.4017C248.621 12.8964 252.066 12.8964 254.96 14.4017L269.562 22L286.611 30.871C288.037 31.6127 289.62 32 291.227 32H308V47H0.5V12Z" fill="url(#paint0_linear_1626_8320)"/>
</g>
<defs>
<filter id="filter0_dd_1626_8320" x="-35.5" y="0" width="379.5" height="107" filterUnits="userSpaceOnUse" color-interpolation-filters="sRGB">
<feFlood flood-opacity="0" result="BackgroundImageFix"/>
<feColorMatrix in="SourceAlpha" type="matrix" values="0 0 0 0 0 0 0 0 0 0 0 0 0 0 0 0 0 0 127 0" result="hardAlpha"/>
<feOffset dy="24"/>
<feGaussianBlur stdDeviation="18"/>
<feColorMatrix type="matrix" values="0 0 0 0 0 0 0 0 0 0 0 0 0 0 0 0 0 0 0.04 0"/>
<feBlend mode="normal" in2="BackgroundImageFix" result="effect1_dropShadow_1626_8320"/>
<feColorMatrix in="SourceAlpha" type="matrix" values="0 0 0 0 0 0 0 0 0 0 0 0 0 0 0 0 0 0 127 0" result="hardAlpha"/>
<feOffset dy="3"/>
<feGaussianBlur stdDeviation="2"/>
<feColorMatrix type="matrix" values="0 0 0 0 0 0 0 0 0 0 0 0 0 0 0 0 0 0 0.1 0"/>
<feBlend mode="normal" in2="effect1_dropShadow_1626_8320" result="effect2_dropShadow_1626_8320"/>
<feBlend mode="normal" in="SourceGraphic" in2="effect2_dropShadow_1626_8320" result="shape"/>
</filter>
<linearGradient id="paint0_linear_1626_8320" x1="308" y1="20.0001" x2="-27.0831" y2="20.0001" gradientUnits="userSpaceOnUse">
<stop stop-color="#896FF4"/>
<stop offset="1" stop-color="#293B51"/>
</linearGradient>
</defs>
</svg>
